<mxfile host="Electron" agent="Mozilla/5.0 (Windows NT 10.0; Win64; x64) AppleWebKit/537.36 (KHTML, like Gecko) draw.io/25.0.1 Chrome/128.0.6613.186 Electron/32.2.6 Safari/537.36" version="25.0.1" pages="2">
  <diagram id="hawUnBlDMA_ov4xNBKYL" name="overview">
    <mxGraphModel dx="1912" dy="1214" grid="1" gridSize="10" guides="1" tooltips="1" connect="1" arrows="1" fold="1" page="1" pageScale="1" pageWidth="827" pageHeight="1169" math="0" shadow="0">
      <root>
        <mxCell id="0" />
        <mxCell id="1" parent="0" />
        <mxCell id="Iz3JguLne4xoaT1ydrIv-1" value="" style="shape=image;verticalLabelPosition=bottom;labelBackgroundColor=default;verticalAlign=top;aspect=fixed;imageAspect=0;image=data:image/png,iVBORw0KGgoAAAANSUhEUgAAAo0AAAJtCAYAAABT6UrPAAAAAXNSR0IArs4c6QAAAARnQU1BAACxjwv8YQUAAAAJcEhZcwAADsMAAA7DAcdvqGQAAP+lSURBVHhe7N0HYBvl4Tbw5zS8bXlI3jPeK7Gz92YEKLPlzy6Fr0AZpWUUyigUKLSF0gEFWlpaRmnLahktlJ0QyCKxnTiJE++9LVvetqT73pPPiRzbkew4iZM8P3qN771Xp1vSPffekJSZnSODiIiIiGgMnRYL/AMCoFH7iYiIiIjGxdBIRERERC4xNBIRERGRSwyNREREROQSQyMRERERucTQSEREREQuMTQSERERkUsMjURERETkEkMjEREREbnE0EhERERELjE0EhEREZFLRy00mowmeHl5qX1EREREdCLThoaFP6j+PWXiExLw4IMPISdnNrZs2QSr1aoOoVNFRkYmgoND0NbWqpZMb4ZAA9adeRYWLVwCH28fVNdUq0OG5OTOxumnn46UlFS0tDaju7tbHTL9eHh4wGazqX1ERERHZqC/H56enlMfGsPDwnHPPfehYGcBTCaTCI652LJ1M+w2u1qD3JGenoHly5c7/h3u0tLS0dlpEV2nWmt6+ta3LsZ3vnMtlixZitzZs1EjAlhbW5s6dPoxmULxyM8eQ4gIuf39fTjjzHWIiIzE9u1fO4Yr83PF5VfCbG5HbGwsLrzgmygs3CX6zY7h00lISDB+9KM7xLTniXnpV0uJiIgm76iExqDAINxz3/2oqCjH0089he07vsbZZ52D1JQ0bBXBUZZltSYdzrx583HbbbfDy9sHoSLQhIkgrnRxcfFYt+4s7BKBpb29Xa09/Vx99Xfw9tv/wl//+hfExSfgiiuuQlhoOErLStHX16vWmj4uv+IKDA4M4uFHfioOcLYgvyAf3xHzkJef5xj+gx/8EE8++QTeffdtrF//OSIjojBn7jxs3PiFY/h0MnPmTHFwkYbqqio0NTerpURERJM35aHR19cXd99zLywdHWIH+yRsNit6e3tRkJ+P8y+4EDHRMY4QOZ3oPfS4/rs34PTTz8CyZcsdXVZmFgp25h/XltGLL74ElVWVePmllxytXcPdVhFoTKGhOP+8CxwtuRZLh/qK6WXdWWdj185d2LevCF9/vQ2FhYVYunQpLrrom5AkDcrKS6dVy/O53zgPeXl52L9/n6Nf2YZXrliFquoq6HQ6sV0swx/+8AcxZOigR9luFi9Zgvff/6+jfzpZsXyZYxtpM7ehtLRMLSUiIpq84dA4JTfC6PV63HbbHQgPDce2bduwcMFC+Pj4wM/PD0lJydi8aROWiNBwxeVXqa+YHi666FtIz8hAUdHeA53Sr5QfTz6+Puju6lL7DlJaal9/7XWUlpTgsUd/jpdffnVU9/zzf8a1137XsU6mi+Li/Xjggfvx0kt/xWlrT8cvfvEE5s+frw49/qqrq5GbmwutVuvoT0xMQmBQkCivQm1tDex2GXPmznUM02g0jlbG6qqR1zxOB5IkIWFGguO0eVRUtFp6UFhYmKMOERHRZEiZ2TlHfM5YuVP6zjvvgs5D7/jbbrfj4Yd/6tgJ33vvfaKGhJbWFpjb2hzlx0tycgpuuP5GSNqhHacxJARP/uoJx+nIYTmzcnDb7XeI6R26gUO2yXjuD884gs+xcs+996NGBJkPP/xQLRlJCS6xMbHQ6oZCjjNvEdbPO/c8fPTRh3jnnX+rpcfWk7/+Lf715pv4YuMGteQgb29vnCum78wzz0JJSbEIui+iqqpKHXp8BAUF46cPPYzB/kHU1dciMyML6zd8hhdf/Ktj+DnnnOu4rlFpMQ0OCUawqP/Izx5ynAKeTqKionDDDdfjP//5L9auXYOf/ezRA5eEKAdwd931I7zyt79hX9FQiyoREZE7Oi0W+AcETM3p6Z6eHnz2+aeIj4t3nBr77W+fxN69e9AqgmJVZSXmzp2LrVu34qmnfidqH7/rGjMzMpE7ZzZe/+c/UbR3Lz75+CPs3LVTHTqkobEBxfv3o6K8wlFHqV9RVi6CTaVa4+hbtnwFLGIFlZaWqiUjKUGgvaPd0aJ0aNfU1CQCgi/i4+Px5Zcb1VccW8qNJMqyG2uZKXfS795diE2bv0RaWgYuv/wKEdqCUFJcgoGBAbXWsaVcZ7lhw3oMWgdFZ8V/3nsX//vfB+pQOE5bK9uzj4+3Y9tQrtVsFNuJs9mzZyMqOgZ1dbVqybGXk5MDf39/fPbZZ1i+fBkKCgocl4goUlNTkZWV5Vj+RXuLHGVERETumNLT08qpaKWlMT0zEz975CHHzmrY9h3b8dhjj2LBgoX4/q0/gF7voQ45Pvr6+hwtYEpXKMKLQmkdnTtvPiIjIx39SvlwHaX+iUZ53IpWp1P7pqemxib85te/wi9+8RiSU1LxxK9+jQULF6lDj63g4GBHC3NPdw9qq2tE8ArAsqXLR3TKDUm1NbXosHRAp57GVijX6t5997344Q/vcGxHx1PijBkoKytzHDz09PQe2J4VM2YkOEK5cpMMT1ETEdFkHHFoDAkJwf0/edDRbPnTB3+CisoKdchByqndhx5+EHFxcWIH+2PHqbLpYsXKlXj8iSdx7TX/Dz//+ePH/XrGU83u3btx7z1344MP3sd1373ecSRzLAWL7VdZ75dedgUuuOgil93//d+ljmsyU1JS8J2rr3U8qmdwcADNLcf+TuXAoEAEBQ51SvCNi49DacnQzS91tbWO09XDZsxIxMaNX8LbywuZGRkHXqd0RERE7jji0PiDH96O6KhoR4vLb37zlONmjO9ed706FI6/lbJfih2t0hKjPBz5/137XXXo8aVcX/ftK7/juEHje9+7Dr/85c8d19s572zpWJEhif+OtaTEREfL7M03fw+3/fBWl933b7kJvX09uOuue5CalobHH/8FfvWrx9HdOfrGpaNpyZIluOP223H7HUPdbbf90HHquaKy3DG8tq5WfC6HtmODweB4fqMS0Pfs3oNLLr3kwOuUjts7ERG544hD4zNPP4VHH30Ef/zDc47rp5qbGvH+f/6jDgU++O9/0dba6ngo9dNP/dZR9+VXXlKHHl9hoWGOx6ds2vSVo195YHN3dxd3osdQpnJJw6M/d9wY88xzvz/2D6SWNBP+9RRvb1/Hs0jvuecuxzZzPGzevBm/euJXI7tfPYm+vqHlV1tbi4jICMep6BkzZjh+wUa53vWfr7024jWPPfZzR10iIiJXjjg01jfUQ5btuPSyy1BeXoafPHA/ampr1KFw/BzbAw/ej5aWFvzf/13iuIGjVb0z+Xirq69z3MRz1lnnOE6LKqeqfXx8UV5x7G56OVWFhoU6WqnvuuvHKN6/D3fc/kN8vW2rOnT66+jocDwl4HhRgq65vX1E53z9bW1tnWObNhqNmJE4dK2jcgOV0jm/Zjr/HCIREU0vRxwaV69Z47gRYNOmzY6bGrrGeL6g8usljzzyECqrRYD8yU8dv0s8HSg3Bjz33LOOh3v/6U9/wbevGjpVrbSW0tGhXBKgHDz84udPwNfHB/fddw9eeOHP6Oya3j+NeKJRQq3yWYyKjsSMhAQRGodOWxMREU3WEYVGZeev3Ayg/Bayl7cnrv1/33Vcw6g8yHuY8rdS9u2rv4O+3l7HQ6d/9KO7kZM7W61xfOXlbcett96Mn/zkPsd1bZ9++ok6hKaScpp0+fIVePyXTzrukn722afxs589fNyf0XgyU26GmZk9y3FNo9LSSEREdCSOKDS2trRiwxfrsXPXwUfsxMXGY8XylWqf8rNmKx1lCrtsx+Ytm/DlVxvRc5xOi/n6+OLCCy8a0Z111tmOXwQ588x1o4Yp9Y815dEvvkdwh7nyWmUc04XyUPWf/vRhXHXV1fjo4w9x1113OJ7beaKy2QaRlZXtuJxBedD6dFVTWyeWfZKj1XG6XBJCREQnrin5RRhnStBKS0t33PCiuOee+xw/z/fWW286+o+nmNhYXH7ZlWJH7/5duspPyP3t1ZeP6a9/zJs3HzfffAsqKqtgn+BNGhqtFvFxsXj66aew7ThdI6g8kubjjz/C9u3bcPH/XYrFixbjqy+/xD9f+wfM5ja11vSQmzsHN954E3760IPoVx+EfTjKjVP33HO/4zrMTBEclZtL/va3l3HZpZfjq01f4f33D94EdrylpqXiyiuucPyu9ptvvqWWEhERTczwL8KcUqHxRJKeniG6dLVvYvbu3ev4BZPjRXnW5dlnn+P4GcnyinK88vKLKCkpUYdOL8rNInfffY/jN9LdpRxAPPrYI46fcbz4W5dg6dJljhtM/vnPf0yr0Ojn74e777rLERiV4EhERDQZRy00nnvu+Tj/vAvQbml39AcGBOLfb//ruP0OMh0fwzc7KeF1+PePpzPlV2C83Hiw+MDggON0r7P4+ARcfvmV2LFj+7QKjYp58+Zh586dx/5RRkREdNI4aqFR+bWXWTk50KiXS9rFfwX5+WPeVU10MvH38+dd4EREdNI5aqGRiIiIiE4ew6Fx+t76SURERETTBkMjEREREbnE0EhERERELjE0EhEREZFLDI1ERERE5BJDIxERERG5xNBIRERERC4xNBIRERGRSwyNREREROQSQyMRERERucTQSEREREQuMTQSERERkUtSZnaOrP5NU0wTkAKPjB+If1PFktaqpdOUbIPdsg8De34j/t2vFhIREdGprtNigX9AAFsajybPWQ9AY8iY/oFRIaZRmVZlmomIiIgOxdBIRERERC5JsXEzeHr6KNEHpcN/9t3QBWZA0kzv1kbZboO1fQ86d/wcg+a9aikRERERHKeneU0jEREREY2L1zQSERERkdsYGomIiIjIJYZGIiIiInKJoZGIiIiIXGJoJCIiIiKXGBqJiIiIyCWGRiIiIiJyiaGRiIiIiFxiaCQiIiIilxgaiYiIiMglhkYiIiIicomhkYiIiIhcYmgkIiIiIpcYGomIiIjIJYZGIiIiInKJoZGIiIiIXGJoJCIiIiKXGBqJiIiIyCWGRiIiIiJyiaGRiIiIiFxiaCQiIiIilxgaiYiIiMglhkYiIiIicomhkYiIiIhcYmgkIiIiIpcYGomIiIjIJYZGIiIiInJJyszOkdW/jy9J5FfZrvYMkfRe0EalAL5BkHQesFuaYavdBwz0qjWmtwXzFzj+3bJ1i+Pf6Uaj0SAo0ACdTquWHJ7VaoO5vQN2+8j1RERERCevTosF/gEB0yc06medBltDGeyNpZC8fKGfcw50aYtFsjkk0NitsO7fgsFt70Du61YLpxcljF111bexfPkKR/+GDevx0ksvTquwpUxjavIMERh1kN3cAiRJCY5W7CsW64nBkYiI6JQwHBq1oWHhD6plx5U2Oh2eSy6G3NsJj9XfhjYqbaj10TYIe2uNCIidkLwDHCFSY4yFLnEu7DV7RXmXOobpQa/3wC233IKc3Dn48wt/xvYdO3DON85FYuIMbN++Q4Qtm1rz+FJaGAMN4qhBJMGJdErYHBwcRG9fnzomIiIiOpkN9PfD09NzGoXGyBQRHNOgjZsJycMH8kAfBje/if5P/gLr3i9E9yUGd34iprwbmrAEESD9Rd1s2Eq2AtZBdSzHl5+fH370o7sQFRWNP/zhOdTW1qK9vR179uzGmjVrMWfOHBEcv8bAwID6iuMnIMAPPj4+jiA4EUqrZF9/H7q7e9QSIiIiOpkNh8ZpeyPM4JZ/wbrnC0dL4wHWAREcP0X/f55y/C35BUE/71x14PFlMprwwE8eFEHMF0899TSamprUIXD8rZQpw5Q6Sl0iIiKiE8m0DY0eCy+EJixR7RvJ3lyJgW3vOv7WJi1wXAN5PMXFxeGBBx9CZ1c3nnv2GXR2WtQhBylljmGijlJXeQ0RERHRiWL6PnJH7wmvdTeOGxxt+zfB1lACua8DGlO8WnrsxcbG4r77HkBpWRn+/Oc/oa+/Xx0ymjJMqaPUVV6jvJaIiIjoRDB9Hrlzgjr//Aswf/5CPPXU7yC7eRuych3hLbd8H1u3bsa///0vtfTYCgs1wmQ0QqOZ2DWNdruM5pYWNDa1qCVERER0Mhu+e3ratDRKOp3614lFuZu4v7/f7cCoUOoqr1FeS0RERHQimDapRROTBZ/vPg3vSx8GPLzV0pGUU9U+V//KUc+50889R60xfcTGxODyy69wdMrfRERERCeyaRMa7fXFgM3quCNalzL0SyqHUh783ff+M8Dg+NcNTgfGECO+d+ONGBgccHTK30oZERER0Ylq2oRG5dddrMXbHH97zD8PGtPYdxcrwXFg81tq3/SUnpGBhoYGPPW73zg65W+ljIiIiOhENa0uqhvc+m/I3WZAq4fX2d+HbuYaQOehDhVEuS5jGfQLLlALpidvby90dh38pRrlb6WMiIiI6EQ1rUKj3N+N/vefGQqOek94iHCoXMPodeFd8Dr/Tvh8+5fwWPJ/kDy8IHe2YWDD36b9qerpanDQign+GIyD8hrltURERHRqmTY/IzhM+S1p5TS15OkLTXCkiLUaSD4GSL6B4m8tYLfBuvcrDHz6AuyNZbDVl0LjGwB7Q5k6hmMrJiYGCxcuQkpKKubOnevoEhMT0djQgC1bNjvq5ObORmZmlugyD9SJiopCfv4OlJaWOuoca/0DAwgOMjju4FZu/HanU1itVtTWNYh+tYCIiIhOasM/Izitn9MoefpAG5UKKcAE2Gywd7XCXlvk+F3qEdQweTzo9XqsWrUKfn7+aslQsPriiy9gNrc5+oOCgrFs2TLonB4r1NXVic8++wyDg8fvd7OVwBgUaBDTJZafG6xWG8ztHbDb7WoJERERneyGn9PIh3sTERER0bim3cO9iYiIiGj6YmgkIiIiIpcYGomIiIjIJYZGIiIiInKJoZGIiIiIXGJoJCIiIiKXGBqJiIiIyCWGRiIiIiJyiaGRiIiIiFxiaCQiIiIilxgaiYiIiMglhkYiIiIicomhkYiIiIhcYmgkIiIiIpcYGomIiIjIJYZGIiIiInKJoZGIiIiIXGJoJCIiIiKXGBqJiIiIyCWGRiIiIiJyiaGRiIiIiFxiaCQiIiIilxgaiYiIiMglhkYiIiIicomhkYiIiIhcYmgkIiIiIpcYGomIiIjIJYZGIiIiInKJoZGIiIiIXGJoJCIiIiKXGBqJiIiIyKWjEhpl2YC05adjTriklhwbx+t9iYiIiE52R6elMWAZrr79W8j2tasFx8jxel8iIiKik9xRCY2ec3OQ0rkTO0rUgmPkeL0vERER0cluykOjLAO5s7Jg31mA3WrZsXC83peIiIjoVHAUWhpTkTPTB7t3fg2bJEE7+3r8/k+P4sIYkeqcyOHn4eE/PYubFngM9cOA7At+gEd//yL+/vrrePXPv8GPr1wIkxjiGC4H4qx7/4xfXpaD7IvvwRPP/wNv3bPaMWzIyPcdrv/b78xUhw+RYy/Co3/6JS6OV8erCcOiK+7GE394Cf/4x6v4829/gqvmGx3DnHnHn4EbH3gCf3j5H/jb87/Dg9etRry3u9NGREREdGKb+tAYMwczTaXY+XW3o9daUIAKv5lYuyLB0T8sbvVpyDHUYGd+vwhdOmRe83M8cvVsaPf8Dy8//TT++WUr4s+/G/dfNkN9hQY+QWGIX30TvjevB9vf/guee3+fOkw45H2H65sMnmq/SucPY1gI/HRK2JOQdc0juPuccFR/8gp++5s/46MqI75x5534RrhaX9AmXYZfPnE9cqyFePtPv8ef3tkJ7aJb8fj95yFUaeJ0NW1EREREJ7gpD40hs2chtqYA25vVAus2fPylGTFLVyHBEbCUsBaDlUvj0bnpE3zVp5Ro0Zb/Ll7+zQO45+m/4b/r1+Pff/45Xt02iITZcxCivk7hbd+GX9/1a/z9vf/hw7xatXSM93VLDObMjkDnFy/it699iE2bP8Hfn3gIjz73AUoGtY4ashyCs679JkLynsIdj/xFTNsX+OzdP+EnD/wDDZmX4/IFBxfheNNGREREdKKb0tAoy56Yk5sK8648VEhDj72RJBvyP9mI1qglWJXsKALiV2JxTDu++mSb41SyJPWjYcd/8cZn5bBqvREclYjs+cuRaLAB4RGIUl+m6N23E8X2kY/UGet93dOM6poeGJZciZvOmY84f62YlhbkffIZ9raK91Zos5GbAezNK4UhJgYx0dGOLtpejuIWX8QnRg7VE8aaNiIiIqKTwdS2NGpzMCvDhl35hWrBEPvuj7ChLhyLV6U7+pNXLUNU8xf4uMDq6Fd4JJyGmx56Bq++8QZefPZXuP+mi5AVqA50YrWpYc7ZOO/riiT14tNnfoZXC/VYfO1P8PTfXseLv3kA15+ZDJ/h1k0RWk0aDyy48Vk8+9wfnLr7cXqYJAbHDNUTxpw2IiIiopPA1IbGtBxke+1Gft7BMKiQpDJ8vL4CYYtXIh1JWLEkErXrP0IRhlrlZMzCdQ/diiVeBXjlsVvx7W+ej/+7+kY8sb7JMdylcd5XoZUOmUUvTwzdejNEai/A3x+9BVdeejVu++kz+KjWhNU3/Rx3r1NvhjGbYUE/1v/im/jWN0d3V/9u21A9IiIiopPYlIbGhNmzEFxcgB09aoGTyo8+Q0nwYqy8YDWWhFXg849L1SFCaCqSA7uw6e/P4f1tpWgbUE45eyAxJlStcHhjv28H2sx2+ETHHrgmUrnxJS4nEyGOPtGvCUTi/JWYFQbY+1pQvP1jvPzLX+GDWk9kZKcOVeopRmm9J9JF/2BvD3r7eh1dz0AwMualIMiDDxInIiKik9+UhUZZDsbcnFhU529H61jXFTZ9gs/2BOK0K9chZP9n+LhGLVe0VKC6yw+zTj8Xs2IN8AmMxfxv/RhXLfBSK4xvvPdVrqUs3LUbgykX4e7r12HuzNlYfdm9uG2pD4bvrwbicdZNd+D+O6/FoiQj/INnYP45F2BB2AD27y121JCkUrz+t03wPuOHuO/SJUg0BcIYn4tv3P4gfnLHLVgXO7WNtURERETT0dQlHp+5mJlsxq68crVgJElqx2ef5gF6LQo//QQtzgHPvhV//vW/0ZH9XfzsmVfxz5efxg8XlOOf71aoNQ7jMO/b+N7v8eznLYg9+2Y88NM7cXFGFf763EZY1OGSPR9/fuwvKPA7Az/+9V/x95eewk++k43Wdx/Hk+8ePDVu+fwJ3P277TCccwd+88Ir+OvTj+A7mR34368fwF/3jj4lTkRERHSykTKzcw4+z+YIaJfchX/eKuOJS36BzZO8g1jW+iEiNhy+/c2orG2H1Y07od15X8nDH35SJzr71YJDKM+J9DdFIMS7D821TegZZzyyrIWvKRJGrQUNTe0YkCc3n0REREQnik6LBf4BAVPX0hgb6oXqz79CwRHcQCzZutBQXoLSug63AqPCnfeVB8YPjApJsqKrpRqV1c3jBkaFcsq7R9SrauxgYCQiIqJTypS1NBIRERHRyWfKWxqJiIiI6OTF0EhERERELjE0EhEREZFLDI1ERERE5BJDIxERERG5xNBIRERERC4xNBIRERGRSwyNREREROQSQyMRERERucTQSEREREQuMTQSERERkUsMjURERETkEkMjEREREbnE0EhERERELjE0EhEREZFLUmZ2jqz+7bZOi0X9i4iIiIhOFP4BAepf7lNyn/K6SYfGybwpERERER05nVar/uU+s9nM0EhERER0KlFCY2xsrNrnWlVV1RGHRl7TSEREREQuMTQSERERkUsMjURERETkEkMjEREREbnE0EhERERELjE0EhEREZFLDI1ERERE5BJDIxERERG5xNBIRERERC6d1L8Ik5aWjqysmSN+asdqs+GLL9ajsbFBLSEiIiI6sfAXYabQgoULcc899yF39mykpacf6BYsXIAHHvgpEuIT1JpTR5P0cyy95T0khqsFRERERCeJk7al8Y4770JvTy/efPMNtWSIRqPB5ZddjsSkRDz++C9QWlqqDjkysuyP8HP/izTDa/j65d+hW5LUIURERERT63i0NJ60oVFpTSwvL8eHH36olhwkSRpccsklmD17tloyUl9/H3Zs344///mPGBgYVEsPT/a+BDnX/BCard9C3rYqtZSIiIho6jE0TqHDhUaFJElISEhw/Hsobx8fnHfe+Vj/+ed4441/qqWH5zX3RSxYMIjiv1yLuh62MhIREdHRc8pd03jZFVeJ4Jao9o2mDFPqHA2yLKOsrMxxevrQrnDXLuzY/jVSU1PV2ocny0mISEuDvfo/aOxWC4mIiIhOIsc1NHa0d+Caa787ZnBUypRhSp3jwWazQac7eNf1YUWch7CgXrTu+R9svJaRiIiITkLHNTT+5723sW3b1lHBcTgwKsOUOtOZLGsRnLEWnn3r0VDKZkYiIiI6OR33R+688/ZbI4Kjc2BUhk172mUITw7GQMl7MNvVMiIiIqKTzLR4TqNzcDyWgbGntwdtba1jdh9/9BFeeeUlteb4dMnnwOhRh4ZdWyHz1DQRERGdpKZFaFQMB8dj2cLYaelATqIeV51uGNWdNWcQq9I7ce6SILX2aLIchNCMRdC0foCGZrWQiIiI6CQ0bUKjQgmLxyowKpQ7qBOjvJCb4jt+l+yr1h6D/9kIj9Kife/b6GUrIxEREZ3ETtnnNCoaGurUvybHZ/6rmDe3Hfte+B4a+hgaiYiI6Njgb09Poe6eHvj7u14wP74yCpueyxq3e/2hFLXmSLKcjvC0RNgq/oPmXrWQiIiI6CR10rY0Lli4EDfdeAuqa2owODCglo704IP3wxSoR0yoh1oyWnunDWX1fWrfQVLU3Vh44Wkwv7cOReVjj5+IiIjoaODPCE6xtLR0ZGXNdCzYsfzjn69ifrofZib6qCWjNZkH8c6XZrVviCzrYDz9v8iK3YD8Fx5Gh8xT00RERHTsMDQeB5euNWLpTH+1b7SmtkH89K81ah8RERHR8cfQSEREREQu8UYYIiIiIpqWGBqJiIiIyCWGRiIiIiJyiaGRiIiIiFxiaCQiIiIilxgaiYiIiMglhkYiIiIicomhkYiIiIhcYmgkIiIiIpcYGomIiIjIJYbGY8grJBVJF/4bgcnfUEuIiIiITgwMjceIEhhj1z4FvW8YwhfczeBIREREJxRtaFj4g+rfbhvo74enp6fad+pKS0vHypVrMDN7FrKysh1dWnoGWltb0d3dpdY6GBg7qzfAKzgFlvIPYMz6Nqy9zehr26/WIiIiInKPRqOBwWBQ+1zr6OhAX1/fpPLbcO5jaJykBQsX4vbb7oSPry+Cg4NhNJkcXcKMBJx22unYs3s32tvbRwTGhk2PwjjzWjR+/Rv0Nu9ExIK7TrngKMtAaPZaLJqVCpO9DrXtg+qQ6WG6Tx+d/LShuVixOB361nK09UtqKRHRSMcjNEqZ2TliNzkxnRYL/AMC1L5T0x133oXenl68+eYbaskQZSVeftnlSExKxA03XIeIRT92JJGGLb8U/9iRfuUmVH50E3oadjhOUQenX4Kydy5XX33ykzWRmLVyFkwaM/Zv2ITqgem1U5zu03eklFDsY0pCYmIUgv28oLH3obOpEiX7ytFhPTivSj1PYyJSkmIQIupJtl50NleJemUj6rlDGVfknHXINI79OrltN9Zvq4BVcm+8suyPpGVLEeclw7L/M3xd1S/K/JC0dAlivTToKvsc28p7HXX9k1dgQYKv42/l82cb6EVXaw1Ki0th7ncUHxVBqasxJ85L7TtI7ivHtvV7YBlnXmVZh8jZq5HhU4HNG/eh26meDE+YUuYiMy4AOrRi76dbUGcbbzwy/BKXYcEMoPyrL1De496yJaITh06rRWxsrNrnWlVVFcxm86Ty23Du4zWNk+Tr44POTovad5Ddbscrf/sb9u0baj2s3/QY6jf/3LHDOlR78bunVGBUeEREwagVy8lci/qjuNOerOk+fUdKb8rCnNxEBAw2oKxwJ4pKG2E3pmHO/DQESAePHzWBqaJeMgJtot7uAhSVt0BjSkPu7BnwVlLgJMhdldi1YxvyD3T70GKVYRNHsDa1zkQol4AEGEOhdSThMBg9O2AZyoojyANNKBbvV5CXj73lTZBNKcjJSYTPJOfDHZ3V+U7zKbrdleiyyRhs78AYk3iQPhKRwVpY6qpHBkZdEGbMWYKZMR7o6uhRSw9DH4PkeH9YG4pR1a2WEREdIYbGo0AJiP/4x98RHBxyoAs4xVtmFbLsgfDIEEgiIrTU1rndsnSsTPfpO1Ky7IWoGdHw6NiPHduLUNNYj4aqIuRvL0WPbzziI/RqTSAgIhI+IjAWbd+L6gZRr3I38oqboTFEI3yo4W7irN1oa25CS0uzo2uFLwK0g2isa4A8iWVtF0fM3YEmhIhvMc/QUHi3tKJzrG80uQdmx/s2oLFqL/L3NUMKCIPJWx1+FFh72g7MZ7PZjqC4aHh17kferloMHmZefaKjEYh2NNSODIaBSTlI8OtG+Y6NKKg7bOwU61lCSHKSWC4WVJQ0wHaSbcdEdPyc1KHxsiuuQkJCoto3mjJMqXM0KKeHPDw8D3Q63cEdsjtm3fgy3v3LDUh3ag2RF96ON9/9A66KcyqTA5D9zbvw6xf+gTfffg9vv/43/OGxm7EmVqfWGKKMxpBxPu745R/x8uv/wpuv/BGP3ngmErxGtrbI6dfhr+++iptXL8H3fvECXnvjTfztj4/heyuihlp0joR3NCICxQ7M2oT6RqtaCEghWVh+2jqsWZw8ovVHCs4cKl+WBn+1XDl95xeZjlmLVmL56jOwctVKzM9NQ6iP1jF8mHfCYqw9/SwsTApDWNpCLFl9OlauWI5ZSUZ4YJz5GGf6ZNkbCQvFdJy2EsmGg68NyVjreI85MQfXrawJQHTGAixasRar1q7D6tVrsHhBLuJDvBzbxDDlT29TCrIXrsCKNWc65mNuViKCD7nUZFLzMS4/+PpJ6G1rRZ9TkLB3tqJ9UAN/Pz+1RLCLcdsGMODUQG4bsMIu3nPim4GMlv1bsGNPPYaXqixrERoVBn1/HepaJzxCB61VBLO+YISIhRZq9ENrY5soVAcehn1gUMyHJP47+mQpADPmzEY0qrBzewk6RaAbj3KKPTLSAHtbNeoOaeW2msuQ9+UWlJvduMbWdwaSIr3RVysODA6fL4mIJuSkDo0d7R245trvjhkclTJlmFLnROa95Abc9+1cWLe+iqd+8Qgef/YtlBhW49b7r0aK095dE3E+7nvoGmTbtuONZ3+LZ/9VAK+lN+Nnt6+GYVQK0GDW2WdA2vwKnnnmRWwwx+KsH96JC6LUwZPkFx2FABFWBhqr0eoURuytDWhR9oW+YSL8DZUpAkJD4SHq9zU2oFMNOR7h2ZidGQ+jrxaDPV3oGRQh0piA7HlZMGpGhw9teBpSw/QY7BNv4OELY8JspEeNfRHweNPnLmUxhqTORVp0CPQDZtTXVKG+pQ8av3Ak5sxBvFMLnd40C3NyEhHqJ6at24Ieqw4BESnImZeBIKfTxMMmMh/jG4RVpDZPH7+RBwB6P3iLYwyb7WBQttRUwqKLQkpKOHw9PeDlF4HUpFCxrirQ4MbZUWeSWKaDXW0wd/UfbFHURyLCqEN3bTU6JhnfNFIPmpoHERKejBBDB1palDJ14AiSOGjTQavVw0Osi2QxH7aWCrhosJsSgSmzMcMgoau9FzpvD7V0HIFKK64NzbWjWwe7GythPrh6xiXLekSkJsAfbSgva4H9kPEQER2Jkzo0/ue9t7Ft29ZRwXE4MCrDlDrHgrLjVAx01sDWZ3b8PRUikxLg07MVrz37Nj7/ajM2fvomnnzoJ/jVy9tgcWp1mXHGmUgb/BLPPfgc3v70c3z85u/xwIvb4bXgHKw2qpUO8EPr50/imX99is8/fQfPPfYa9mqTkJvrrw6fOFk2ICrCT/zbi8balpGnI+UWx85fkgIQGjaUGpX6oUaldU4Eg8aDy0svgkJDVTn2bvscmzZ/iS1frMd+swhAHiJwBquVnHjZG5C3YQO2fPkZtpVaIEOLEKMR0iFB+bDT5zYfGAI9xTi6UFPwNYqKdmNPwUbs2LkPZWUN6FUTjbJjD4+LgCd6UbP9M3y1+Sts2fA5dtX3Q/KOQXTYyFZihbvzcXgdaBSJTxuWisyEUDUMhiMpNxnBUi9aWzrVemIae8pRUFAFTfRsR6vpkkWzYBosRUF+9YhWyslSTsMGayyorx19XfBEWJqbgIgYBHeIAw+rBM0Y32iSZxxmrzkDq9achmWLchBqVeajBgPHIFDJve1obmkXRxPJyF64FFnho2+OUTgOOCIj4DXYgPqmI7hj3z8BCUY95H4dIuetxQpHS3w6wg5piScimoyTOjQq3nn7rRHB0TkwKsOOFb3eAx56PUr//S30t5erpUeuvrQCPT7zcdkPL8c5a5YhNyMOhrZdWL+hAA32gzvFqPAwoKEaNRof+Hh7OzpbVQ3apHBEjmpBFKGnyinYmsWOzNIPH/8xUpmbNMHRCFP2l711qBP7UGfKvru1oQkDYs/pHxoGD2UP6hcKo3LNWX8jGp3qd9eXoq7DioDYXOTOW4i5C+Yg2k8Zhw4enqPD1kBbs+OUoPIeXWYzlN2x5OWFQy8WONz0ua8fPT3KLR2+iJm9EFkZ6UiaEY8AEYprykvQdODRnT7w9lHWjU5kiXmYM1+Zj7lICNKK6dTCx2d0C6K783E4ymvbi3dgf6MdwclzHWFw8fxsxAR6QO6oRI3TfGuDUjF7Viw0LftRuGMbdu4pQYdXEmbNTYLfGC2hE6Gcho2IDBTbVTXqj6C1T5LE11d7HSrFtlNd1YgBtfxQsghiRds2Y7voCnaXwOKdjFnZUUPb2VFmqcrHzryt2LrxC+xt1SIsLRFBY72vxoQIESj7xWe0bZKTpYzWFB8rtq5BdLZUo3zX18jfVYEucSCStWAWQnVHf36J6OR20odGhXNwPB6BcVhwiAkhIUbHjTHrzjgL11xzrTpk8no2PoefvbgVPfGrcMkNd+DhXz6DF1/9Kx68MAV6p52TVicCSfLlePb1N/DacPf4+QiDVgxTKx0w8tysJG3Bry+/CD/8R5VaMjHKZIRERcBTpJbO2mp0KenlEPa2erQop98CwhEqkpCvCI++ol5/Y/2Bx5MoF/gHpizC/OxkREeEIiQoGEGBwfDzGH8zdr6OUCQmfP3lemwqqHaErmHuTJ87JMmGpv2FqO8ahNY7GOHRCUhIzkTW7KVYsjgDwdqD06K8hSR5wEdMvzIPShfgPRQBHWHoEO7MhzskuRNVBZ/jiw1fYMumL5Bf1Su+BPrFwUc1eg8sZ4+hFuyuYuzYWYIG5WaO2hLs2lGKfkMSZjjdMDMpgdGI8LWhpabuiFr7HMsQHagu3IGS5sPc6m7vg6WtFWZzG1rqxHzkV8AaloEk0+Tfe6IkuQ/1dW2Q9Qb4j9HYqAuNgUnXg/oaUWfSyyRIfLfoYWspQt7eSrR2dKCjpQK7t+9HhzYMsVFH8c4fIjolnBKhUTEcHI9XYBzmaHH08IQpLBQxMeM/X8muPKJHoxm5ghzn3mywOWU6SerAzjeexL0/+C4u/+aF+NaVN+LRT7qR++1rcHqQWkmwWW2QK/+Dx+69F/c6dffd9zDe2qdWOlq0EYgQSVC2t4sd5zjP/7A3O05RQwqEMSwARpO/CC99aHQ6NQ0YER3jB8neiYptn+DT//0HH3/4XxTUuRedJHkQvT096OkbHLljdjl9dsd9IcrHxfllw5cc2JwCndxbh91ffYz1IpRt3bYNu/bsGwqRvvFIiDqYFpSXyHIr9nwyNA/O3ebSg78mNJZx58NNynTb+rtg6fVHdKw/7OZSlDouKh3mC19fEdjbO0aEOnt3OzptGsfjpiZLmW9jVCS8rE2oa5xo5J0adksHOmU9/PyOTohSLj8ICItDZNDIFmO7XXwGlYO0Q84UK/XDYkKh7apF3cErBCZB4xh3f6dl5J3/fR3oUq5l9WRoJKIjc8qERoUSFo9nYJyIusZmIDAOCU7BLy4+Dh72JjTUqQVC7Iqr8b3LFsEo9sZKS1evuRJfbShEhyYUYSa1klDb0KicFUX7zjwUFOQ7uvzKDmi0dsfNEUeTXn32odxei4Y+tfAQyj6uVcyzDRICjckIUp5QNNCIJufMqNFD69hi+9Hd2ee4yF/WGBAYMPq09ES4nr4+9HQrC8kDhmB/x3WEsmRAcJBO7PD70ds9FH6Uu6zD03KQmZ0Ew2AnLOZmNNaUori20xHUlIOFIT0i9ClB0x/BRg/xOuWOZB2CYtORkpqCMJ+DIfRoUcJb4IxkmDQ9qC6qPKTFrxe9vSJkBAaNeCajxi8QAVpZDBt9Tln2jkLG/KWYkxY+ooV7FG04IsI90V8/uZuNpoLGz99xir2372jdCSMjIDoD6cmRB06BK+vYL8AfGlmE/UNvJPKKQlSgcqb9YGvv5HShu1uGV1AwvJzXm28IDHoZ3T18YCMRHZlTKjSeSFrWf4SCvkxcdv8tuGD1Spx28e24+4J4tK7/AJucQl63XwpOu+RG/PCac7Bi8UIsXXkubvrOSgR1F2N/tVpJKPvfByjyPx0//Ml3cNbK5Vhx5qW4+9En8ODNK2A8ig0+yqnOiEij2NCU05GHf0advbkBzTaRK0yhCBHVlFPTIy4vtLfC3C5ipdaE9GWrMH/BUixZMReh2snPgDvTpwS+1upq9MgSAhIXYdHCxViwfD5ifSTYOytQcyDYDsCmC0FERDKyFsxFeloG0jLnIndGkHifPpjNQ81IkjSIhsp6EX31CMteiaWLlmLRylXITY1HdKgeg8fgrl54xSIpxgcDDUWo6BwZ8iSpD3XlDRg0JCEnJw2R4REIj0nDrDlJ8OmrRlX96KsHfSMSEBkYgMCYeIQd5uy1R0QMTNoeNNRM9majSZB8ECS2KaMxDGHRKcjOnQHf/jrUNo8Ot8ojrJKWrsOapakHHvM0UZJkFQcLDRgwJCNXHEBEhEUgKnE2Zsb5o6+uEi2HjNY3KhoBchvqa8c5ohL0fiaEhoY7OqO/cvDhCX9ThKPfZBg6GJGkftSW1Yj3TcHsnNSD621uEnx7lfV2Ej6tnoiOKf729CTNm78AGo0We/fuUUsmJicnF8q+46uvvhwqOITUW4pthV2IyFmONaetwrwET9SsfwFPPr8BLU4/HdZTXIhqzxmYu2IN1p62FsvmpiLQkoc3fvssPnB62JvcWYSthf2IW7AGp52+Bkuzo2Av/RB/fOIv2O4cGkxzcMFp8aj79E1sbZyCnbp3HFJTjfC0NaG0sBY9h3u8itwN+MUj3NFy2I+G4j1o7TtYX2lJ7Wy1QPINgK+3Nzz1Nliqd6OqX4QBgw49zaVoUOdFHxSD2BAvWDtqUNU6/s7Y3emz97WgVWQ+D19f+Pj6wFPuh6WxBIW7ytGl3nAkSTK6W1vRr/OFryEQQUHBCPD1ELPSjvqSnShp6DsQlGzdTWjtkuAlxucrxqcX89vZVIGinfvQ5vQzfW7PxwQoz0g0peUi3q8TJQVF6Bjjp+hsXY1o6dLBP1QEHhFqTEFesLWNnr5hNrsHQsICIHVUo7zaPGb4Vh4uHp2eAaO1EntK247g4emeCI6LhX/PocvEB6EzouDRXoG69qEjK88QEcSNQQiJiEKYCFHGIG+gqw77dhahZWCMUKgxIjYlDJ4tFShW7lya5DTauprR1qeHISwSkZERCPaV0Fm3B3v2KzfsHBynElLjs5Lgby7GnrrOcYO0IWEhctNiHPMQKkKiJHmKcUc4+k3adlSod1nZxXbVbJHgGxqFqOih9WZtK8feXWK9DU52eRPRdMTfnj6BLFi4EDfdeAuqa2owODDefZtj03t4IEZ8of/+maewZfNmtfTk5Ju4DIsS/dFfsw0bdzcdu9YlN0336aNjSzakYdn8BHQXfYy86qN/zaUUlIElcyPRlvcJ9hzaBElEdBjH47enGRqPQFpaOrKyZjpW3ERYbTYUKr/7W7RXLTk5Kc8+TFm2GLHe/aj++lPsd74+cRqY7tNHx542aj5WZnijYtPnKO06ugcQytlvU9YazDI2YMf6QpgP1wpPRHQIhkYiouPIkLYKcyPNKPg0Dy0McUQ0jR2P0MgbYYiIVB1Fn+GTT/MZGImIxsDQSEREREQuMTQSERERkUsMjURERETkEkMjEREREbnE0EhERERELjE0EhEREZFLDI1ERERE5BJDIxERERG5xNBIRERERC4xNBIRERGRSwyNREREROQSQyMRERERuSRlZufI6t9u67RY4B8QoPbR0ZKeniG6dLVviCzL2Lp1C2pra9USIiIiOtXotFrExsaqfa5VVVXBbDZPKr8N5z5taFj4g2qZ2wb6++Hp6an20dEwb9583Hbb7fDy9kGoKRRhYeGOLi4uHuvWnYVdhbvQ3t6u1iYiIqJTiUajgcFgUPtc6+joQF9f36Ty23DuY2icpi6++BJUVlXi5ZdewvbtXx/olFZGU2gozj/vAhTsLIDF0qG+YmJkeTZ++I/nca3ha7yb16qWEhER0YngeIRGXtN4hHQ6Pe69/6dISxt5GvlI+fj6oLurS+07SDk9/fprr6O0pASPPfpzvPzyq6O655//M6699rvQ6/Xqq4iIiIiODFsaj5DdboeXlzfOPe9C1NXWoKWlRR1yZJYtXwGLxYLS0lK1xJmMwt2F2L9vH3bs2I6vv/56RLdv/36sXLFSHIVosW9fkfqaQ0Vg0TdXIbTsf2xpJCIiOsGwpfEE9dGH72P955/iiquumfIWx/EoYbWissIRKg/tCnftcoTJQ2+imQxZlhCc/U3c+cTzePn1t/DPF/+In9/6DaT4jrx/Spb1iF19E37x/Kt4441/4vnHrsPCb/wYb7/7W3wrdML3WhEREdE0w9A4RY5HcDwcm80GrU6n9k2eJvpC3Pvgt5E1sA1vPPtbPP92HnTzr8fDd56JYPlgGNQlX457bj0TYU2f4cVnnsFrBQac+410SOpwIiIiOrExNE6h6RYcp8KMtacjZXAjnnvwD3j70/X4+K1n8eBL2+E55wysNKqVhNhFCxA1sAV/eeiPeFfU++gfj+OPGzoZGomIiE4SDI10WFHhoUBDFcr71QKhs6IGZoQhIkotEIwhQUB7PWr61AKhvLoOPDFNRER0cmBonEKnnb4OK1auxisvvYCior1q6YlNq9M6/h0R/ux22KEVw9R+QRqrSVG2MzQSERGdJBgap8jJGBgVNqvN8e+ITKjRiA3HCuug2i9YuroBX384P2c+JCiIGxgREdFJgvv0KXCyBkZFbUMjEBaLBKc79P3iYhCEBtTXqAVC5Z796PZfiku/swhxIUEIT1+Ha05PYEsjERHRSYKh8QgpD/eev2DhCRsYPSNzsGL58pFdbiy81Tujyz76H4r0S3D9T67DN1avwNrzr8cDV81G79cfYH2bo4pDz8YX8OxHjUi46D78/sVX8McHzkBj3m51KBEREZ3opMzsnAk3Bg3/cDUdPT/4we3oH+jHv956Sy2ZmAsuvBCeHp74zW9+pZaMNPQzgg9hrf/oixHlsr/hulv+hnpJEvWA4KyLcO13zkROXAj0PS0o3/42/vyn91DcM/K1yjMdfYJjEBOqg7myDE2L7sN7t5nw0rXfx+tNvI+aiIhoqui0WsTGxqp9rlVVVcFsNk8qvw3nPobGaWrevPm4+eZbUFFZBbtt6LpCd2nEhhQfF4unn34K27ZtVUuPvZALn8Bfv92L3/3fffioj6GRiIhoqjA00gjp6RmT/lWXvXv3im6P2nds6MIyMC9B2S4k6APTcOblFyGl5o+48e630TTm7dVEREQ0GQyNdEJTWhZfvCYdsizD2t2K6sKP8ZdnXwZ/2pqIiGhqMTQSERERkUvHIzTy7mkiIiIicomhkYiIiIhcYmgkIiIiIpcYGomIiIjIJYZGIiIiInKJoZGIiIiIXGJoJCIiIiKXGBqJiIiIyCWGRiIiIiJyiaGRiIiIiFxiaCQiIiIilxgaiYiIiMglKTM7R1b/dtvwD1fT0ZWeniG6dLVviCzL2Lp1C2pra9USIiIiOtXotFrExsaqfa5VVVXBbDZPKr8N5z5taFj4g2qZ2wb6++Hp6an20dEwb9583Hbb7fDy9kGoKRRhYeGOLi4uHuvWnYVdhbvQ3t6u1iYiIqJTiUajgcFgUPtc6+joQF9f36Ty23DuY0vjNPWDH9yO/oF+/Outt9SSIZIk4VsXX4z0tHT87NFHUFNdpQ6ZmFk3voxH5n2JH139LPaKcSrkhbfjrXtT8PbN1+GlyqGy9O++gMfPC3P8rbD1tqGxshAfv/xHvJHfBrt4bco1z+PJCyPVGmI8fRvw6EU/xyZ1vERERDS1jkdLI69pPEI6nR733v9TpIkQN5V8fH3Q3dWl9h2knJ5+/bXXUVpSgsce/TlefvnVUd3zz/8Z1177Xej1evVVR0bu2o6XH3kYPxPd48++gbzBbFzx0CO4IknnGF7z8e8dw5TuufVNjjIiIiI6uTA0HiGrdRBbt2zGFVddM+XBcTyybMerf38Vv3/6aTz33LOjun++9hpycnKxbt3Z6iuOkLUFRZs2YdPmzdj46dt45sGn8EVnHM4+f55jcE9VvmOY0hXW9zrKiIiI6OTC0DgFPvrwfaz//NNjGhztdjsqKitQWlo6qivctQs7dmwfdRPNlOnbhX3VgE94FILkiV3dIMteSD7zJjzyzEv4xxv/whuv/Bm/vutSzAlRK6iU0+LvvvJ9rF16A375wut48/VX8NzD12NJmFatMUR5e0PG+bjjl3/Ey6//C2++8kc8euOZSPCa8FUXREREdBgMjVPkeATHw7HZbNDqhk4fTzkpCmFGYNDcgg61yF3eS2/FIzctgjbvLfzpt0/iqZc/REPcN3HPjy5A+KEBVDMT56zzxta//R7P/mMr+pO/gTvuugiRTvU0EefjvoeuQbZtO9549rd49l8F8Fp6M352+2oYJhhoiYiIaHwMjVNougXHKSPp4OXjAx9vb/iHJGLldTfhjHALNq/f4bgRZiIGtz+DGy77Lu7703v48uuvsW3DO3jmnV3Qp8/DbB+10jA/C9Y/+STe+ORzfPzm7/DYWyXQJc/DXKdreGeccSbSBr/Ecw8+h7c/Ver9Hg+8uB1eC87BahFsiYiIaGowNJJLkmEN7n/9Dbwmur+/+DvccWYAdr3yczy70aLWcJ8V4Vhxw+N4+V//xuvD47x5HiQpAAGHPjmgqxpVLerfQn1NLQbgj8AgtUCICg8DGqpRoxkKtUpnq6pBmxSOyCi1EhERER0xhsYpdNrp67Bi5Wq88tILKCraq5ae+OSurfjTvffi3nvvwd0/uA5XXXINfvrPneicYCujLGsx9//dj2sX6bHjLz/H/Y5xiu7vO2FX64xgt4mQ6cSu1BLv6fS2Wp0WUvLleFYNoI7u8fMRBq0YplYiIiKiI8bQOEVOtMBoUwKYRjNyAxD9YogYNtR7gNWM8vw8FBQUoLCkFuYBtXzCkjFvTjD6Nr2CX//7C+QV5Itx5mNXbbdzDpwQm9UGufI/eGw4gKrdffc9jLf2qZWIiIjoiDE0ToETsYWxobkZCIxGrL9aIETFxsDD3oLGerVgEgasVkf4HHmP87B+DIjAqfHQHdjwlNbH9NT4SYfG2oZGwAdo36mE2qEQml/ZAY3WDmVSiIiIaGowNB4h5eHe8xcsPOFOSTev/wyFAzNxxX034LzVK7D2oh/grgtmoHPLJ9gyqFaahMZ9xbDoZ+Gsq0/DkoULsUjpsqLg5biTuQqbv66Hx/yrcd/V52DVijW48IaHcfUsGbahl09Y2f8+QJH/6fjhT76Ds1Yux4ozL8Xdjz6BB29eAeMRzAcRERGNxNB4hJSHe//s4QemPDD2dPfA189P7Zs45bXKOMbV/B88/tCL2Kmbh4u/dyuuOy8D/Zv/iAd/+/mEr1V0Zt3xEh7/+14EnfY9/Oje+3DvfffjnutWQLl3RZJs2P3SI/jdx42IPP0a3HLz1VhtLMCLb5Vgsg/Hsdf/G4/c/yKK/Jbgspt+iO9fdToiat/FL+55HoX2yc8HERERjcTfnp6m5s2bj5tvvgUVlVWw2ybWDqfRahEfF4unn34K27ZtVUuJiIjoZHE8fnuaoXEaS0/PmPSvuuzdu1d0e9Q+IiIiOpkwNBIRERGRS8cjNPKaRiIiIiJyiaGRiIiIiFxiaCQiIiIilxgaiYiIiMglhkYiIiIicomhkYiIiIhcYmgkIiIiIpcYGomIiIjIJYZGIiIiInKJoZGIiIiIXGJoJCIiIiKXGBqJiIiIyCWGRiIiIiJyScrMzpHVv93WabHAPyBA7aOjJT09Q3Tpat8QWZaxdesW1NbWqiVERER0qtFptYiNjVX7XKuqqoLZbJ5UfhvOfdrQsPAH1TK3DfT3w9PTU+2jo2HevPm47bbb4eXtg1BTKMLCwh1dXFw81q07C7sKd6G9vV2tTURERKcSjUYDg8Gg9rnW0dGBvr6+SeW34dzHlsZp6gc/uB39A/3411tvqSVDJEnCty6+GOlp6fjZo4+gprpKHUJERESniuPR0sjQeIR0Oj3u+vF9ePP1f6CoaK9aeuTuufd+EQir8eGHH6olB0mSBpdfdhlm5eSoJSP19fVi8+bNeOmlv2JwcFAtJSIiopMFT0+fgOx2O7y8vHHueReirrYGLS0t6pAjs2z5CljESiotLVVLnMko3F2I/fv2YceO7fj6669HdPv278fKFSuh0Wixb1+R+hoiIiI6WfD09AnstNPXYcXK1XjlpRempMXxcC2N7li3bh1CQ0Pxi188ppaMJMt6xK25DjddugSJQVqYiz/Bn78KwY+vC8cr134frzdJjnrp330Bv1yRj98+N4DTr1mDRP9+NBd9gZef/hO+bLQ56ihkOQAzv/U9XHNWLmJD/KAb6EBDySa89uxz+KTKqtZyvx4RERGN73i0NPKRO1Pkow/fx/rPP8UVV12DtLSRdzwfDzabDVqdTu0bTZd8Oe659UyENX2GF595Bq8VGHDuN9IxFBUPoZmJc9Z5Y+vffo9n/7EV/cnfwB13XYRI+eDxhveSG3Dft3Nh3foqnvrFI3j82bdQYliNW++/GimTqEdERETTC0PjFJpuwfFwYhctQNTAFvzloT/i3U/X46N/PI4/bugcOzT6WbD+ySfxxief4+M3f4fH3ioRoXMe5jodrEQmJcCnZytee/ZtfP7VZmz89E08+dBP8KuXt8GiVSsJ7tYjIiKi6YWh8RRlDAkC2utR06cWCOXVdRizra+rGlVOl2rW19RiAP4IFKMYVl9agR6f+bjsh5fjnDXLkJsRB0PbLqzfUIAG+8Eo6m49IiIiml4YGqfQVF/XeDRJY+Uz2T52aLTbMOJqQ7td/J8YgdM4ejY+h5+9uBU98atwyQ134OFfPoMXX/0rHrwwBXqn087u1iMiIqLphaFxipxIgVFh6eoGfP3hfDlsSFDQpDcISerAzjeexL0/+C4u/+aF+NaVN+LRT7qR++1rcLpTi6S79YiIiGh6YWicAidaYFRU7tmPbv+luPQ7ixAXEoTw9HW45vSEsVsa3RC74mp877JFMMqyCIY29Jor8dWGQnRoQhFmUisJ7tYjIiKi6YWh8QgpD/eev2DhCRUYFT0bX8CzHzUi4aL78PsXX8EfHzgDjXm71aET1+2XgtMuuRE/vOYcrFi8EEtXnoubvrMSQd3F2F+tVhLcrUdERETTC0PjEbJaB/Gzhx+Y8sDY090DXz8/tW/ilNcq4xiPJDXj89/ejKuuuhG33X4Lrr36B3ip1Dr23dNuaPnPb/H4WyUIWH4lvn/Xfbjz5sswR5OHFx95Bhv7Do7V3XpEREQ0vfDh3tPUvHnzcfPNt6Cisgp228GHaLtDo9UiPi4WTz/9FLZt26qWuhZy4RP467d78bv/uw8fMcARERFNW/ztaRohPT1DdJN73uPevXtFt0ftG5suLAPzEpT1KEEfmIYzL78IKTV/xI13v42mMW+vJiIioumAoZGOKaVl8cVr0iHLMqzdragu/Bh/efZl5LWqFYiIiGhaYmgkIiIiIpf429NERERENC0xNBIRERGRSwyNREREROQSQyMRERERucTQSEREREQuMTQSERERkUsMjURERETkEkMjEREREbnE0EhERERELjE0EhEREZFLDI1ERERE5BJ/e/oEFB4VjYbaGqxe9w21ZKS8LZtgbmtR+4iIiOhkw9+eJpeycucgY2au4++wiMgxO72n3jGciOhkJWl9EBzkD6084XaPU46sDRDLyofLio4YQ+MJRAmM2blz1T4iolOPLOsRnDAbC1esQG6ykTsxd3iGIWXucixZkosYf51aSDRxPD19gnAOjI31dfj0/Xdx6TXXO/oP9cn776Cpvl7tG5v/srcxO3Ub8p9/GB2S5CiTvc/HzKt/DO/C67FtQx7s0CH8vK+QHj80/FByza/x5ZuvwipeL8sSPKKvROLi8xBkNEHT34DOin+ibOMb6BoY+/WH4+743JkPWS13h37mH7FkZY7ad5As29D0/kLsLRHz6n0pcq69FfLnZ2JnYbtaQ6kTh4QrXkNM+0PY+N57jvdVpm9ObsTQcFs/BrvKYN77Akq3fY4BMY/OdOGXInHpRQg2hkIz0ABL+d9R9uVb6J7E8jueZHjClDIXmXEBYgtqxd5Pt6DONnIelAYPT2MiUpJiEOLnBcnWi87mKpTsK0OH9WBdpZ5HcAKSk2NFPU9oxDLsai7H/n2V6HQaZ1DqasyJ81L7DpL7yrFt/R5YHNsoEDlnHTKNYy9PuW031m+rcGzPjn4X8zHR8Q2TNSHIXDYfoV2F+OrrKgxMYPscFpC8EvOimrHjs0KYJ/H6sSjzExCVglA0oqy2fUKfm2NFCYymjMWYGaVBW0URiivq0W1VB6qO1no7nFHbqbUPHU3lKNlfhS77xJajLPsjadlSxHnJsOz/DF9X9YsyPyQtXYJYLw26yj7HtvJeR13/5BVYkODr+FuW7bAN9KKrtQalxaUw9zuKHRzTFxCF+Ix0xPr2oXz7JpR12NShdKLi6Wka07FoYZRlLQwLvoNgeRMqto0MWnLrO9jz7p3YdaD7E1oHZdh6WjD8taMxfRczz/8eAgc2ovLTR1FcsAv65B9h1hkXQq98Y03QZMd3uPlwlywXofo/zvN7JwrfuwvVtWqFnm2wtEsIiJwDyXla9HPgHyg+XHVbRi6//s0oVcbxwc9RUdoBw7xfIGfFImicXiv7XoT083+AEHkLKj97FCX5BdAl341Zq047oU4pybogzJizBDNjPNDV0aOWjqYJTBVhOhmBtgaU7S5AUXmLWOdpyJ09A95O86vxSxRlqQi2NaJi9y7sqxD1QjPFa+Ph5VSvszof+TvEwcNwt7sSXTYZg+0dGNq9HiR3VWKXc90d+9BiFdtzf/+B7dnd+VC4M75hyiQbkrIQoWtH6Z7JBcajRwv/yETERxqm7Y5BZ0pHerQnOoq3oaC4bnRgPErrzRWNv9hO5yjbaQPK94jttLINHhFZmD0rBh6T/Px2d3chQBxAOj7/PmEwenbAcujGLMgDTSgW01+Ql4+95U2QTSnIyUmEj9P7KpvZYGct9m/divIeX8RnJcFfxGuiiWJonOa04kiiqaHO0Xo43Ck3ukw5/4sxIyMM3QXPofHQL6b+CpjF0W1r+XpH1yZHwF/Xiea9nx8IR4GzvgW/7rex550nUbfvAzRtfxg7v9oBbfyFiPB3VJmQSY/vcPPhNgu6yg/O71C3AV29Q/MqSSVoq2uHNmo2/BwlQzTRM2HQVKO9qlktUdmaYFGWX+l/UPvFrSjMq4Z3xqUwearDBe/UcxCsUcLlLx3z27jjZyjctlME5fNhPIHOJgUm5SDBrxvlOzaioG78FRAQEQkfsYMt2r4X1Q31aKjcjbziZmgM0QgfajhxCIyJhb+1GruVeo1D9XbsaYAcFIdIp3rWnja0tDQ7umazHUFx0fDq3I+8XbUYPDSYWbvR1tx0oH4rfBGgHURjnRjv8Pbs5nw4uDG+YRr/ZKTHeqOrohA1h880dAhZ1iE0JgIevZXYX9k55gHh0VpvrgTFJsC/v0qE0CLUOLbnQuSVtEJnFNupt1ppguxmM7oDTQgRe2nP0FB4t7Sic6w9ttwDs2M+GtBYtRf5+5ohBYTBNMb7SrIF5ftqMOgTg5hxWlqJDoehcZrz8vZBaHjkiC4qLs7R+jhVZNkTIQuvgsH6OSq27RWhaPjLxIa2r25F/vqPMXxAL8veMGashL77Y9RXDqhlnrA2vI3KTW+j0+4ochhoLccgwuAZqBa4abLjG38+pp6lpgB2v5kIcgqwPlHZ0Pblo+MwN65LkozO2kLYtFHwdnqttyECIkmg2+mU0kBrJaxSBLyD1AI36XOfx4orvudoaZCls5F50xYsWbPMMUwOugHzbv4twjRimGYt0m/YgkWrF4pld7DVQZaWIe06Ub5qwYhyd1jNZcj7cgvKzYNqyTjsYry2AQw4rV/bgBV2iOlS31K5RMHbxwvo7EC702RY28XOFN7wcgqNw2QpADPmzEY0qrBzewk6R1wCIKNl/xYROuudtmctQqPCoO+vQ13rwTdxbz7cH59C+ezEZCTAt68CRaWWCQeTUcTo9cY05C5di5WrV2PRnHSYnM7QyzAhY9U6LM8wjWgRHy5fkhokpkks7+BMLD9tHU474wxkBEuQgrOw6oyzsfb0s7DmtDORFer0WlFfb4hDxrzlWLb6DKxcuQI5qdHwFduTM+U0siE+B/OWrcHKteuwWpm+uZkI81ErTIoBgYEa9Dc3ohNjL7ujsd5cUbZTa0cVyotrYHH+vursFN9XXvCcZGjUWsWBUF8wQoI9EWr0Q2tjm9IY7JJ9YFB8jsR6VPsPZTc3otUm1k8QLzGjiWNonOZ8/f0cp6bH6o6YpIXW0xc601VISA2EJe8PaHG6nkzZpw22bEZHs9ORt/dZCI/3Qc/ef8Gifi1JUj86dz+Nin17R+wIvcNToJer0WtWC9w04fG5mI+J00Dj4Quth8/BTqtz7DCH2avzRCBJQkDsUPKT5WAERUTDXpuHg1c5jsNuE1/qekhOnz5JozQnKpHJieiRoXOsh4kYaKuC1T9a7K4EYxJ8+9shi38dp8mCY+BlEeFUOf9m24CWih54xK+Gwek9NDErEOxpRnPxVvHeE3vz7sZKmA85ZTgWS00lLLoopKSEw9fTA15+EUhNCoW9tQINB1rgxAJSlpFNLBcxHcqyGQo/IuiIbU8zxqQFpszGDDEzXe290Hl7qKVDlHkZ7GqDuav/4Halj0SEUYfu2mp0OO1m3ZmPiYxP4RmdKaZtEHV7i0cNmxQpBLHxOrQW78be4joM+MUja5bT6X25GfX1fdCHR8PotK1pTVEI1fWgsbZtaP12VWNPQR525uejplMs285KFObvEP07sKsgH1Ud6gsV3vGYJcJpsNyEij07UVTeDF1ENuZkR424bEQbmoGcZCPsTcVi3F9j154ydHhEIXN2Kvyd6k2I5AUP8THp6+tTC0Y7GuvNFeVA0FK7H2UNIw8EvA0GsUx60DvJFmWN1IOm5kGEhCcjxNCBFnEwOtY2L6YAOp1OfEfp4eEXjmTxObK1VGDchla5TyxDsT16Op3qIHITQ+MpTPI+GzNv+BzLLvsu/LAddXll6pDxeWeejSDNPjQUFqklY5O91mJGbjasZW+hoUstPAKHG99k5uNwJGkuUq8T41PGqXZLL7ocIyJIz1a0t2tgiJozFCY1cxAQKsJQ7eYRO47jQuwwekQg8/FTAsIMeNTlwRKUCH8xWd5B0ZDMZegW1SRpQASOTbD5LoYpfOilyqwEJi2BvucLNNc4NZtMMbmnHAUFVdBEz8aiFWuxZNEsmAZLUZBfjb4xlp+si0bO6jOxLDvisI0tcm87mltEbA9JRvbCpcgKH31zjDOf6GgEayyor7WoJUdmvPHJ2nARkE2wNxahpGUo1YRkrMWapSnwm2yI0g+gsaAQVY31aKwuQn5JC6SAcBjVLKAsxraaOvRqTQgPHbrGQWkVM4aboO2uQ12nowjSgAUtTQ1obGyERWmgG+xEsxhnkyhTOkv/wfXhHx0Hg+x8WcEe5Bc3i5AYB+dF7R0QAJ2tCeVFlSL4NKO5oQJ7d2xF4f4mDE7246HVOOKcLA66ptpUbweyLhxJ8UGwNlWibvyM65KluQmIiEFwR4PjQFgzxh5b8ozD7DVnYNWa07BsUQ5CrcrnqOYw18vaxDJUtg83mi2JDsHQOM0pd0H//YU/TKhzdef0MLlvI0reuhl5n6/HoCYbxqTDnweV5RkIT8sE6t6HOKgel6xJRdw37oVJ3oDiz9+b0F2IY3E1vonOhyuyvAeV/xbjU8apdvmf/e/AqSyFJJWio7YNuojZcLQ1RuTAoK1GR800eKh6VwV6ByMdp7V9Q+LR3bwefX3x8BET6mOIQl9byYFgayv/FK2DJpGxZjn6gTkIiQ/GQNknI04JTzVtUCpmz4qFpmU/Cndsw849JejwSsKsuUnwk8Z448Ea7Nn8JbbtbTjsTQqWqnzszNuKrRu/wN5WLcLSEhE0TihT7kiNiAwEzNWon/T1rweNNz7l1GdIahrCpFYUF9Ud8efhAGsnupzOwlp7esQ2qseIBqROMS2dWhijI6FzHNyEIdSkg6W+Fj2TmA4fb29xwNSJHo3SsqV1dHJXJ/rhDW+nU899lk5YtaFIzExCZHg4ggx+0PWbRQg1o28qWlmn0JRvB5I/EmZnIwyNKCqqnfT6lpRTEe11qGxoQnVVI4YuBhpNHhQhfttmbBddwe4SWLyTMSs7atI34BAdDkPjNHXeHD2+t9ZzSrpx2dvEPmUL2gueRV2rJ0LmXjbijrtRIi5AeHA/Wne/N/rmApUsRSPi7N8gIaQc5e/eh+aeI9tBuDW+ic6HS13oqdkiAuDWg53zKXpVe81O2A2zEOgndqZR2fDozYd5WvwQTwm62w3wMoTCLzgAvS3r0dUeA9/QEPiIie1uLVHrCeopau+EVfBVllnEShh929FSvEXstI5s3Y1Hlj0QmZQAn65i7NhZgoaWZjTXlmDXjlL0G5IwI2L0w+mVSRkUYaXXzUYmSe5DfV0bZL0B/uM1NgaKbcvXhpaauqm5i3nc8fnBaPTGYFMVWuABvYfe0WmP9Nt31CauFEgjL3uQelBbZ4akTJv4KtCFRsKoaUdDndLWPHGSRozfkIrFjpYttVuQKCKjZsSpU2vTbuwsbsBgQDQSM3IwZ8FyLF+1CjPjDCOeGjAhRysETeF2IIslEZkzF4l+XSjdnoemI3hcljIpEjpQXbgDJc1OFzsfyt4HS1srzOY2tNSJz1F+BaxhGUgyjffejhETTQpD4zQVGaRBUtjoLjPKjtQIjDlsvM4VSSpDzfaNsAddiJjEMe4uEBytJZmnw7P/C9QXj93MKMshMK15Cikx7ah+7weoOtwXnRsmOj535mMqKdc1WuRkBEQHISA8Cfa67XDr5JZWJz54g45TRMOU50AqH8cR3+WO7/aR9dwhSfXoaeuFd9Ba+IZUo7u5Gz3mTviFrBBBUgxrOXi+7MApasMymIzKc9+WwrPnCzQdxVPTgC98fSX0t3eM2Enbu9vRadPA12e4yUpMgzIZymnJEYFh6CL/4RLlpouAsDjxmRl5gGS320QdpTVMLXCijM4YFQkvaxPqGl3ctOMGd8bnETkbK1aedqCbGTnymssJG7XjHyo4NFr119agDYEIi/CHMSwEGnMtGiZ5ylS2y5C7ypGvtmwNdzu+3o5Kp2sfJWkQ5opC5G9ejw2ffIDPPt2AglorjMlpCD/Mcexh2aywiZnT6afuF6+mcjtQDoZCM+cjPXgQlXnbUNF16Jo4NuyWDnSKz4Sf33h34Oih0ymLc7y2S6LxMTSeQAK8e7AkaR8WJJSKL+Wp/UIa3PdX1Hf4I2zut8Y+raFbjfDkQPQXvwvzGK09yimewOW/Q3qqjIb3b0ZZzZFdGzTZ8bmcj6nUuwUd7ToRGL8pOi0sNVtHtUYeSrmmzC8qE1pbLXrVa8oUvR31gF88fJ32hx4h8dDJDegd484a2XAu0r71CmatXDPmcyt72qvhFbIEPh4V6Bbv091aBe/QpfD2rkR3m1pJNXSKOgYhiatgjI3EQPknIgyrA4+KXvT2Ap6BQYc8kzEQAVpZDBs6R6hs4709It34GxDotFh14nW+Yhx9B24wkEVwz0B6cuSBda5cZ+oX4A+N3IOesW5E0IYjQqSX/vpqtE5FPj7s+LpQs3MLtn8tApZTV9x8hGFV5w8/p+1FJ8K2DgPoP/QUq7Uedc1WGCKyEW3UoKW+ftwzBY7EeZh136OsGxE4Bs1DLVtK19Y9KNaVfcTBjU9YClJmmBzrQ3krm7ULzY2t4iDBG4fcnzQBXY516WMImrpnl7q5HcjeUciYvxRz0sLH/LwpB9XBKfORJQ7o6wq2osSdu8GOEo2f2C6Uz07fOOfa9QYYRHDv6Z6Ci83plMPQeIJQdqAzo6qh19rg79WLmKBD9vxHSEIhqvN2AGH/h7iY0d/q+tRzYdTXo6lw05jByGfmE8jKSUD//tfQiiyEJKw40AX4T3wvMdnxuZoP9wTAL2HliPcMSVgOP++ROwtJKoe5tg2e8eci2KsK7eNdz6gNRcAMMb7EsxG17LfIzolB755/wLnhtLfoPbTJCzHj3DsRmXoGQnN/jKx52RgseRvqfRMj+KZegvCIFARmXwLjGKdf+0RIlMPT4d9WJna1yqNIKmEVocG/s3zozmln6ilqv5QbYAxuR8v+yd/Mo/czITQ03NEZ/ZUmJU/4myIc/SZlTyVIUh/qyhswaEhCTk4aIsMjEB6ThllzkuDTV42q+oMtIO3VVejUxSBzTgZilHpxmcjNCIfUUXnwRg7JisaaBgwYkpGbnYSIsAhEJc7GzDh/9NVVomWMfOEREQOTtgcNYp2NNa/uzIezw41PkmwixIuA1Tay6+o/wuBj9UREThZixfyGieWXk2QEOhvRekiDvPL+zbUiKPoHIhDNaGgYu4VJqdelPD3aEI3E6Eh1/k3w0x2czs6aSnToYpE5KwWRYWJ4VCKy5i5CTmYkPJ1mx6oPFOsgCxnJsQg1mmAKi0VqShQ8rR2wTPJuYknqQlNTDzTiYCpqnEf3TOV6c+YbkYDIwAAExsQjbIyGTp/YuZgZ74e++nK0wACjmOfhzuA1uc+S2yQfBJlCxXuFISw6Bdm5M+DbX4fa5tHbl5J3A+LiECC3o7HxyM4E0alJGxoW/qD6t9sG+vt5u/5RNm+GDsF+B79sZhhbEG442OTk792PanOwo+XKlQ93jU4dnnGXIsJYh4YdG9Cvfllam1vhlXUhwoPMqN9bCLtaLsvhiFp1G4L738C+zV+PeWF3YO6dYnye0JsWISz19BGdd/fbaKjvchyNaz29odHqx+5ku6gz9EXnzvgU7syHDTq331cb9g3EJmTBkDLyPUNT1kDX+Ce0tI2c9wFdFmKysqHv3YCKjQenYZgyfZHR6QhWxpG4CAb/XnQUPo49X34Bq/P5xYE9MNf0wjv+dIRnngmTyYC+sj+i6LN30T/GOrbaQkUITYPU+G9UFhZg8JBzlTKSEJa7ENqqf6KivEqMPwYhC1bCp/5tlO7fp+yB1ZpDYaFPTkX0zNnw7P0I5Z+vn/TNCoaEhchNi0GYCHihYictSZ4wKKFG9Ju07ahoGlpvtq5GtHTp4B8qAl5UNExBXrC1VaBo5z60Of+M4IAZze02+BojEREVhdAgD/Q3l2J3oQi/TsvF1tWMtj69eK9IREZGINhXQmfdHuzZr9xAcMiykb0QnZ4Bo7USe0rbxtye3Z0PhTvjG4uPaQbCvTtQW6W0wLn3mmGeSnDyb0FJsR3hqYmINvlD7qrGvp370X7ITzYq5B4ZfvGR8G4qRlGD+CyO8359HR1i5iMQGRODqEgRHMNEEG0tQ2ufWn9QHFSYxfoIE8OjoxEW7AvJUu1Yb2an9WbtaEWXxgBTZLRYv2I5mgLhMdiKisLdqO+dfNNuv6UPPlHxiDF5wNLUPOoa16O13mx2D4SEBYiDlWqUV5tHtdQGxWYgMkAHj4BQcTAXNaLzFQdCdR0TaXn0RHBcLPx7alDV6nwdgQ9CZ0TBo70Cde1D41O2g2hjEELE+yjzaAzyBrrqxHZQhJaBkaFR+YrzDp+JnJQQDFYXYG9j76QPDml60Gg0MBgMap9rHeLzrTyyajL5bTj38benpynlBpbh6xF9PfqxKLEYWs3IL9u6jiBYrVoRLjuxuy4G7T0HD789tDYsmFGMtm5/nPl4sFp6fMkeF2Hm9T9CyDhfVPb992LDBx+pfVPneL0v0XQhBaZjybwotOz4GEWtauEJSuMXj5lz0hCi6UFzRSF2l7XCxvBzWLLOiKRZmYgJ9sJAw27kFVaj140GB5rejsdvTzM0TlP//kGTCIme6B3UI8HYAm/94U8lWO1abC5NQvfA0BHEnNgKGP2HrgPMuifZ8e/xJiMEftGJyiVRY5K7i2ERG/RUO17vSzQdKC1MxszVyDE1Ysf6Qpgn2Yo8ncjaAETEz0CUdyt27Zpuv+E9/cjecZiZaUBnZRmqmzoZsk8SDI10wId31iEyaGKPxegb9MDeukiY/DsRHXywOWG6hEYiOvZkKQzZq2bDULMJX+53+XtFRHSCOB6hkTfCnES89APIjasYERiJ6NQmyY0o/PR9BkYiOmJsaSQiIiI6wbClkYiIiIimJYZGIiIiInKJoZGIiIiIXGJoJCIiIiKXGBqJiIiIyCWGRiIiIiJyiaGRiIiIiFxiaCQiIiIilxgaiYiIiMglhkYiIiIicok/I3gCio6KxgUXXDhqHdTUVOOdd95Gezt/Y5aIiOhkxp8RJJfiExJw3/0PYP6Chfjow49GdP7+Btx9973QaLhaiaY7SeuD4CB/aOUJH7efNGRtgFgGPqf0MiA6kTBdnECUwHj3Xfdg7969jv7qmuoR3RtvvIaoqCjExrh/5HE8ybIOkqT2EJ0iZFmP4ITZWLhiBXKTjaf2l7BnGFLmLseSJbmI8dephUQ0XWlDw8IfVP9220B/Pzw9PdU+OhaGA+O/3/4XNqz/HGvWrMVHH32oDh0iiQR2+umnY/PmTWhpaVZLR5PlVMz49n8xc+m1CLK+g4aGHlGWjBlXviPKrkcw/oeGOota2z2yvBCp17+JRK9NqK0e/72HyXIsYr71b+SuXAep4nW090w+PSo7Yf/MGxFl6kFHU6OyINQhE+O35C0svuB2xC/4rqOLmx2Hrm2foHeaJVsZnjClLMS82VlISgxGf2UNOuXR0+hOPaWBx9OYiPSZs5CeloaEuCiE+GrQYzaj336wrlLPIzgBaaJeWmoqEmKiEORtR1dbBwbGeG9XApJXYulMX7SXN6FvipavMo0BUSkifFjRbumb9HZwNCnbqiljMWbFeaOzshA791aj79B14ub6dcdUrzfvhMVYMdeE7tI6dB9m+fonr8DyuZmYkZiMhBmJiBPvaxShsLfDjD6bWkkx0Iam5l7ojHGYER8Oqa0W5n62OhK5QzmraDAY1D7XOjo60NfXN6n8Npz72NJ4AnAOjHk78sS+UAOr1aoOnbweczkCYpcPnRoKWoEQv71io1IHHnU22Ab7Ybf1wX7E+wgRGlOvRGxq5hFt0L17fo5d797p6PYVNail04usC8KMOUswM8YDXR09aulo7tbTBKZiTm4yAm0NKNtdgKLyFmhMacidPQPeynah0vgnIndOKoJFvfI9u7Cvsg0eEVmYPSsGHk71ji8t/CMTER9pmLZfbDpTOtKjPdFRvA0FxSJ4HfIxdne9uet4rjd5oAnFO8R85uVjrzg4kE0pyMlJhI/T+yq5c7CzFvu3bkV5jy/is5LgL2IzEU1PDI3TnLe3N+64/UfiXy9ER0bj7LPOxvXX3YBPPvlYrTF5tvrd6IlaiCAt4DljEbwq89At/j4WJKkW9W+fji/+8G1UtUyuFWWq2cxb0Vq+3tF1WI58h300BCblIMGvG+U7NqKgrlctHc3degERkfARgaJo+15UN9SjoXI38oqboTFEI9xXrSQExSbAv78Ku3YUocZRrxB5Ja2OFqJIb7USHZZyOUZoTAQ8eiuxv7IT8hgtde6uN3cd1/Um98Dc3ISWlgY0Vu1F/r5mSAFhMI3xvpJsQfm+Ggz6xCDGOD2+D4hoNIbGaS4mJtbR/Pz0U0+joKAAu3btwquvvoKPP/pIrTF5uv7taLXMRkiMEca4JJjL8kWhOlCQpRVIvW4LFq9dLr7UDx79K+Vp12/BwhVzxI5wYq0CctJjWH7LFqz8/lZHt+K6n8AwxjhkORABc36G3G9/iGU3bcHyG/6HeRfeg9AgvVpD1Im5D4vFuFbd+jlSYyRIMbdj2a3bhsZ7yyakJx29Fgt3pk+f+zxWXPE9R8uKLJ2NTFFvyZpljmFy0A2Yd/NvEaaZ2DRazWXI+3ILys2DasnY3K3naOa1DWDArvYLtgEr7BDTrE6aLEuwdlShvLgGFqd6A52dGIQXPCcbPsT49cY05C5di5WrV2PRnHSYvNRhggwTMlatw/IM08jtTy1fkhrk2P7k4EwsP20dTjvjDGQEi+0gOAurzjgba08/C2tOOxNZoU6vFfX1hjhkzFuOZavPwMqVK5CTGg3fQ9aDchrZEJ+DecvWYOXadVitTN/cTIT5qBUmxYDAQA36mxvRibGDkdvrzQ1Hbb0dQvJLwcK1Z2LeDP8R6+lQ9oFBsV2J9aP2H8pubkSrTSz3ID6Zg2i6Ymic5rTaoaY/5xteWtvapuR6LUmqRnOlBUEp30Nw2C60lMvQOLc02jegobgF+qSzEOJUrplxGowe9Wja87UYxwSno/YlFL73I8cp4BIx7vFoE+9A9uIFsFe8gKL3f4Q9n72MTu8zkfaNm+A3vGNqeVMMuw+7//sQ6lpEeGh5B3v/e6/ovxd73r8fNfVD1Y4Gd6ZvoK0KVv9osXsWjEnw7W+HLP51nBYMjoGXpQLdztd3uaG7sRJmN65McLeepaYSFl0UUlLC4evpAS+/CKQmhcLeWoEGtbFVkmRYavejrMEyonXMWxzM6OUe9E62UVYKQWy8Dq3Fu7G3uA4DfvHImuV0WlxuRn19H/Th0TA6fVNpTVEI1fWgsbZtaPvrqsaegjzszM9HTafYDjorUZi/Q/TvwK6CfFQ5X3LhHY9ZIpwGy02o2LMTReXN0EVkY052lJiXg4FHG5qBnGQj7E3FYtxfY9eeMnR4RCFzdir8nepNiOQFD3FQplxTNB5315s7jtp6cyLDD/FZCfDpKUNR2cj3EVMAnU4nvsP08PALR7LYrmwtFRi3AVXuE8sGvF6eaBpjaDyFSRodOks3QUo5G8GNG9HarxFl6kBB2em07/oQvfrFCEv2d5TJsgeMyUugbfsQDU2OogmReveiTT0F7LhZYRzeYcnQDWxE1ed/R3PZerTsewX73vkh9n71JazqNDrGVfIRmoo/RaeyI+otRkvxh2gWZc0lH6Oze4KBdgLcmT6IHWSPCGQ+fkrQmQGPujxYghLhLybLOygakrkM3WrV40XuKUdBQRU00bOxaMVaLFk0C6bBUhTkVx/2BhVZF46k+CBYmypRN/5qPDz9ABoLClHVWI/G6iLkl7RACgiHUc0Mytu31dShV2tCeOhQE7jSemYMN0HbXYe6TkcRpAELWpoa0NjYCIvSQDfYiWYxziZRpnSW/oPz4R8dB4PsfDp+D/KLm0VIjEO4Uyund0AAdLYmlBdVoqm5Gc0NFdi7YysK9zdhcLKblVZ8vsQ/sn2CRwpTaErWmxOfuGzE+/ehZk/xqNZTyTMOs9ecgVVrTsOyRTkItSrbVQ0Gxt2ubGLZKOv9GF0jQ0QTxtB4CnN8Odf9F9XFG1Gz8xMMKl/6h36fN/8LjS2eCEk7EzqlhUW7HMYEH1j2v4eew4SKI9XbVAyrx1LEr70eEalrYAhPhK77axEGt4262/R4cGv6uirQOxgpAiLgGxKP7ub16OuLh4/I3z6GKPS1lRzSMnPsaYNSMXtWLDQt+1G4Yxt27ilBh1cSZs1Ngp84aBiLLPkjYXY2wtCIoqJaWCc7D9ZOdDmdhbX29MAKPUY0NHVWo75TC2N05ND2pwlDqEkHS33tpLY/H29voKcTPeKASWnFVzq5qxP98Ia306nnPksnrNpQJGYmITI8HEEGP+j6zSKEmtE36kNyYpiy9SbmX6O0IHrHIjUxEIO1u1Fqdjr/rZIHRTjfthnbRVewuwQW72TMyo6aRjdOEdFEMTSeysROQ0Ihaj68E2WlYz8mR5KqUL9nJxB9JkJ9RchIOh0h2t1o3FOp1jg6bCW/QuFXX8BqOhPxqx5C7sV/x+Ib3kVmbuZhr5s6VtybvhJ0txvgZQiFX3AAelvWo6s9Br6hIfAJ9EN3a4la7/hQWo0jkxLg01WMHTtL0NDSjObaEuzaUYp+QxJmRBy8PnOYLMJVZM5cJPp1oXR7HpoGjiBAjVqNSoHYJke0dvegts4MKTAaESJM6kIjYdS0o6Fucm20kkaM35CKxY4WMLVbkCjmSgMx6ABr027sLG7AYEA0EjNyMGfBcixftQoz4wzQTHb7O47b7VSuN0kE9yxluS3LEt8FFlSXNcM2VgC198HS1gqzuQ0tdWK7yq+ANSwDSabx3luUT36yiOgYYGgkl/qL/gOznI3QtGQYkxZAU/shmrvUgUeJJJnRsf2n2PWPC/HVs8ux4flLsWt3F0IWfx/hR3QzwtRwZ/okqR49bb3wDloL35BqdDd3o8fcCb+QFSJIimEtU3B+8Ij4wtdXQn97x4hThvbudnTaNPD1GbmglZAZmjkf6cGDqMzbhoquIwxBowLCUMGhY+2vrUEbAhEW4Q9jWAg05lo0THLRyXYZclc58tUWsOFux9fbUel07aMkDcJcUYj8zeux4ZMP8NmnG1BQa4UxOQ3hk73kzmaFTcycTj86jB9NU73eZHsrSpXlllcKiz0AMTNC3fpFF7ulA52yHn5+492Bo4dOpyymAbWfiKYbhkZyre8DNJT3wJByNyLitWjd9z4GJ31qyz0+yTcjaf4Kx6ksSbLB3luK1uI8DGrC4eWnVjrA7vjfGClkFNlwLtK+9QpmrVwz4saHQ8k2seOStOOO0d3p62mvhlfIEvh4VKC7E+hurYJ36FJ4e1eiu02tdNz0orcX8AwMGvlMRr9ABGhlMezgHQuyrEVwynxkRQB1BVtRMhV3a+j84eeUn3QipOowgP5Db5Sw1qOu2QpDRDaijRq01NePv/0ps3GY/NKjzJMIJoPmoRYwpWvrHhTr0O64nm6YT1gKUmaY1PWrBJkuNDe2inDtDW8PtdKEdaGnR7k0IWjKfjZP9o5CxvylmJMWPub2fFTWGwbFttuKtqZ92F1ihi4qC8km10FY4yfWtyS2q75DV7BKb4BBBPKe7qN8REpEk8bQSC5JUh9a9nyKQVM2AuXNaNrfrg4ZTWuYB1PSaSO7mIQDp/T0xmUISVjh6AIDvMQWGArDjJVDZTGJB3amg54ZiJh/N9KWXAzjjBUwplyC5CVnwKN/DzoPCVvK9HW1NQDhZyIh60z1fVfAz2v0TtQ39RKER6QgMPsSGJ1ufDhUX8M+DGrnInLxuQemNyQy9sB8uDt9fSIkyuHp8G8rE5FBeaRKJawi/Ph3lk/4zmmF3s+E0NBwR2f0V5q8POFvinD0m5Q9rsqdespyqytvwKAhCTk5aYgMj0B4TBpmzUmCT181quoPtvj4xM7FzHg/9NWXowUGGI2mA53Ba5IHEFZPRORkITYsAmHifXOSjEBnI1r71eEqJZQ314qg6B+IQDSjoWHsliilXpdFBBJDNBKjI9X5N8FPd3A76KypRIcuFpmzUhAZJoZHJSJr7iLkZEbC02lzseoDEZWYhYzkWISKeTSFxSI1JQqe1g5M9hGektSFpqYeaELiETVOa7m763eYb0QCIgMDEBgTj7AxcttRWW8qJUx3VxSgrF2PqIwMhBz6+CjJB0GmUPFeYQiLTkF27gz49tehtnn051L5WAXExSFAbkdj4yEbABFNG/wZwWnOZDJh2bLlo34ycDzKzwh+8cWGw/6MIGBEUM4F8Ov4D2oqnZ9LEwvjvDOgr39t1M8Iyh0S/OacBq+yP2Lf/rKhPcYI0TDOXYeg0PkITV4zojMZO9Cwa7vjwvuQ5a8ia/E6hKWejuAQH0jaKASJv5X+0GgZLXlfOk6V2pp2oEuXAmPq2YjIOAehCRnw6N2Kqo8fR8MYd133N5aKhbUKETPPQ0TqWhEa50GuehltlpHTabWFIiQxDVLjv1FZWDB0888Y5I5CdCINodnfRFTmOoQr02eyHJgPd6dPRhLCchdCW/VPVJRXiQ9PDEIWrIRP/dso3b9vjOV4eIaEhchNi0GYCHihIkRIkicMSugS/SZtOyqahlpp3K1n62pES5cO/qERiIqKhinIC7a2ChTt3Ic268FpC4rNQGSADh4BoSJ0R43ofEXArOuYWAuWpxKc/FtQUmwXyzYR0SZ/yF3V2LdzP9pto5eJ3CPDLz4S3k3FKGroGvcGoj7lJ40MEYiMiUFUpAiOYSKItpahtU+tP9iOFrMNvmFieHQ0woJ9IVmqHfNrdppfa0crujQGmCKjxXIRy9EUCI/BVlQU7kZ97+ibPtzVL7YNn6h4xJg8YGlqRu8hBw7urrdhNrsHQsICIHVUo7zaPKoFdqrXmz4oBjHBVjSV1Tt+RlCSrGhvG0RwXCIivDpQ29TtWDfK+o02BiFEvI8y7cYgb6CrTqzfIrQMjAyNSmD0Dp+JnJQQDFYXYG9j73G/QYzoRHA8fkZQyszOGX3Y50KnxQL/AD6A9ViIj4vHw488ijvuuE18QR++YViW7XjiiSdx/333oKKyQi2dGlLknVh40elofWcd9ldO0YPkiNwkBaZjybwotOz4GEWtauEJSuMXj5lz0hCi6UFzRSF2l7WOfSPJKUDWGZE0K1MEUS8MNOxGXmE1eqfB0xGITgQ6rRaxsbFqn2tVVVUwm82Tym/DuY+np6e5quoq1NbW4pvfvBgx0eIo/zCdUkepq7xmKinXRQWlr4VHz+dorDzyX6ogmgilJSo4MgKeA/VobJ3wMe60Y++qQN7Gr7C7ygK9ry9O6acS6n3hI5lRkf8ltuxkYCSa7tjSeAIIDAzEueeeh2gRDA+npqYa77zzNtrbx7/mcDJkzWpkfPcxBOy9AVs25KmlRMeGLIUhe9VsGGo24cvDXE9LRHQqOR4tjQyNRERERCcYnp4mIiIiommJoZGIiIiIXGJoJCIiIiKXGBqJiIiIyCWGRiIiIiJyiaGRiIiIiFxiaCQiIiIilxgaiYiIiMglhkYiIiIicomhkYiIiIhcYmgkIiIiIpf429MnoPCoaDTU1mD1um+oJSPlbdkEc1uL2kdEREQnG/72NLmUlTsHGTNzHX+HRUSO2ek99Y7hRESHkrQ+CA7yh1aecHvBcSNrA8Q0+5xQ00x0MmJoPIEogTE7d67aR0TkPlnWIzhhNhauWIHcZOOJ9eXvGYaUucuxZEkuYvx1aiERHWva0LDwB9W/3TbQ3w9PT0+1j44F58DY3dWJ8pL94wbI8pJ9ok6X2jeaLKdixrf/i5lLr0WQ9R00NPSIsmTMuPIdUXY9gvE/NNRZ1NruURoAPGKvRdq6nyJlxU2Im3UWDAYrumv2YNAuqbWODmVn6J95I6JMPehoagSko/t+w9x5X/9lb2PR6Ulo374e/cdouo4GZf16GhORPnMW0tPSkBAXhRBfDXrMZvQfsn5leMKUshDzZmchKTEY/ZU16JQPqSPG52NKQlp2NtKU8cVHi/FJkx6fuwKSV2LpTF+0lzehb4rWhzIvAVEpIsxY0W7pO2bb30Qo26opYzFmxXmjs7IQO/dWo89pGU5k/brDO2ExVsw1obu0Dt2HWR7+ySuwfG4mZiQmI2FGIuJiomAUobC3w4w+m1pJMdCGpuZe6IxxmBEfDqmtFuZ+MdFEpzCNRiP2swa1z7WOjg709fVNKr8N5z62NJ4AjlYLY4+5HAGxy4dO+QStQIjfXrFRqQMnKvhqZH3jOhgG16P8k0dQXFAEz9S7MOu0M6FTxn9UifCWeiViUzOP8QZ9vN732NMEpmJObjICbQ0o212AovIWaExpyJ09A95O61fWBWHGnCWYGeOBro4etXQ0vSlLjC8RAYNifIU7UVTaCLsxDXPmpyFAmvj4ji8t/CMTER9pmLbbgc6UjvRoT3QUb0NBsQhyVnWAyt31ezTIA00o3iGmKy8fe0WYl00pyMlJhI/T+yq5c7CzFvu3bkV5jy/is5LgLw4niOjYYmic5rRaLZoa6vDJ++8c6JQbXaaCrX43eqIWIkgLeM5YBK/KPHSLvyfDN/UMBMgbUPL2E6jb9wEat92H3Tv2QZ/4DYSwUfqEFxARCR8RKIq270V1Qz0aKncjr7gZGkM0wn3VSkJgUg4S/LpRvmMjCup61dKRZNkLUTOi4dGxHzu2F6GmUYyvqgj520vR4xuP+IiD1+S6Mz46PFnWITQmAh69ldhf2Ql5jJY/d9fvUSH3wNzchJaWBjRW7UX+vmZIAWEweavDnUiyBeX7ajDoE4MY48RbQInoyDA0TnNe3j4IDY8c0UXFxTlaH4+Urn87Wi2zERJjhDEuCeayfFGoDhRkaQVSr9uCxWuXiy9rp9YfUZ52/RYsXDFH7JCGyjUasaO3dmLA6ZRSz9c346sX7kfzgFogyLI3fDN+jOzL/4MlN27E0v/3b+Se8f8Q5KNWEPS5z2PFFd9ztDTI0tnIvGkLlqxZ5hgmB92AeTf/FmEaMSzmPiy+ZQtW3fo5UmMkSDG3Y9mt27Dy+1ux4pZNSE9ymmZZgj7qSqR+600sumEDllzzBmau/j/4eYxsrXCn3kTed5hn0o8w69ufYdn3PsC8825HiN/E07nby0WzFuk3bMGi1QsPrB+FLC1Dmlifi1YtGFHuFruobxvAgF3tF2wDVtgh3s9pVFZzGfK+3IJy86BaMhY/+PpJ6G1rHXGK2N7ZivZBDfz9/NQSd8c3QWJ69cY05C5di5WrV2PRnHSYvNRhggwTMlatw/IM08jtXi1fkhrkWH5ycCaWn7YOp51xBjKCxXYQnIVVZ5yNtaefhTWnnYmsUKfXivp6Qxwy5i3HstVnYOXKFchJjYavWF/OlNPIhvgczFu2BivXrsNqZfrmZiLM6fMxcQYEBmrQ39yITowTtNxcv0dC8kvBwrVnYt4M/xHL9VD2gUHxvmJ5qv2Hspsb0WoTyymIT/AgOtYYGqc5X38/x6npsbojJUnVaK60ICjlewgO24WWchka5yxj34CG4hbok85CiFO5ZsZpMHrUo2nP12IcQ1/t3ZXb0O+1BkmrzoW/z1DTomS3YLDH7NgBDNMm3YucNSsgVf0NJR8+gH1fvY1e45XIXHc5PNQdyUBbFaz+0XDsx41J8O1vhyz+dQwPjoGXpQLdSjhteRNF79+H3f99CHUtYufW8g72/vde0X8v9rx/P2rqlRGogi5H5nk3Icj6JSo/+xmK87ZCk3gbZp15AfTOOzB36k3kfRXSbERle6Ft8y+wb8tGWMMvRuZZV074tJ/by8W2AS0VPfCIXw2D055XE7MCwZ5mNBdvPbDe3GWpqYRFF4WUlHD4enrAyy8CqUmhsLdWoMHprHF3YyXMh5z6HG0QVlHH08dv5N2wej94i4MWm+3gCNwb3wRJIYiN16G1eDf2FtdhwC8eWbOcTsPKzaiv74M+PBpGp29IrSkKoboeNNa2DS2/rmrsKcjDzvx81HSK7aCzEoX5O0T/DuwqyEeV86Ue3vGYJcJpsNyEij07UVTeDF1ENuZkR43Y/rShGchJNsLeVCzG/TV27SlDh0cUMmenwn+C28sBkhc8xHJVrmUaj7vrd7JkcaAQn5UAn54yFJVZxAGM8/YnQafTQavVw8MvHMnifW0tFRi3YVnuE/Mith9eV090zDE0nsIkjQ6dpZsgpZyN4MaNaO3XiDJ1oCBJMtp3fYhe/WKEJfs7ymTZA8bkJdC2fYiGJkeRg73mKezevAse6fdh9jUfY9FlTyN59jJ4OF2fppArHsfW5y/Eri9eR3PVJrSV/BMlYieriViCkOGzkmKH0SN2YCJTiB31DHjU5cESlAh/sZ/xDoqGZC5Dt6gm9e4Vr/8ITcWfolPZwfQWo6X4QzSLsuaSj9HZfXDH5Jd+HgzWT7D/7V+hbt//0JT3S+z6cjO0cechzOn0mzv1JvK+Dp4daPzwIVTv+wBNOx7B7u1FkMKWIGiM02+H5e5ykQZEINoEm+9imMKHXqrkjcCkJdD3fIHmGqfmJDfJPeUoKKiCJno2Fq1YiyWLZsE0WIqC/OpJ3FAilodIItqwVGQmhKohJRxJuckIlnrR2tKp1jtK9ANoLChEVWM9GquLkF/SAikgHEY1gyiz01ZTh16tCeGhQ03vSgu0MdwEbXcd6tTJkwYsaGlqQGNjIyxKQ+hgJ5rFOJtEmdJZ+g8uF//oOBhk59O/e5Bf3CxCYhzCnVo5vQMCoLM1obyoEk3NzWhuqMDeHVtRuL8JgxNdzMO04nMt/pHtzneWjDS163c0n7hsxPv3oWZP8ajWTskzDrPXnIFVa07DskU5CLUq71uDgXHf1ybmRVlPk7yWhogmjaFxmmuqr8ffX/jDhDrlNe5wfOnW/RfVxRtRs/MTDCpf5od+Tzf/C40tnghJU29o0S6HMcEHlv3vocfpS12SetC57WZs/ss12L3h72jtMiJ00ROYe86F8HJqIbFLUQhb/jwW3bQRy2/4HMtEt3TNEvF6A3TD4a2rAr2DkSIIAb4h8ehuXo++vnj4iNzqY4hCX1vJIS0VrvkERACWcnQ57TetIoT1IxJe4n2GuVtvQvrL0KukOVV/WxXsMMBjoqFxAsvFVv4pWgdNCEme5egH5iAkPhgDZZ+gfRINVtqgVMyeFQtNy34U7tiGnXtK0OGVhFlzk+B3yIGBK8okthfvwP5GO4KT5zpCyuL52YgJ9IDcUYmadrXi0WLtRJfT2W5rTw+s0GNEw1VnNeo7tTBGRw5t95owhJp0sNTXjtju3eXjLVZ2Tyd6xIGacp2y0sldnWK78oa306nnPksnrNpQJGYmITI8HEEGP+j6zSKEmtE36sM5daZy/R4kQaO0IHrHIjUxEIO1u1FqHn3AIg+KML1tM7aLrmB3CSzeyZiVHXXgzAMRTR8MjdPUeXP0+N5azynpxiV2fhIKUfPhnSgrbVYLR5KkKtTv2QlEn4lQEeq0SacjRLsbjXsq1Rojyb270bLzGex7+xJs++QLIP4GxMSow2Qtgpc/jsQkD7Ru/DHy3rp5qNu8XbnMzEkJutsN8DKEwi84AL0t69HVHgPf0BD4BPqhu7VErTcBYictpmDkBq80V0ALjXOhu/UmQuz8RuwqxfhkseQn/tSYCSwX9RS1d8Iq+Co734iVMPq2o6V4i1inE3tjpXU5MikBPl3F2LGzBA0tzWiuLcGuHaXoNyRhhtONK+6S5E5UFXyOLzZ8gS2bvkB+Va9Y5v2oL61G7yRC2YSMyiJKgfgsOK1f5SCots4MKTAaEeIjpAuNhFHTjoY6p/Q/AZJGjN+QisWOFjW1W5AoIqMGYtAB1qbd2FncgMGAaCRm5GDOguVYvmoVZsYZoJlsiHLxuqOxfhWSCNpZynwuyxLfGRZUlzXDNta6tffB0tYKs7kNLXXiffMrYA3LQJJpvO1AlB/lTYSIxjbZ3SAdZZFBGiSFje4yo+xIjcCYw8brjlR/0X9glrMRmpYMY9ICaGo/RLPTYyBl2Q9+iRchLFpMmErZN/QXfYwOeyB8QoxqaSZCYo2wlTyH/fmfoKNmq6OztI88HSlJ9ehp64V30Fr4hlSju7kbPeZO+IWsEIFJDGsZ/9qscdmUpkNpZHhzpAQr7M6F7tY7DiayXA6cojYsg0ksfv/kpfDs+QJNkzg1DfjC11dCf3vHiFOG9u52dNo08PWZ3F0aSni19XfB0uuP6Fh/2M2lKG2ZwhtexjMqcAwVHBqt+mtr0IZAhEX4wxgWAo25Fg2T2PQUsl2G3FWOfLVFbbjb8fV2VDpd+yhJgzBXFCJ/83ps+OQDfPbpBhTUWmFMTkP4ZC/hs1lhEzOn048X/o7O+pXtrShV5jOvFBZ7AGJmhLr1iy52Swc6ZT38/MZritdDp1z7anW6w46IjgmGxhNIgHcPliTtw4KEUrFzmWSrw2T0fYCG8h4YUu5GRLwWrfvex+CIFoNB+GbegbTl58HHaderMSbBR9OP/q42taRX2X+JvZfHUK+gtD76hyeP2o/3tFfDK2QJfDwq0C0yZXdrFbxDl8LbuxLdw6M7QAQhRxYalQYO6OmsEwswAc43LeuM8fBELfqcxuduvSGu33eiZMO5SPvWK5i1cs3IG3RUE1kuQ6eoYxCSuArG2EgMlH8Cy6Q2m1709gKegUEjbt7R+AUiQCuLYZN/FI4yusAZyTBpelBdVHmY69imkM4ffk75SSdCkQ4D6D90Nqz1qGu2whCRjWijBi319Yds906UxXKYZdujLCMRdAbNQy1qStfWPSg+x/ahhmyVT1gKUmaYHKdmlbeyWbvQ3Ngqlos3vA9+bCaoCz09yiUMQeOEtqO1fgfFNtmKtqZ92F1ihi4qC8km162WGj+xfsT3W2/fOO+rN8AgAnRP9/g/YEBERwdD4wlCCYkzo6qh19rg79WLmKBRCeaokaQ+tOz5FIOmbATKm9G0f+RFZ5LUj5aCDzAQfAWyvvEDRKaejtDsW5F59iXwbn8XdRXDe8UytFTWQJtwEzIXXwxT0jmIWvEUEmKU07Uj9YkwJIenw7+tTOzyxP7bXAmr2Hn7d5YP3SHsRJm+rrYGIPxMJGSdKcZ7muhWwM/r4Fi7dr+Ndt1qpJ57GyKU6Zt1B7IWL4S1/N9odLo71N16Cnfed6J8Uy9BeEQKArMvgdHpBolhE1kuw6eo/VJugDG4HS37N0/4WlCFMp915Q0YNCQhJycNkeERCI9Jw6w54qCgrxpV9QdbfPR+JoSGhjs6o7/SNOYJf1OEo9+k7OkP5RWLpBgfDDQUoaJz9HKb8PjcYfVERE4WYsMiECbmIyfJCHQ2orVfHa6SJBuaa0VQ9A9EIJrR0DB2y5ZSr8siAo4hGonRker0muCnOzg/nTWV6NDFInNWCiLDxPCoRGTNXYSczEh4Os22VR+IqMQsZCTHItRogiksFqkpUfC0dsAyybuYJakLTU090ITEI2qMRsOJrN/JUDa57ooClLXrEZWRgZBDHjMEyQdBplAYjWEIi05Bdu4M+PbXobZ59PagZNqAuDgEyO1obDxkhRHRUcfQeIJICGmBr+fBL8kEUzM0GqcmiqPMXrkBbVaxUyv7AGOdQbRW/Bz57/8NXT4rELfqfqQsWAl908so/NevYbENBRVl52r56kco2lsPn6ybkbb2JkT4bUP59r2O4c7sbZXo8/ADWkuHWp9aKtHjZYBOhKWx9p2WrY+gosYXoSt+isyzfoaMdfcgfPisuKL9b9jz79+jTb8U8avvQ/KchZDLnsDOD98Z2Xrkbj2Vy/edoN6qL9DZ14vB2i/QMcY+cSLL5cAp6qAE+PZ+gZZJnZoeMtCYj+0Flej2jkBy5iykJYVDby5BwdbdaHP6mTm/qGzMzJnt6LJi/MU0+CNmptofO/JOIqWV2ZSUKAKZGeUlDWNe7zaR8blNbkFVpR2mlEwRzqLg0V2BwvzSMW9wsbc0okWEcWtTnePf8XSUiVBk1iEsbZZj2rJnzUTU0AMHhvRWoGD7PrR7RiJRLL+M5Bj4ivfduW0vOpxaqvurd2JXuQWekanIzJmL7MxkGKUWFOcVovkIfo7TUlGEhsEAJOZkIniMFkt31+9kSVIvKncViQOyKKSnjTxNLXmEInn2PMzKnS2WSyS8e6qw62vxvur3xjDlJd7hM5Ed74ve6iLUTvJSASKaPCkzO2f04ZwLnRYL/AP4YNWjSbmBZfh6RF+PfixKLIb2kJBY1xEEq1WLYL9O7K6LQXvPwWYED60NC2YUo63bH2c+HqyWTp4UeScWXnQ6Wt9Zh/2VU/3gPKLpSQpMx5J5UWjZ8TGKWtXCE5TGLx4z56QhRNOD5opC7C5rHfvGlGlI1hmRNCsTMcFeGGjYjbzCavRO/E4yopOKTqtFbGys2udaVVUVzGbzpPLbcO5jS+M0dUZWNVLCGsSXZCvmxFeMCoyKSIMZsSEt8PPsx5y4cke4HJYdVQ0fjwFEBx35nk5pEQpKXwuPns/RWHkMblQgmgaUlq3gyAh4DtSjsXXCx9bTjr2rAnkbv8LuKgv0vr5wumx3+tP7wkcyoyL/S2zZycBIdLwwNE5TPnorEoxNyIiohbfe9bU7Oo0Nc+PLEepnQaZ4jdHfog6ZAtoVCEsKRF/xf0ecSiM6qWnCEBHuib76WphPku1eslnQUJqP7YXVx+amoyki9VZi19c7UdHcdcK0jhKdjBgaTyJe+gHkxlUgOnhqz6NJ9k+x9w8LsGVDnlpCdPKT5EYUfvo+vjzkxi8iolMVr2kkIiIiOsHwmkYiIiIimpYYGomIiIjIJYZGIiIiInKJoZGIiIiIXGJoJCIiIiKXGBqJiIiIyCWGRiIiIiJyiaGRiIiIiFxiaCQiIiIilxgaiYiIiMgl/ozgCSg8KhoNtTVYve4baslIeVs2wdzWovYRERHRyYY/I0guZeXOQcbMXMffYRGRY3Z6T71jOBHRqU7S+iA4yB9aecLtI6ccWRsglpUPlxWNi6HxBKIExuzcuWofERGNR5b1CE6YjYUrViA32cidnTs8w5AydzmWLMlFjL9OLSQ6iKenTxDOgbGxvg6fvv8uLr3mekf/oT55/x001derfWNTDiQ9Yq9F8uLzEBQSDGmgAR2lr6LsizfRbZXUOqmY8e2XxJeHHZavzkV+XrMoS8aMK/+CmAA9Ord9E3nbqmE8YwMyPZ/Ehrf/BbvmbGTd+ABCKh7CF++9B7vuQsy68Tr0vHkmSuok8XoJHtFXIlF5X6MJmv4GdFb8E2Ub30DXwND7KkbUCxH1BprQVfkGSjf+HV3949Q7zPicybrFSLvq1zC1Po4t/34dg9LE33eYshz9Fr2KOXMk/H/2/gQ8rqu+/8ffd/Z9pNk1M7L2XdZix3Zsx1vs4JiQBMLeksADhS/hF75AS9qn/6ZPvy0pfQj80m+BH4Uvv9IflJKWEoKTAAmJE7zEseNYmyVZ+77MSJoZaTbNfv/njq7kGWlkzcgKtePzynNizbmfOeee5Z7zPtvc0Wc+jlE3fyEFljHDcNdTqG6qhgiX0feDRzGd4d6ysdtUvmyB3bsFrrwUxnKUldmgU8kgSITgmxnFQO8wFvh6z5GLndRQhsryQuiJHRNfhG92jNgNpdmlwgr0qDuwGyZ/J86/PYZIWv0jz6WuBBUV20h4UgjiYfhnh9HXOwpfPPfy0FQcxi7bLFpe74QnJZ4bgbtHja0SJjgxNDlP6u3WhLuVcILRWLsPDTYB3CM96B+ZJu0af5GQTflyNtadJ1BnyJw+1t2F05dGEMsh/eLCPThUo+c/XYP1D+DCG70I5JiX8pJ92FcWwpVXLmPmOt9VVxzCnhJl8m+WTSAeWYTfNYHB/kF4wknvJMn6p7GhuLYG25QhDF9+E0MLcf4q5WaDW57OFbo8fRvwjsww6j6F+vs/B230NIZPPYn+9h5Iq/4CjffcCxHXcqQQ9AxDs+3g0pJF/iHSmV3FwgJ/kRDyz3EtMKTcB60V8ngQCXUBkovkGhMkmEGItxcYP4uG9z+KvMg5jL72dRLvFYgr/hyNxx+COCVegeEzaHjwUeTH3sTo61/HQFsrBKVfQdN9H4cs1S7L8JbhOhPtvq/CIuvCyOlfpAlGjmzjXUHxfpQ2lyHW/38w4coQn+wOFL//x6hrMMLvmOJ915KtXdb5ssV27xbExnrsJOWliTow1NmBnkEnEoZq7NxdDQ1zLb3Z2gnyqohdBfLixK6rHT3Dc6ROVqN5RynkGesfeUTK61Egmsdgd7pg5BCoysh3q6CLOzHSdQW9IyQ8Ux2Jo/gmKg8h1NYyFFu1N20HIjLWoMYuxUL/JbT3T6UJRo5sy5eD9Y/iSssltK24XszFWMTDYWxGTrGxOQymhUfu8eoEQvz1dwqWDAj7ubha23B1eAassRJNTWVQpNQrrjpGfZPoe+stDAeVKK4vhxo3S72jrCYWj+fsbhQqGm9yhGQkMUNEBDd7uOy4gy43irLqODTsGQyc/Bamel+C89IT6CKNobjsfuiT6u8a8ekuBG13Ip8MaqSleyEbbUUgZYAT8s2QADlxSCCiUeoeRUBtQXJcqyZiMuFEOMB9APIaPwxV4CS6n386Ge/M5a+h43wLhMUPoUC9ZMOhaXgIqtCv0f2rby7dX8vfo+P118HaHoJFxxsRsg1vGYHxM6jcXoBAyzcw6VnbGGYbLwfLSqDb+yfQCXowdvE1xDOM9LV3/i2KdCMYPfkJdPWsP/ubrV2297fVdu8GWFYGW6kdkoU+tFzuwYRzGo6xHrRdHkRQWYzigqW9wNnacWgKrFAQwdhz+SrGHcRutAut/bMQaO2wLE3spCFQV6Bmmxz+kU5MBHnPFPIKt0EdG0cXFx4XLwmvpdsBNr8I1gzhUdbCsiKYCgsgWRxF36hvzUxoLuWbJBaAe3YGc3OzSeciLZtGGIVzipRLhmd+Y8LwpYSXdJ5gxvZjS2GD8CTjdcA5dhVtvbNgNGYY5fz1FBjWi+HeCUQVhShcZ6aVcntCReNNjkyugMliTXO2oqLk7OONIBCQhjHmQyRl4BF8+zGc/9FfYzbCe/CIwpfh8u6AvtAAQ1E5PENtxJO/SIj6nIjLdZCS2iTWFIB1dWNRZIGE2AjVJoj8TiwSfcayUsQcJzH65kn4EvyXCRHXMKIwQ5q39JmzU2j0wFwnvCl2salOBEBEaf7S52zDW4ZlC2E/8sdQ+J5F38WeDJ1JdvGuoHsEpTVGhK/+AJPzvN8q4lM/RfvPHsXoRIZ16xSyscslX7bSLhfUB07i0J88AWPJV9D4yCkc+PzL2P2Bx2HQpu+PWrYzlT2Oxk++jgOPvoRdD/4Z9Kr05RZOmCuq/pKE9TLu+sIp7H7oT6Fv+Acc/OKPUajKdQZEBaWKwaLbhVBK2Sd8LsxHBVCrVLxPtnaEBLmHeASRlPyLR2JIgCX3znvwsKwchbUlUIZG0DPozVD/GMgVMsC3gPmU78bmPaQ85JBtVjSSsMSGajTfdQyH774be3fWwEiiWYaFEbVHTuBgrZGIhWsRL/vvr8on90bSo6vDwXtO4J7jx1GrY8Do6nHk+H049p734ug996LelPJdYi/WFqF210EcuPs4Dh8+hKYqO5SC9ExJzvwXN2HXgaM4fOwE7ubu7446mBW8wabQIi9PgPCsEz5kEjzZli+Lub6LRLRPY3mikmWFMNnMEIenMJVhZSE7Mt3T1sGoKnHnsXuxq1SdVp6rSUSipJ6ScuQ/rybhccIVJ+WTT7eiUa5BReNNjlKtSi5NrxaOnOP2Nq522RIYvYSw7CjKjzwAtWJpapFJeBENepINSSoMM47ZUS/yKx+FznwFc8MsBKl9u9eJCGNIdmqyPAvCvhZE/BbIiWiTKQ0kMgcZW3PhkBF213cx0ns1rcOUWyohZsex6OE9QALnamY8lrRjuYaNa/zYOPlbSATvklX24S0hrXscRRYfHKe/By/poNeSXbwcLJsP811/BBXbjtGLb6wRAMsE+p7BAqeYNyA7u2zvb6vtckSwA/YGJVwXn0Lv+ZcR1n0ItSc+uXa5ltkB23YZ3Be+gd6L5xCzfAR17304zY7bflB3z4OQe1/C4KmnMDqeD2tjI381V6KIkd5fqlClnw4VqyAnmjZO8mGJbO1I1Z8YhVdkQ2WlBUqpBDJVAarKTUi4RuBYNZMotdehVBvF1NV+LJC8XgvJ8GR5EMmZLA+SRcn4iWAj9oLMVWxjGD22FYvg6u/C1f4pRFTFqG9MWT5nZzE9HYLYYochpcyFRhtMoiCck27yrJHI/ePobm9FR1sbJnzknnyj6GxrIZ9bcKW9DWMpW1YgL0YjEac6dgYj3R3oGZ6FqGA7dm63pW0bEZpq0VRhQGKmn4T9Nq50D2FBYkPdjiqoU/M+FxhZcsAaCq234Jtd+XJpjvrd8PjD155vsRUFBhECk+PrlGEWkLAEIhGEpECXynfrYIkgLq4vgSI4hJ6h1QMTBiIuXqEYEpUFFaSexudGMLXIX14NGyJ5SPJJumrpiXJbs9lugfIHhjv4ko3LlsTEd9B14QokNU9gx6dfxd4/+i4qdhyAZNV+Hg5GIIJv8E0wlfdB5zwHV1hA/PiLHAtOLEJPGiIB5GoDQguXsRgwQkoGqFKVAXHf9Jq9g8uwsmMobd6O2NAv4fDznimwsvdj+6PnsPf4cU7ibMh64bHSYyjbvweJgX/C0MjSWrnu6Ks49MiXoMzQcG8Yr/ETKC5WgvXLYP7gK9j/uRex8/6vwpSfMoXzDpJtvmy1XVZIXHD+7muY6H0ZMx1Po/PNt0h+3QX96pky6QKx+zuMc9sKWp5E1+UeMOb9yE9ZLpNXHIAifhaDLzyNaRKe89JfY7B/s901iY8oOaG5CnUlJl7kWVDeXAEdswjXnC9HO5JvwWG0t49BYN+BvYeOYf/eRhijg2hvG0+bxWKFFiIsjUg4ezAwtyRK9LXHcPSuSjLwyFD/RHY03X0vDmwvuPHyEEfgbO/EmHMazvEetA3MgdFYYOC1AHeb7okpLAqNsJiWZoS5WU+DxQhhYApTfHKZiBdzMw44nU54o8Qj6sMsCXOG+HHOm3JwSm0vgpZNXbbvRlv/LBGJRbCkPCJyjQai+AyGe0YxMzuLWccIrra8hc6+GdJm8Ea5IiTtE/mHTay3fyv78l2Nwm6HTuDF9KSX98kdRliAhqPHceTYCRw5ehR3NlfCsEXNhqJoO4rVIUx096+ZZWWkRdjBxXv0HhzY2wRTjKunE2v21V6DDB4TXP244RpIeRdBReMthPLeh6H91F9ldNy1XGCYIHyXHsOFf/00us48A5ffANPeb+GO9z20ZsN9stGY+g3G+89houMUGaeTRia1nYlOIxLREdFoI52Al4hGNyLeOGTqAkiUWkSIaMwEK6hC0f1/BSN7Bv2/fzHzKcTFF9H7H59G6+lTG246Xy88bllQt//LMAnfxtDpl7I77XideLklNcOOByAnzbJv7EWM/e6ruPLqM/Br3oeaDz0Jo3xrZw8ykm2+bLVdNoRHEUiZZYt5ueU9AySr95iGh8jggv+bEHaPIQEtJCmiUarQA4EJBK9N7iHgGkvOwuUKV+zz/S3ocyagq7gjKfL27d6OwjwJ2IVRTPBbDLK14xDmV2FH4zYI5vrQ2XIJHd0DWJCVo/GOcqj4ARi3pKmvqoaZcaG/Zyq7+hedQPeFN3DpquPGyyPmg58TeTyxYJCUhxhpE0i+cUz7hDDYrUsH4QRmmIwieKcnEczmflehkJNCDPoQJANObl8251i/D2Hy1MhTlp5DXh9iQhPK6sphtViQr1VBFPYQEepBaJNDg43IpXxTYVkVCqx5gIfk1XqzcxsQc3bj8qULvLuIjt5JhDVlaGguzzh4zQ5+5lK+DVVleYhOdmHQk7JfgoeNEhHPx93eNQCvvAKN222QbDpeyu0IFY23IGzk2rJLuOsiYtMj/KfcYRe7MNfxPfSe/BgunToLFH8ehYX8xWVIK8ugExO/exxDg7O8ZypTCPmFkKobiHMgvEA0SGAGUm0zEY7kb9/aZXOWsaPgvv+NEv0whl94ArPBzB0Ew8QQ9fRiMXz9rvP64VVCX2REdOgkXKweYrku6YRLkyoZuX6825Fv1yAx+v/gyuv/CbejA96hf0fPyf8XC9IDsNXYeLt3jmzzZavtsmJNH8R5kPJYXcSks0rr2lhuJyBDypL/TOBq3hq46Y9NwrA+jLX/HmfPnMXFN8+ibWyRNIJhTA+OYzFFHGVjx+23tJaXQOHvR0vHABxzs5idHMCVlkGEteUoXTlQoYLBIEd0ZgxzkEAsESed8DqtLxdFlIiuxS0ojvXKI3W1gBtETk55wOSR54iISZHJCoNgHo6pFFWfAwy39Kqtwr7kzBbv9pQRyShIW2aPzXSho9+BqMaOstom7NxzEAePHEFDkRaCzYqZLL6XbT1Ig8sbZRxzE1PXmZ27PmzEB4/HzTsX5iZ7iXCcAauygFSRTcEQgV/P5e+BeuiFXowPzWY+VJMIwet2JeOemyL1tG0EMXMtyo3rpYX4by6ZlHcxVDTeQiT8HgReeQaBZ5+G/7nvI+YYgVBnAqPMbaMyN2JWlX0QZnsB70PaBtI4hHtexUIiDwq9gffNlimEfYAkrwkykQPBIDeDMEMEYyMkiiC5lj50Z4lwMx79DioL5zH+4pcxNpvyQ2FJSE/J6QKi6tL2/DBC0oYRYbGqT9g4vCUk1U9i/2dfWnF1VavzLdt4ZRASPRB29abPGvl6ESB6nlvqemfI9v622i5H1nQ0nAeJiIsrR6IRP8hIZOlkPo9EaVgbRQ5we9XiYT+8i2rYt6mR8AxicC5lKo5nYzsllEoG4fmFNBGRCMzDFxdAqUg/zSGx7sChw/esuAZraqo4+DzillfTMn9JOm+2ODKXx9rwwpMTcCMP5gI1DGY9BJ5JODb5OzBsggXrH0bbyqzakmt5+zJGU/Y+MkwUnpFOtF04jTOnXsLrr51B+2QMhopqWDa7lS4eQ5wkTiRedQp6FdnWAw6uOAw2K2SxGUw5M9tsBBeGWKGFRp5+X7HFAKKkhks3uUTNJlwY5PK3dRDehAaFpaas3uiS8C7Ax4qhUq2nVsUQcXs8Y6tORlJua6hovIWItv4G5spplH1MhcLDIcQv/weifW2kcSatcE6zL1Eo676K6oMPQpHSdQgM5VAIwgj7r3/SdzUME8Gifx4SUxXkPkfy98biRDTGNDVQyWYRSekkOMGad/DbqKli4fjtYxiaWLs3iDvgEvS6SCtdD01KDRVZ60k37UzOZC6TTXjAICZf/hJan/ufaW6Q39u4TPbx9iPgZiEr2JG2tCPQ7YBWlkDAM8r7bC3Z3t9W26XCah9A9Yd/isbDRzP+DmYSaRERTPzfBJHWChFc4PRfrgSmOhGTHcW2/YehUOghsXwQpfXlmxdQPNyt55VWwCgIYrxndN2Zo+vbLWJxkSQ3Lz/98I4qDxohS64tr2H6MdFxEZffJh17iuufTRcfDEO+EyRPj1qLvJRoRCR8JYkrlOEnerJCpIYqRaeIiJgVIYLw6iXW2DSmZmPQFmyH3SDA3PT6e5GTBXCdQghyaSeCI+pZmtninDsQJWkkg5GUpkphrkRlqTH5HHFRxWN+zDpJXWHkkK/W1FnjTw5cFdr8DcVTtvUAQgsKiIoNT4/DdZ2mlpXbULv7LuystmR8PvQVe7GrqSitvohVKiIZQwhvUqBz7XnA7YJ7phddAx6IbPWoMF5fMHMIVKRecHUutM5au1gLLRHuwcAmHlzKuxahyWz5X/zfWRMJh+mJqj8QSrUapRVV6Gy9DNsRGZR2UXKeQCRjoK0Qg4m6EOruwGJ3Nxk6JpInrYcHehHwr/+gM0wcoZAdlqYPwGjWgGW0kFvfh5JDH4Vm8Xn0nz2HcHKN0IB8YqNa+DUmRlP3JW6DYddxiKd/DsfUkkgTGI+TEW4hBK5TGO7pTu4vtOw+DKVgCM5zv0GAX3NUNHwbjXdWI9L7I0y6FVDkF684cXwaYf43gCI+OfRNH4XZno8Eq4Gi6CMo23cvpHM/Rv+ljpUZvmzC40RtzDeBsDfdiewPw6zpw1T7hZXOMZt4uaW8QLAAlh3EzqRCQkA6dfuDKD3ycahDv8bA6ZcQ4t/eITIegt5aCaWuDErrPhhMcoTdXgjzy6AQB0iDvCRcs7XLNl+22m4ZZePfoKqmAjKTEYvtz8O/6i0l0qKPoyBPBjFJi4iVQ2Z7EGV73gPZ/HMYaGlZCS9pZ5iCo+UMwstx5B9BUaUR3is/x8Likl/C3Y2Q6i5YGz+Cwp2fgK1cD/fAMLQWOebbnoN3nbf+bIhsG+q32yBwXsGVcf+qU6YpXMeOW9IPRtWwFhXCpBYjwUigzLejvLYUmtg4erunsUjqPScGo6RjDhEhlepEulJY5AuYHONE0lK44UUhDNtKUKCTEEEjhkJfhKpKG6T+AfQMza8pj42Q6othUwkh0akgjIsg09lRWWaDLDiG/hF3mijk7jMYU8BebIaSncFQ58TKc5sKZ8eo7LCZlBBG4xDKVVAq5WDCAUQSfDqIaNMXlaGAjEbiRBLJ88woqW1AuZnFzOgswvxsJ0Pqd12lHWpBnDxHUijUBtjLSqATeTA2MI1ghvg3Ivm8S22wWzWIOsbWfTNPkizrgcRagxozMEXaWfd1TugotzWilsQr00gRGpuAl88PDi7oMLcvcpsNRiXJF1JfVEZSvmVWiL1D6B3NvXzF+YUo1MUwM0Tyinw3Mu8Cqy9BsVUO77gjWf84kvVAw20bikGsUEOts6G0phR5iWn09VyzW4bTtJrSBpTmBTF2dQTeTbyNiHJzsln9tvw9KhpvclJFo7ZcQkal16aEuMdYphMmxSP3m3q+4VhWopEjMX8BLrcIyqK7Ya45AaPVhLjjl+h/+XuYDy+PgrMXjXHVfmyrLEd84ucYG5kkrWMBdHuOQhluxdSl0ysnSfOaHydiQQqxcS/MVe9Jc/LASTiml+6bDbZizhElIuYYLHXvhbEgH+GRn6D3lX9DIKUByza8TMhLH1kjGrONN+F5A64ZERSl98JadwIGkn/Rif9C38vfgSd0bRZBvfv7aLjrfTBVHIXRpCMdhw6a8qPJzwZJF0YHhnKyy/b+ttpumVjcBH1ZNRjnrzDa2b50KCqFpBjUXcLgW2GY930KttIyYO5F9L/yfSys1KvsRSPD+BEY+iUmr5zCbD+J8/y/YE5yDCXlSng2KRq5gynG6mYUq3wYaO/BQoZ0cmRjF/c7MecXQW0qgM1mhzFfhrh7BD0dvXBfT6wQFMa1opGNeDA7H4fSYEWBzQZTvgTh2UF0dQ5nFHAbkRQL6jkM9CdgqSqD3agG6yeCtqMP8xnSwwZZqIqtkM/0o8exvogKca+E0hbAWlgIm9UKk9kAuIbgCvH20XnMeUg6zOS63Q6zTgnGO57MF09KvsQWXPALtKT9ISLUVgizMQ8SMhAe6ezC9GIuqyfphL0hKGzFKDRK4J2Zzbg3NPt6IIO9phaG2Ci6B93XFXbxhAR6MhBnFsYxPO5ZM1Mb98/BFRBBY7bCSvLNoJaS8u1HV9fIpso3VTRyryDkBjLz7ih0nGCXkbo1E0iWIVcP7IZ86AtsMFsKYMiXA/4pUg96MBe59lxycIJRbmlAU6Ue0fF2XHUurj+ootxy3KhopO+evskxFRTg6IkH8MyPfgApEYgCSeaHN0Ee/LA7nnwfdTbvnqZQ3gm4H+3eUfUW2n74JBbeoY5G3PxD7NsfQs8/PwbnOh09ZXMweTXYv8uGuZZX0ePiPW9RBKpiNOyshl4QxOxIJ7qGXO/8W1ducViRAeWNdUSIyhBxdKG1c3zNLCTl1maz+o2+e/oWg3sDTEVRE8oKGjM67tqNviWGQtkatraTYVTN0JccSjpj7RdRs6MB8ck34En5GR7KjcPNMOmsBZBGpuHc9NtObh4S/hG0njuPrjEvxErljf/e5e2AWAkF48FI2xu42EEFI2UtdKbxJidfZ0Dznr38p+zg3k3tcc/xnyiUPxxLM42X0PbDr23ZTCM3s7j/QCMRNSzY8CwCEy9i4Pffx8JmD4ZQMsIyZmw/sgPaiTfxRt86P1ZIoVBuaW50ppGKRgqFQqFQKJTbgBsVjXR5mkKhUCgUCoWyIVQ0UigUCoVCoVA2hIpGCoVCoVAoFMqGUNFIoVAoFAqFQtkQKhopFAqFQqFQKBtCRSOFQqFQKBQKZUOoaKRQKBQKhUKhbAgVjRQKhUKhUCiUDaGikUKhUCgUCoWyIVQ0UigUCoVCoVA2hIpGCoVCoVAoFMqG0HdP34JYbHY4Jidw94n7eZ90Wi++CY97jv9EoVAoFAqFQt89fdtR37wTtQ3Nyb/NBdaMTiwVJ69TKBTK7Q4jVECXr4aQzXl+5LaDFWpIXiloXlHWhYrGWwhOMG5vvoP/RKFQKJT1YFkxdCU7cOehQ2iuMNDOLhukZlTecRD79zejUC3iPSmUa9Dl6VuEVMHonJ7Ca799AR//9P9Ifl7Nqd8+j5npaf5TZriBpGTbZ1Cx70Hk63VgIg4sDP4MQ2efRSDG8DZVKP3kT0jjkYD3/ANoa50lfhUoffhfUagRw3fpQ2i9NA7D8TOokz6NMyefQ0JwH+q/8DfQj/wdzr74IhKih9D4hc8h+Oy9GJhiyPcZSOwPo4yL12CEIOyAb+Q/MXTuF/BHluLlSLPTE7vIDPyjv8DguWfgD69jd53wUmFF+1D9yD/C6PomLv7qvxBl0u1YxgzDXU+huqkaIlxG3w8exXSGsLKxyyYdLCuE5cHzqCle534n/hFvPPszxMh9bipftsDu3QJX7xXGcpSV2aBTySBIhOCbGcVA7zAWVuo9YN15AnWGdcrD3YXTl0b48tg4PI7k86YrQUXFNuhVUghiISzMDGOgbwz+xNp4WPIFVdkB7CkFhs+fxXBwc2WhqTiMXbZZtLzeCc+qer5ZuLRobJUwwYmhyXnyHGxNuFsJJxiNtfvQYBPAPdKD/pFp0q7xFwnZlpu4cA8O1ej5T9dg/QO48EYvAptM+1aVr7xkH/aVhXDllcuYuc69qCsOYU+JMvk3yyYQjyzC75rAYP8gPOGkd5JkPdXYUFxbg23KEIYvv4mhhTh/lfJugC5P3wa8IzOMuk+h/v7PQRs9jeFTT6K/vQfSqr9A4z33QsS1HCkEPcPQbDu4tGSRf4h0elexsMBfJIT8c1wLDCn3QWuFPB5EQl2A5CK5xgQJZhDi7QXGz6Lh/Y8iL3IOo699ncR7BeKKP0fj8YcgTolXYPgMGh58FPmxNzH6+tcx0NYKQelX0HTfxyFLtcsyvGW4zkS776uwyLowcvoXawWj7A4Uv//HqGswwu+Y4n3Xkq1dtungYF3Po/uFx3Flxf2/cEVZxINzWG62s86XLbZ7tyA21mNncxk0UQeGOjvQM+hEwlCNnburoWFWlYd/FFdaLqFtxfViLkbKIxxeKY9swxOoy9C8swq6uAPD3VfQO+qGpKAeOxoLIcmUz+JCVBSrEXP0YyzA+900CKG2lqHYqr1pOxCRsQY1dikW+i+hvX8qTTBy5FQPYnMYTKsHJMyrEwjx1zfFf0P5smRA2M/de2sbrg7PgDVWoqmpDIqU+sc1h1HfJPreeosIWSWK68uhRob6SbltoaLxJkcoFGKGiBJu9nDZcQddbhRl1XFo2DMYOPktTPW+BOelJ9BFOkVx2f3QJ9XfNeLTXQja7kS+EJCW7oVstBUB8vcyId8MCZAThwQiGqXuUQTUFiTHtWoiJhNOhPmGMa/xw1AFTqL7+aeT8c5c/ho6zrdAWPwQCtRLNhyahoegCv0a3b/65tL9tfw9Ol5/HaztIVh0vBEh2/CWERg/g8rtBQi0fAOTnrWNofbOv0WRbgSjJz+Brp71Z2uztcs2HUnCI/AM/R6u4dNJ52YLoBb5MHv19yuzOdmGt9V27wZYVgZbqR2ShT60XO7BhHMajrEetF0eRFBZjOKCVXuBYwG4Z2cwNzebdC5SozXCKJxTjmR55BJe/rYSqMNjRIQSOwexG+1E64ALIkMRrHLeiIeb/dVXlEMv8GJkwIH4dWaQKGthWRFMhQWQLI6ib9S3ZiY053qAMHwp9SDpPMFNl8t/W/myQXiS6XDAOXYVbb2zYDRmGFfVPw6G9WK4dwJRRSEK15lxp9yeUNF4kyOTK2CyWNOcragoOft4IwgEpGGM+RBJWXkIvv0Yzv/orzEb4T14ROHLcHl3QF9ogKGonAibNuLJXyREfU7E5TpISW0SawrAurqxKLJAQmyEahNEficWiT5jWSkZWZ/E6Jsn4UvwXyZEXMOIwgxp3tJnzk6h0QNznfCm2MWmOhEAEaX5S5+zDW8Zli2E/cgfQ+F7Fn0XezIuq8Wnfor2nz2K0Qk375OZbOyyTQcJDe7zX0Lb6VexPCHCsnIYag9DHHgV06NLBZJLvmylXS6oD5zEoT95AsaSr6DxkVM48PmXsfsDj8OgTd8ftWxnKnscjZ98HQcefQm7Hvwz6FUpoxECy0qgqPpLEtbLuOsLp7D7oT+FvuEfcPCLP0ahKtcZEBWUKgaLbhdCKWWf8LkwHxVArVLxPizm+i6ipXs6pTyEMNnMEIenMOVajje78DiREFsYw3D/RFo+R3w+Uk9lkK7utJWlKCdKMjRJBM0i73cjkNsVG6rRfNcxHL77buzdWQOjjL9GYGFE7ZETOFhrJGLhWp4u+++vyidpYMHq6nDwnhO45/hx1OoYMLp6HDl+H4695704es+9qDelfJfYi7VFqN11EAfuPo7Dhw+hqcoOpSC9zJIz/8VN2HXgKA4fO4G7ufu7ow5mBW+wKbTIyxMgPOuED5kET7b1YJlMYdwAW12+q2BUlbjz2L3YVapOK8/VJCJRJEja1ktdwuOEK07KJ59uRaNcg4rGmxylWpVcml4tHDnH7W1c7bIlMHoJYdlRlB95AGrF0tQik/AiGvQkG5JUGGYcs6Ne5Fc+Cp35CuaGWQhS+3avExHGAJmSiNw8C8K+FkT8FsiJaJMpDSQyBxmrc+GQEXvXdzHSezVNsMktlRCz41j08B4ggXM1Mx5bmtHhGjau8WPj5G8hEbxLVtmHt4S07nEUWXxwnP4evKQjz0Sg7xkscAp3A7KzyzYdRHjPXcDC7NIMVhL5e2EpViB49Tl4V8oju/C23i5HBDtgb1DCdfEp9J5/GWHdh1B74pOQc2GnwuyAbbsM7gvfQO/Fc4hZPoK69z6cZsdtP6i750HIvS9h8NRTGB3Ph7Wxkb+aK1HEiAqUKlTpp0PFKsiJpo2TfOBgSF5E/W54/OFr5SG2osAgQmByHAsr5ZFteCy8k30YcnivhUeQa7WkngaxGOQ9CJyIKqgqgRpuDA/NIZFiv2kYPbYVi+Dq78LV/ilEVMWobyy9ls/sLKanQxBb7DCklLnQaINJFIRz0p3ME/jH0d3eio62Nkz4iIj0jaKzrYV8bsGV9jaMpWxZgbwYjUSc6tgZjHR3oGd4FqKC7di53Za2bURoqkVThQGJmX4S9tu40j2EBYkNdTuqoE7N01xgZMkBayi03gJyduW2Akm7QCSCUMA/HzfAO1K+KbBEEBfXl0ARHELPUHp9IwmBiEuHUAyJyoKKchPicyOYWk+4siGShySfpKuWnii3NZvtFih/YLiDL9m4bElMfAddF65AUvMEdnz6Vez9o++iYscBSFbt5+FgBCL4Bt8EU3kfdM5zcIUFxI+/yLHgxCL0pCESQK42ILRwGYsBI6RkgCpVGRD3Ta/ZO7gMKzuG0ubtiA39Eg4/75kCK3s/tj96DnuPH+ckzoasFx4rPYay/XuQGPgnDI0srZXrjr6KQ498Ccob7AiyIdd0yOvuQ76gF47OHt4nnWzD22q7rJC44Pzd1zDR+zJmOp5G55tvAca7oF/ah38N6QKx+zuMc9sKWp5E1+UeMOb9yE+ZeZNXHIAifhaDLzyNaRKe89JfY7D/mmzLDRKfIwihuQp1JSYopRLISOdZ3lwBHbMI15yPt1uLwm6HTuDF9KSX9+HYfHisiNgV5yM2M4qpVG2jLkGJQQw2LIJ11zEcOnIYu5trYFbcQKmII3C2d2LMOQ3neA/aBubAaCww8FqAezTdE1NYFBphMS3NCHOzowaLEcLAFKb4ZDARL+ZmHHA6nfBGiUfUh1kS5gzx45w35eCU2l4ELetAz+WrGE8ux3ejrX+WiMQiWFJmOeUaDUTxGQz3jGJmdhazjhFcbXkLnX0zpM3gjXJFSNon8g+bWO8AR27lxggL0HD0OI4cO4EjR4/izuZKGFLSkBPvRPmmoCjajmJ1CBPd/WtmWRlpEXZw6Th6Dw7sbYIpNoj2tgky4F8vo8ngMcHVj625N8q7AyoabyGU9z4M7af+KqPjruUCwwThu/QYLvzrp9F15hm4/AaY9n4Ld7zvoTUHIJKNxtRvMN5/DhMdp8g4nTQyqe1MdBqRiI6IRhvpBLxENLoR8cYhUxdAotQiQkRjJlhBFYru/ysY2TPo//2LydOoa1h8Eb3/8Wm0nj61cvhgPdYLj1vq1e3/MkzCtzF0+qXM8bzT5JIOthSW6jqS57+FI1WjpJJteFttlw3hUQRSZs9iXm6Z1wDJ6j2m4SEyuOD/JoTdY0hAC0mKaJQq9EBgAsGUyZ+Aawybkflcsc/3t6DPmYCu4g7sPXQM+3ZvR2GeBOzCKCbmecNVsKwKBdY8wDOO6ZRZmU2Hx6hRsmM7zHCip2cypZ4SbV28DQryhPnmxjF85W20XRmBX16I+j2NMIk2ObiJ+eDnRB5PLBgk5SFG2gSSj6TNJ4TBbl06CCcww2QUwTs9ieAmnheFnBRi0IcgGXBy+7I5x/p9CEMOecrSc8jrQ0xoQlldOawWC/K1KojCHiJCPQhtcmiwEbmUW8zZjcuXLvDuIjp6JxHWlKGhuTznweY7Vr4kn5IzofJtqCrLQ3SyC4OelH0QPGyUiHg+Le1dA/DKK9C43Zb5IBaFsg5UNN6CsJFrUxPhrouITY/wn3KHXezCXMf30HvyY7h06ixQ/HkUFvIXlyGtLINOTPzucQwNzvKeqUwh5BdCqm4gzoHwAtEggRlItc1EOJK/fWuXzVnGjoL7/jdK9MMYfuEJzK7zkxMME0PU04vF8PWlzPXDq4S+yIjo0Em4WD3Ecl3SCZcmVf4gZJuOJAUfgEUXhqvrxXVnaLMNb6vtsmJNH8R5kHSsTgrprNK6NjZBLBlSlvxnAlfz1sBNf2wShvVhrP33OHvmLC6+eRZtY4ukEQxjenAci+uJozxSt5RxzE1MrZmVyTU8logma9MdKFP5MXi5FTNpP9GUD51OjPhcD1qvjsK1sICFuRF0Xe7DgtCMbbYMJxayYZ3ySF0t4AaRk1MeMFxaiZgUmawwCObhmNrc0V6GW8rVVmFfcmaLd3vKSOoFIJdWiM10oaPfgajGjrLaJuzccxAHjxxBQ5EWgs2KmSy+l225sREfPB4371yYm+wlwnEGrMoCQ87F8c6UL0MEfj2XvwfqoRd6MT40m/lwTSIEr9uVTMvc1ACutI0gZq5FuTGDbRLiv94lym0LFY23EAm/B4FXnkHg2afhf+77iDlGINSZwChz26jMzZyoyj4Is72A9yFtA2kcwj2vYiGRB4XewPtmyxTCPkCS1wSZyIFgkJtBmCGCsRESRZBcS59yYYlwMx79DioL5zH+4pcxNpvyQ2FJiHDhdAFRdWl7iBghacOIsFjVJ2wc3hKS6iex/7Mvrbi6qnd6g3du6eDgDlzo694DafgspvtXTzNmG95W2+XImo6G8yARcXHlSDTiBxmJLJ3M55EoDWujyAFuf1487Id3UQ37NjUSnkEMzqVMxaXA5YHBZoUsNoMpZ2abbMPjDvWY6najRhfFaOsljPhXZ7AAQiF5Dn3e9Nnw0AL83B68NSdmsiRjeZD7Sf7/GuHJCbiRB3OBGgazHgLPJByb/F0ZNsGC9Q+jbWWWbsm1vH0Zoyl7HxkmCs9IJ9ounMaZUy/h9dfOoH0yBkNFNSyb3UoXjyFOEicSrz4Fnc5G5caVvVihhUaeHk5sMYAoqZHSnJeo35nyZRMuDHL52zoIb0KDwlJTVm90SXgX4GPFUKnWi1cMEbfHM7bqZCTltoaKxluIaOtvYK6cRtnHVCg8HEL88n8g2tdGGmfSCuc0+xKFsu6rqD74IBQpXYfAUA6FIIyw//onh1fDMBEs+uchMVVB7nMkf78sTkRjTFMDlWwWkZROghOseQe/jZoqFo7fPoahibXrr9wBl6DXRXrremhSaqjIWg8lnMmZzGWyCQ8YxOTLX0Lrc/8zzQ3yexvfKXJJxwqiu2GpyEO4/wV4iKZLJdvwttouFVb7AKo//FM0Hj6a8Xcwk0iLoExZghRprRDBBU7/5UpgqhMx2VFs238YCoUeEssHUVpfvnbyLEe4W88rrYBREMR4z+j6+7qEFhQQ9RKeHofrOo/YRuFxgwFd5W7Uk3HaVPtbGPCsOmyRxI9AgIUsX5f+W5pKPbRiFoHgJuurSA1Viu4RKRSkPCIIrz4AEZvG1GwM2oLtsBsEmJtefy9ysgCuUwjBRRI4ERxRz9LMFufcgSipc2QwkpKPCnMlKkuNySVSLqp4zI9ZJ6krjBzy1JFCTviTA1eFNn9D8bRRuekr9mJXU1Ha4SyxSkUkYwjhDIKaldtQu/su7Ky2ZHg+3qHyJe15wO2Ce6YXXQMeiGz1qDBeXzBzCFSkXjAsFkPrnIQRa6Elwj0Y2MSDS3nXIjSZLf+L/ztrIuEwPVH1B0KpVqO0ogqdrZdhOyKD0i5KzhOIZAy0FWIwURdC3R1Y7O4mQ8dE8qT18EAvAv71H3SGiSMUssPS9AEYzRqwjBZy6/tQcuij0Cw+j/6z5xBOrhEakE9sVAu/xsRo6r7EbTDsOg7x9M/hmFoSaQLjcTLCLYTAdQrDPd3J/YWW3YehFAzBee43CPBrjoqGb6PxzmpEen+ESbcCivziFSeOTyPM/wZQxCeHvumjMNvzkWA1UBR9BGX77oV07sfov9SxMlLPJjxO1MZ8Ewh7053I/jDMmj7SiV9Y6RxFxkPQWyuh1JVBad0Hg0mOsNsLYX4ZFOIAaUCXGvZs7bJNxzLimq+gqlyA6de+CU+GJftsw9tqu2WUjX+DqpoKyExGLLY/D388/bq06OMoyJNBTPJGxMohsz2Isj3vgWz+OQy0tKyEl7QzTMHRcgbh5Tjyj6Co0gjvlZ9jYXHJL+HuRkh1F6yNH0Hhzk/AVq6He2AYWosc823PwbvOW382RLYN9dttEDiv4Mq4nzwDmcORWGtQYyZCjzxf7uudzNggPMW23dhRriXisx8TASERwMoVJ04sIkw0JPdc+sMyFBQXo0AjQpyRQJlvR3ldKbTRcfRencbiOqf+10OqL4ZNJYREp4IwLoJMZ0dlmQ2y4Bj6R9xpopA75R2MKWAvNkPJzmCoc2LluU2Fs2NUdthMSgijcQjlKiiVcjDhACL8223CRLTpi8pIOgSIE4klzzOjpLYB5WYWM6OzCPOznQx5Xuoq7VAL4kgIpFCoDbCXlUAn8mBsYBrBHNPLkXzepTbYrRpEHWNpb3hZw3XKjfszzO1n3WaDUUnSQcpDZSxCVZkVYu8Qekfn1z4f2xpRS+KVaaQIjXE/sZQa3taXrzi/EIW6GGaGSF6Re4nMu8DqS1BslcM77lgJL1kPNNy2oRjECjXUOhtKa0qRl5hGX881u2U4TaspbUBpXhBjV0fgXfWcU25dNqvflr9HReNNTqpo1JZLyCj32pQQ9xjLdMKkeOR+U883HMtKNHIk5i/A5RZBWXQ3zDUnYLSaEHf8Ev0vfw/z4eVRcPaiMa7aj22V5YhP/BxjI5OktS2Abs9RKMOtmLp0euX30PKaHydiQQqxcS/MVe9Jc/LASTiml+6bDbZizhElIuYYLHXvhbEgH+GRn6D3lX9DIKUByza8TMhLH1kjGtW7v4+Gu94HU8VRGE060tDroCk/mvxskHRhdGAoJ7ts08HBshYyMPhT6MK/QO+Ft9d0SBzZhrfVdsvE4iboy6rBOH+F0c52JA9FpZAUg7pLGHwrDPO+T8FWWgbMvYj+V76PhZV6lb1oZBg/AkO/xOSVU5jtJ3Ge/xfMSY6hpFwJzyZFIzfrZ6xuRrHKh4H2HixkSCcH9yPQ9ppaGGKj6B50ZywPjmzCy99WCysRChKNCZYCW5pThsYxtbA085gIzGDWy0BpssFmt8OYL0PMPYyrV3qvL1rXISkW1HMY6E/AUlUGu1EN1k8ESkcf5jPcJxtkoSq2Qj7Tjx7H+mI6xL0SSlsAa2EhbFYrTGYD4BqCK8TbR+cx54lDaSbXSTrMOiUY7zh6OnrhSRFxsQUX/AItaX+ICLUVwmzMg4QMhEc6uzC9uIn9DDxhbwgKWzEKjRJ4Z2axuGrWniObcov75+AKiKAxW2El6TSopQjP9qOraySjoI4nJNCTgTizMI7hcc+amdqtLt9U0ci90pDbmzzvjkLHCXbZAiZnAsky5OqB3ZAPPalvZksBDPlywD9F6kEP5iLpM6KcYJRbGtBUqUd0vB1XnYvr1gPKrceNikb67umbHFNBAY6eeADP/OgHkBKBKJBkfngT5MEPu+PJ91Fn8+5pCuWdgPvR7h1Vb6Hth09i4R3qaMTNP8S+/SH0/PNjcK4j+Cibg8mrwf5dNsy1vIoeF+95iyJQFaNhZzX0giBmRzrRNeT6w7195RaFFRlQ3lhHhKgMEUcXWjvHc579pNzc0HdP3yZwb4CpKGpCWUFjRsddu9G3xFAoW8PWdjKMqhn6kkNJZ6z9Imp2NCA++QYybgukbBpuhklnLYA0Mg3nyltvbl0S/hG0njuPrjEvxErljf/+6O2AWAkF48FI2xu42EEFI2UtdKbxJidfZ0Dznr38p+zg3k3tcc/xnyiUPxxLM42X0PbDr23ZTCM3s7j/QCMRNSzY8CwCEy9i4Pffx0LKb0FSbhyWMWP7kR3QTryJN/rW+ZFJCoVyS3OjM41UNFIoFAqFQqHcBtyoaKTL0xQKhUKhUCiUDaGikUKhUCgUCoWyIVQ0UigUCoVCoVA2hIpGCoVCoVAoFMqGUNFIoVAoFAqFQtkQKhopFAqFQqFQKBtCRSOFQqFQKBQKZUOoaKRQKBQKhUKhbAgVjRQKhUKhUCiUDaGikUKhUCgUCoWyIVQ0UigUCoVCoVA2hL57+hbEYrPDMTmBu0/cz/uk03rxTXjcc/wnCoVCoVAoFPru6duO+uadqG1oTv5tLrBmdGKpOHmdQqFQbncYoQK6fDWEbM7zI7cdrFBD8kpB84qyLlQ03kJwgnF78x38JwqFQqGsB8uKoSvZgTsPHUJzhYF2dtkgNaPyjoPYv78ZhWoR70mhXIMuT98ipApG5/QUXvvtC/j4p/9H8vNqTv32ecxMT/OfMsMNJCXbPoOKfQ8iX68DE3FgYfBnGDr7LAIxhrepQuknf0IajwS85x9AW+ss8atA6cP/ikKNGL5LH0LrpXEYjp9BnfRpnDn5HBKC+1D/hb+BfuTvcPbFF5EQPYTGL3wOwWfvxcAUQ77PQGJ/GGVcvAYjBGEHfCP/iaFzv4A/shQvR5qdnthFZuAf/QUGzz0Df3gdu+uElwor2ofqR/4RRtc3cfFX/4Uok27HMmYY7noK1U3VEOEy+n7wKKZXhbXV6RA3/B/sP9zEf7oG6/4JLv3bdxDk73FT+bIFdu8WuHqvMJajrMwGnUoGQSIE38woBnqHscDX+1RY8gVV2QHsKQWGz5/FcDCDDaQwVt6BuiINqS8uXH3tIqbi6+cdK9Cj7sBumPydOP/2GCKr61+O4V0PTcVh7LLNouX1TnhWxbNZuDzU2CphghNDk/PkedmacLcSTjAaa/ehwSaAe6QH/SPTpF3jLxKyrQf5VXdjZ5GM/3QNNjSMS6e74c0x7bnWv42Ql+zDvrIQrrxyGTPXuRd1xSHsKVEm/2bZBOKRRfhdExjsH4QnnPROwt2fRGNDcW0NtilDGL78JoYW4vxVyrsBujx9G/COzDDqPoX6+z8HbfQ0hk89if72Hkir/gKN99wLEddypBD0DEOz7eDSkkX+IehVV7GwwF8khPxzXEtIujqC1gp5PIiEugDJRXKNCRLMIMTbC4yfRcP7H0Ve5BxGX/s6ifcKxBV/jsbjD0GcEq/A8Bk0PPgo8mNvYvT1r2OgrRWC0q+g6b6PQ5Zql2V4y3CdiXbfV2GRdWHk9C/WCkbZHSh+/49R12CE3zHF+65lq9PBwUbfxvALj+NKiut8/UWktOnZ58sW271bEBvrsbO5DJqoA0OdHegZdCJhqMbO3dXQMBnSKy5ERbEaMUc/xgK8XwqsKB+lO/ejoVAC/0KQ910fLku15fUoEM1jsDuDYMwxvP8ehFBby1Bs1d60HYjIWIMauxQL/ZfQ3j+VJhg5sq0HvvE2tLVcuua6RuGPs4jOL2CRt8mFnOvfFsKSAWE/SUN7axuuDs+ANVaiqakMipTnnKuOUd8k+t56iwyQlCiuL4eaDGMolGWoaLzJEQqFmCHihZs9XHbcQZcbRVl1HBr2DAZOfgtTvS/BeekJdLX0Qlx2P/RJ9XeN+HQXgrY7kS8EpKV7IRttRYD8vUzIN0MC5MQhgYhGqXsUAbUFyXGtmojJhBNhvsPNa/wwVIGT6H7+6WS8M5e/ho7zLRAWP4QC9ZINh6bhIahCv0b3r765dH8tf4+O118Ha3sIFh1vRMg2vGUExs+gcnsBAi3fwKRnbWOovfNvUaQbwejJT6CrZ/3Z2q1OxxIu+IZ+D9fw6WtucgTxFGGRbXhbbfdugGVlsJXaIVnoQ8vlHkw4p+EY60Hb5UEElcUoLkjfC8zNwuoryqEXeDEy4Egrh2XyyptQogpguOUc2qc2lhECdQVqtsnhH+nERAZNmGt4lLWwrAimwgJIFkfRN+pbMxOaSz2IBd2Ym5tNullPAvlFdsh8fWi9MrlmwLkRuda/LYcNwjM7Q9LigHPsKtp6Z8FozDDK+espMKwXw70TiCoKUWjILZ2UdzdUNN7kyOQKmCzWNGcrKkrOPt4IAgFpoGI+RFJWHoJvP4bzP/przEZ4Dx5R+DJc3h3QFxpgKCqHZ6iNePIXCVGfE3G5DlJSm8SaArCubiyKLJAQG6HaBJHfiUWiz1hWipjjJEbfPAlfgv8yIeIaRhRmSPOWPnN2Co0emOuEN8UuNtWJAIgozV/6nG14y7BsIexH/hgK37Pou9iTcVktPvVTtP/sUYxOuHmftWx1Oq7BkP/WJ5d82Uq7XFAfOIlDf/IEjCVfQeMjp3Dg8y9j9wceh0Gbvj9q2c5U9jgaP/k6Djz6EnY9+GfQq1JGIwSWlUBR9ZckrJdx1xdOYfdDfwp9wz/g4Bd/jEJVrjMgKihVDBbdLoRSyj7hc2E+KoBapeJ9eJSlKLfKEZokHfw6+i3mGULrGxcx7InyPuvDsnIU1pZAGRpBz6A3Y/3LJbysIdkkNlSj+a5jOHz33di7swbGlBVXFkbUHjmBg7VGIhau5emy//6qfHLvLFhdHQ7ecwL3HD+OWh2pq7p6HDl+H4695704es+9qDelfJfYi7VFqN11EAfuPo7Dhw+hqcoOpSC9zJIz/8VN2HXgKA4fO4G7ufu7ow5mBW+wKbTIyxMgPOuEL+MTlWM9ILCMBqU7d8COMXRcHoCPDChyJ/d4NwOjqsSdx+7FrlJ1WnmuJhGJInGdNifhccIVJ+WTT7eiUa5BReNNjlKtSi5NrxaOnOP2Nq522RIYvYSw7CjKjzwAtWJpapFJeBENepINSSoMM47ZUS/yKx+FznwFc8MsBKl9u9eJCGOATElEbp4FYV8LIn4L5EQ8yZQGEpkjucTKMGH4ur6Lkd6raR2m3FIJMTuORQ/vARI4VzPjsaQdyzVsXOPHxsnfQiJ4l6yyD28Jad3jKLL44Dj9PXjXafQDfc9ggVO412Gr07ECI4ZAqoRQJF2nsc82vK22yxEB6VwblHBdfAq9519GWPch1J74JOSr08TsgG27DO4L30DvxXOIWT6Cuvc+nGbHbQOou+dByL0vYfDUUxgdz4e1sZG/mitRxGKkHihU6adDxSrIiaaNk3xYhhMzBVUlUMON4aE5JFLKOZWAcxSeVUuf6yG116FUG8XU1X4skLzORC7hZQ2jx7ZiEVz9XbjaP4WIqhj1jaXX8pmdxfR0CGKLHYaUMhcabTCJgnBOukmdJ/frH0d3eys62tow4SMi0jeKzrYW8rkFV9rbMJayZQXyYjQScapjZzDS3YGe4VmICrZj53Zb2vYNoakWTRUGJGb6Sdhv40r3EBYkNtTtqIJ6dX3JFkaWHLCGQiHeYzXZ14Nl8ip3kLJj4J9fhEieXFPZBLnHmyssEabF9SVQBIfQM7R6YMJAJBJBKBRDorKgotyE+NwI1p3QZkMkD8n9SlctPVFuazbbLVD+wHAHX7Jx2ZKY+A66LlyBpOYJ7Pj0q9j7R99FxY4DkGTYV8MIRPANvgmm8j7onOfgCguIH3+RY8GJRehJQySAXG1AaOEyFgNGSMkAVaoyIO6bXncph5UdQ2nzdsSGfgmHn/dMgZW9H9sfPYe9x49zEmdD1guPlR5D2f49SAz8E4ZGltbKdUdfxaFHvgTlZjunFLYiHYzoCOo+/3sc+MJZHHj0d7jj/i9Bv84JxmzzZavtskLigvN3X8NE78uY6XganW++BRjvgn5pH/41pAvE7u8wzi3vtzyJrss9YMz7kZ+yXCavOABF/CwGX3ga0yQ856W/xmD/epJrI0h8jiCE5irUlZiglEogI51neXMFdMwiXHM+3o6gLkGJQQw2LIJ11zEcOnIYu5trYFZsLndYoQWVlUYknD0YmFsSB/raYzh6VyVUW1D/ros4Amd7J8ac03CO96BtYA6MxgIDrwW4R9M9MYVFoREW01J945bmDRYjhIEpTPHZwkS8mJtxwOl0wstNhEZ9mCVhzhA/znlTDk6p7UXQsg70XL6Kccc0HKPdaOufJSKxCJaUWU65RgNRfAbDPaOYmZ3FrGMEV1veQmffDGkzeKNcEZL2ifzDJtY7wJFDPeBhF+cxOzdPCq0C2++8C/Wpicia3OPNFUXRdhSrQ5jo7l8zy8pIi7Dj6HEcOXoPDuxtgik2iPa2iTX7aq9BBo8Jrn7ccItAeRdBReMthPLeh6H91F9ldNy1XGCYIHyXHsOFf/00us48A5ffANPeb+GO9z205gBEstGY+g3G+89houMUGS+TRia1nYlOIxLREdFoI52Al4hGNyLeOGTqAkiUWkSIaMwEK6hC0f1/BSN7Bv2/fxGxTI3X4ovo/Y9Po/X0KdKEXZ/1wuOWBXX7vwyT8G0MnX4pczw3wFakIzbwf6P1l4/x7svoOvsbREx/hLr7PwMFMoiKbPNlq+2yITyKQMp+vZh3GjEYIFm9xzQ8RAYX/N+EsHsMCWghSRGNUoUeCEwgmDIJE3CNZcqRDeGKZb6/BX3OBHQVd2DvoWPYt3s7CvMkYBdGMUE0AQdX/Y3F20i+R+GbG8fwlbfRdmUEfnkh6vc0wiTKLXaWFUJfVQ0z40J/z9SW178NifngT1ntjgWDpDzESJtA8o1j2ieEwW5dOggnMMNkFME7Pblycj8XFHJSiEEfgmTAye3L5hzr9yEMOeQpS88hrw8xoQlldeWwWizI16ogCnuICPUgtMmhwUZkWw9S8Y61oaP1Lbx17iyuuoQwV5chP0exv5l4s4OBgJtBlG9DVVkeopNdGPSk7DfhYaNExF+6gMvEtXcNwCuvQON2GyTv9KCF8q6CisZbEDZybdkl3HURsekR/lPusItdmOv4HnpPfgyXTp0Fij+PwkL+4jKktWPQiYnfPY6hwVneM5UphPxCSNUNxDkQXiAaJDADqbaZCEfyt2/tsjnL2FFw3/9GiX4Ywy88gdkMP2XCwTAxRD29WAxfX8pcP7xK6IuMiA6dhIvVQyzXJZ0w8yReTmxVOthgLxYm3uLdebi6/gld584B+oPQa3mjFLLNl622y4o1fRDnQfJlddaQziqta2MTxJIhecp/JnA1bw3c9McmYVgfxtp/j7NnzuLim2fRNrZIGsEwpgfHsbgijvKh04kRn+tB69VRuBYWsDA3gq7LfVgQmrHNluHkwHVRwWCQIzozhjlIIJaIk074h2p91ymP1NUCbhA5OeUBk0fqMxGTIpMVBsE8HFMZjoxnASMg4WursC85s8W7PWVEMgpALq0Qm+lCR78DUY0dZbVN2LnnIA4eOYKGIi0EmxUzWXwvu3qwFoYNYXrKDVashXoTk42bjfd6METg13P5e6AeeqEX40OzGQ9tIRGC1+2Cx+PG3NQArrSNIGauRblxvXiJ/+ZuifIuhorGW4iE34PAK88g8OzT8D/3fcQcIxDqTGCUuW1UZlkVVGUfhNlewPuQtoE0DuGeV7GQyINCb+B9s2UKYR8gyWuCTORAMMjNIMwQwdgIiSJIrqUPoVki3IxHv4PKwnmMv/hljM2m/qgMBxEunC4gqi5tbx8jJG0YERar+oSNw1tCUv0k9n/2pRVXV3VjG7y3Kh3caU+xrhHqvPSTO7GFKUShh3Rlf3y2+bLVdjmypqPhPEhEXFw5Eo34QUYiSyfzeSRKw9oocoDbnxcP++FdVMO+TY2EZxCDc6kHTwQQCsnz4POmzwqGFuDn9qRJcxWNS0isO3Do8D0rrsG62b1xOZKxPEi9S/7/GuHJCbiRB3OBGgazHgLPJBzrbQvcADbBgvUPo42f2Vp2LW9fxmjK3keGicIz0om2C6dx5tRLeP21M2ifjMFQUQ3LZrfSxWOIk8SJxNc/jbxRPeD2tWrMRbDmp99IIrG055erI5th4/qXG2zChUEuf1sH4U1oUFhqyuqNLgnvAnwkjSrVevVZDBG31zK26mQk5baGisZbiGjrb2CunEbZx1QoPBxC/PJ/INrXRhpn0grnNPsShbLuq6g++GDa0qfAUA6FIIywf/2Tw5lgmAgW/fOQmKog9znA9TNxIhpjmhqoZLOIpHQSnGDNO/ht1FSxcPz2MQxNePkr1+AOmgS9LsBQD01KDRVZ66GEMzmTuUw24QGDmHz5S2h97n+muUF+b+Nm2Op06Pb+M3a896Nph0DE+iLSbF+zyza8rbZLhdU+gOoP/xSNh4+mHWhIQ1oEZcoSpEhrTf5INaf/ciUw1YmY7Ci27T8MhUIPieWDKK0vXzt5liPcreeVVsAoCGK8Z3TVvi4/AgEWsnxd+m9aKvXQilkEgrnWGz8mOi7i8tukY09x/bObFwo5IVJDlaKfRAoFKY8IwqsPQMSmMTUbg7ZgO+wGAeam19+LnCyA6xRCcJEETgRH1LM0s8U5dyBK6hwZjKQ0VQpzJSpLjcklUi6qeMyPWSepK4wcmz5vQvKbG7gqtPkbiqfr1wMWGnstaiqsK0u4yR9716ghYIPJOFbDym2o3X0XdlZb1n8+CNePN1eiCLhdcM/0omvAA5GtHhXGjX++R6Ai9YJhsRha5ySMWAst0cvBwCYeXMq7FqHJbPlf/N9ZEwmH6YmqPxBKtRqlFVXobL0M2xEZlHZRcp5AJGOgrRCDiboQ6u7AYnc3NwROnrQeHuhFwL/+g84wcYRCdliaPgCjWQOW0UJufR9KDn0UmsXn0X/2HMLJNUID8omNauHXmBhN3Ze4DYZdxyGe/jkcU0tiSWA8Tka4hRC4TmG4pzu5z8+y+zCUgiE4z/0GAX7NUdHwbTTeWY1I748w6VZAkV+84sTxaYT53wCK+OTQN30UZns+EqwGiqKPoGzfvZDO/Rj9lzpWZoCyCY8TtTHfBMLedCeyPwyzpg9T7RdWOkeR8RD01koodWVQWvfBYJIj7PZCmF8GhThAGtAlwbCV6eA60nCiBJbG98GgkyIh0ENZ/DGU7ybCzPnvGGi7spLebPNlq+2WUTb+DapqKiAzGbHY/jz8q95UIi36OAryZBCTPBSxcshsD6Jsz3sgm38OAy0tK+El7QxTcLScQXg5jvwjKKo0wnvl51hYXPJLuLsRUt0Fa+NHULjzE7CV6+EeGIbWIsd823PwrvPWnw2RbUP9dhsEziu4Mu4nz8C1cLjnwx+WoaC4GAUaEeKMBMp8O8rrSqGNjqP36jQW+fosVhlhyNNAqVRBmWeCidiH/REIFSooRFEEw1z9YxElHXOICKlUJ9KVwiJfwOQYJ5KyDy8XpPpi2FRCSHQqCOMiyHR2VJbZIAuOoX/EnSYKufsMxhSwF5uhZGcw1Dmx8tymwtkxKjtsJiWE0TiEcnKvSjmYcACRxJJ9mAgqfVEZyT8B4pBAnmdGSW0Dys0sZkZnEeZnOxnyXNVV2qEWxEm9l0KhNsBeVgKdyIOxgWkEM8S/EcnnXWqD3apB1DF2/TetXLceJLCYUKOgqBAmBYMEI4PGXIGqYj3i093omwmm2XMotzWilsQr00gRGpuAl8+PNVwn3lwQ5xeiUBfDzBDJKxJGZN4FVl+CYqsc3nHHSj1N1gMNt20oBrFCDbXOhtKaUuQlptHXc81uGU7UakobUJoXxNjVEXg3+UYiys3HZvXb8veoaLzJSRWN2nIJ6VSuTQlxj7FMJ0yKR+439XzDsaxEI0di/gJcbhGURXfDXHMCRqsJcccv0f/y9zAfXh4hZy8a46r92FZZjvjEzzE2Mkl6jQLo9hyFMtyKqUunV36XLK/5cSIWpBAb98Jc9Z40Jw+chGN66b7ZYCvmHFEiYo7BUvdeGAvyER75CXpf+TcEUhqwbMPLhLz0kTWiUb37+2i4630wVRyF0aQjHYcOmvKjyc8GSRdGB4aSdludjrj7AtwLGqjL3gNL7XHoDWpi9/+h57V/RzDFLtvwttpumVjcBH1ZNRjnrzDa2b50KCqFpBjUXcLgW2GY930KttIyYO5F9L/yfSys1KvsRSPD+BEY+iUmr5zCbD+J8/y/YE5yDCXlSng2KRq5gynG6mYUq3wYaO/BQoZ0JgIzmPUyUJpssNntMObLEHMP4+qVXrhTjvVqS+5Ec3UhzJYCmLRScr9SaM0Fyc9G4TxGZtavfwrjWtF4I+FlIikW1HMY6E/AUlUGu1EN1k+Eb0cf5jOkmw2yUBVbIZ/pR49jfTET4l4JpS2AtbAQNqsVJrMBcA3BFeLto/OY88ShNJPrJP/MOiUY7zh6OnrhSRFxsQUX/AItaX+ICLWRdBvzICED4ZHOLkwvbmI/A0/YG4LCVoxCowTemVksZtDa2dSDuH8W7pCYlIEVVitp05QMfFPd6O5zIrKq7nPEExLoyUCcWRjH8Lgn40xtNvFmS6poDJC4uL3J8+4odJxgl5G6NRNIliFXD+yGfOgLbMm6ZMiXA/4pUg96MBdJnxHlBKPc0oCmSj2i4+246lzctKil3HzcqGik756+yTEVFODoiQfwzI9+ACkRiAJJ5oc3QR78sDuefB8199aYjd49TaG8E3A/2r2j6i20/fBJLLxDHY24+YfYtz+Enn9+DM4b6HApa2HyarB/lw1zLa+ix8V73qIIVMVo2FkNvSCI2ZFOdA25Mh8QoazAigwob6wjQlSGiKMLrZ3ja2YhKbc29N3TtwncG2AqippQVtCY0XHXbvQtMRTK1rC1nQyjaoa+5FDSGWu/iJodDYhPvrH1P4J9m8PNMOmsBZBGpuF05TyXcNOR8I+g9dx5dI15IVYqb/z3R28HxEooGA9G2t7AxQ4qGClroTONNzn5OgOa9+zlP2UH925qj3uO/0Sh/OFYmmm8hLYffm3LZhq5mcX9BxqJqGHBhmcRmHgRA7//PhYyHESgbB6WMWP7kR3QTryJN/o2/aOBFArlJuZGZxqpaKRQKBQKhUK5DbhR0UiXpykUCoVCoVAoG0JFI4VCoVAoFAplQ6hopFAoFAqFQqFsCBWNFAqFQqFQKJQNoaKRQqFQKBQKhbIhVDRSKBQKhUKhUDaEikYKhUKhUCgUyoZQ0UihUCgUCoVC2RAqGikUCoVCoVAoG0JFI4VCoVAoFAplQ6hopFAoFAqFQqFsCH339C2IxWaHY3ICd5+4n/dJp/Xim/C45/hPFAqFQqFQKPTd07cd9c07UdvQnPzbXGDN6MRScfI6hUKhULKDESqgy1dDyOY8j3LbwQo1JK8UNK9uQ6hovIXgBOP25jv4TxQKhUK5UVhWDF3JDtx56BCaKwy0U8wGqRmVdxzE/v3NKFSLeE/K7QBdnr5FSBWMzukpvPbbF/DxT/+P5OfVnPrt85iZnuY/ZYYbIEq2fQYV+x5Evl4HJuLAwuDPMHT2WQRiDG9ThdJP/oQ0Cgl4zz+AttZZ4leB0of/FYUaMXyXPoTWS+MwHD+DOunTOHPyOSQE96H+C38D/cjf4eyLLyIhegiNX/gcgs/ei4EphnyfgcT+MMq4eA1GCMIO+Eb+E0PnfgF/ZClejjQ7PbGLzMA/+gsMnnsG/vA6dtcJLxVWtA/Vj/wjjK5v4uKv/gtRJt2OZcww3PUUqpuqIcJl9P3gUUyvCmur0yFu+D/Yf7iJ/3QN1v0TXPq37yDI3+Om8uU6dhzZpPfdBAspjJV3oK5IQ9LrwtXXLmIqvipPuOdDV4KKim3Qq6QQxMPwzw6jr3cUvhTbm90uWzQVh7HLNouW1zvhWfU8bBbuHjW2SpjgxNDkPKlnWxPuVsIJRmPtPjTYBHCP9KB/ZJq0f/xFApcGhbEcZWU26FQyCBIh+GZGMdA7jIWVdhKw7jyBOkPm9LHuLpy+NIJYlunf6vA45CX7sK8shCuvXMbMdb6nrjiEPSXK5N8sm0A8sgi/awKD/YPwhJPeSZL1T2NDcW0NtilDGL78JoYW4vxVys0MXZ6+DXhHZhh1n0L9/Z+DNnoaw6eeRH97D6RVf4HGe+6FiGsRUgh6hqHZdnBpKSL/EOmkrmJhgb9ICPnnuJaVdMUErRXyeBAJdQGSi+QaEySYQYi3Fxg/i4b3P4q8yDmMvvZ1Eu8ViCv+HI3HH4I4JV6B4TNoePBR5MfexOjrX8dAWysEpV9B030fhyzVLsvwluE6Ce2+r8Ii68LI6V+sFYyyO1D8/h+jrsEIv2OK913LVqeDg42+jeEXHseVFNf5+otIaauzz5cs7bJN77sFVpSP0p370VAogX8hyPuuRaAqQ/OOKujiTox0XUHvyBwEpjrsbC5Oz+eb3O6/FyHU1jIUW7U3bUcjMtagxi7FQv8ltPdPpQlGDrGxnuRpGTRRB4Y6O9Az6ETCUI2du6uhYdLzmfWP4krLJbStuF7MxVjEw2FsRk5tdXjZwpIBZj+Jr721DVeHZ8AaK9HUVAZFSr3ims2obxJ9b72F4aASxfXlUJPhGOXdDxWNNzlCoRAzpDPnZg+XHXfQ5UZRVh2Hhj2DgZPfwlTvS3BeegJdpFESl90PfVL9XSM+3YWg7U7kCwFp6V7IRlsRIH8vE/LNkAA5cUggolHqHkVAbUFyvKomYjLhRDjAfQDyGj8MVeAkup9/OhnvzOWvoeN8C4TFD6FAvWTDoWl4CKrQr9H9q28u3V/L36Pj9dfB2h6CRccbEbINbxmB8TOo3F6AQMs3MOlZ28hp7/xbFOlGMHryE+jqWX+2dqvTsYQLvqHfwzV8+pqbHEE8RdhmG162dtmm991CXnkTSlQBDLecQ/vUIu+7lrzCbVDHxtF1+SrGndNwjHahpdsBNr8I1qWJmCQ3ux1lfVhWBFNhASSLo+gb9a2ZCWVZGWyldkgW+tByuQcTXD6P9aDt8iCCymIUF6zaOx4LwD07g7m52aRzkRZQI4zCOUXK5Tqze+uy1eFlCxuEJxmvA86xq2jrnQWjMcMo56+nwLBeDPdOIKooROE6M6OUdxdUNN7kyOQKmCzWNGcrKkrOPt4IAgFp8GI+RFKGrMG3H8P5H/01ZiO8B48ofBku7w7oCw0wFJXDM9RGPPmLhKjPibhcBympTWJNAVhXNxZFFkiIjVBtgsjvxCLRZywrRcxxEqNvnoQvwX+ZEHENIwozpHlLnzk7hUYPzHXCm2IXm+pEAESU5i99zja8ZVi2EPYjfwyF71n0XezJ2PDGp36K9p89itEJN++zlq1OxzUY8t/65JIv2cabTXpzQX3gJA79yRMwlnwFjY+cwoHPv4zdH3gcBm36vqdlO1PZ42j85Os48OhL2PXgn0GvShmNEFhWAkXVX5KwXsZdXziF3Q/9KfQN/4CDX/wxClW5z2zEPENofeMihj1R3mct3NK+XCEDfAuYT4kiNu8h+SeHjBdlN7tdzpCwxIZqNN91DIfvvht7d9bASKJZhoURtUdO4GCtkYiFaxEv+++vyif3xoLV1eHgPSdwz/HjqNWROq2rx5Hj9+HYe96Lo/fci3pTyneJvVhbhNpdB3Hg7uM4fPgQmqrsUApSEkZIrhAUN2HXgaM4fOwE7ubu7446mBW8wabQIi9PgPCsE76MT54KShWDRbcLoZS2IuFzYT4qgFql4n1YzPVdJKJ9GssTlSwrhMlmhjg8hSlXelo2ZqvDywyjqsSdx+7FrlJ1WnmuJhGJInGdtinhccIVJ+WTT7es3Q5Q0XiTo1SrkkvTq4Uj57i9jatdtgRGLyEsO4ryIw9ArViaWmQSXkSDnmQDkQrDjGN21Iv8ykehM1/B3DALQWrf7nUiwhiSnZUsz4KwrwURvwVyIp5kSgOJzJFcYmWYMHxd38VI79U0wSa3VELMjmPRw3uABM7VzHgsacdyDRbXqLFx8reQCN4lq+zDW0Ja9ziKLD44Tn8PXtLxZiLQ9wwWOIV7HbY6HSswYgikSghF0nUa8WzDyz7ebNKbM4IdsDco4br4FHrPv4yw7kOoPfFJyFenidkB23YZ3Be+gd6L5xCzfAR17304zY7bBlB3z4OQe1/C4KmnMDqeD2tjI381dwLOUXhWLUGuhWRQMv8SfP6RW03eExFEJC8FK0V+s9vlCKPHtmIRXP1duNo/hYiqGPWNpdfKg53F9HQIYosdBi5+HqHRBpMoCOekmzwbJHL/OLrbW9HR1oYJH7kn3yg621rI5xZcaW/DWMrWFsiL0UjEqY6dwUh3B3qGZyEq2I6d221p2zyEplo0VRiQmOknYb+NK91DWJDYULejCuoUu5xgZMmBbSgU4j1WE0WM1BWpQpV+Slisgpx8L06eLw4uzVG/Gx5/OFkeScRWFBhECEyOY4GUSS5sdXiZYIkgLq4vgSI4hJ4h77V4kjAQiUQQCsWQqCyoKDchPjeCdSfm2RDJQ5JP0lVLVJR3JSmPPuVmhjv4ko3LlsTEd9B14QokNU9gx6dfxd4/+i4qdhyAZNU+HQ5GIIJv8E0wlfdB5zwHV1hA/PiLHAtOLEJPGhgB5GoDQguXsRgwQkoGnlKVAXHf9Jq9g8uwsmMobd6O2NAv4fDznimwsvdj+6PnsPf4cU4Kbch64bHSYyjbvweJgX/C0MjSWrnu6Ks49MiXoNxsp5PCVqSDER1B3ed/jwNfOIsDj/4Od9z/JejXOZmYbb7kmn9bgsQF5+++honelzHT8TQ633wLMN4F/eoZMOkCsfs7jHPL+y1PoutyDxjzfuSnLIPJKw5AET+LwReexjQJz3nprzHYvxXdZnawIjua7r4XB7YXXD+fb3K7rBBH4GzvxJhzGs7xHrQNzIHRWGDgtQD3CLsnprAoNMJiWqqX3KynwWKEMDCFKV/SC0zEi7kZB5xOJ7zchG7Uh1kS5gzx45w35SCW2l4ELetAD7fM7uCW2bvR1j9LRGIRLCmznHKNBqL4DIZ7RjEzO4tZxwiutryFzr4Z0rbwRrkiJO0Y+YdNrLdDkNRPRxBCcxXqSkxQSiWQERFV3lwBHbMI1xyf4Awo7HboBF5MT3p5nxtjy8Mr2o5idQgT3f1rZlkZaRF2HD2OI0fvwYG9TTDFBtHeNoHIOm04kc8kD7n6ccM1kHILQEXjLYTy3oeh/dRfZXTctVxgmCB8lx7DhX/9NLrOPAOX3wDT3m/hjvc9tGYjfbIxmPoNxvvPYaLjFBl/k8Yjtf2ITiMS0RHRaCONu5eIRjci3jhk6gJIlFpEiGjMBCuoQtH9fwUjewb9v38x82nAxRfR+x+fRuvpUxtu/l4vPJaVQ7f/yzAJ38bQ6ZdyOnWYDVuRjtjA/43WXz7Guy+j6+xvEDH9Eeru/wwUybmkVWSbLznk35YRHkUg5YxJzMstsxkgWb3HNDxEBhf834SwewwJaCFJEY1ShR4ITCCYMjsYcI1lypF3hugEui+8gUtXHdfPv5vdLhtiPvhTVu1jwSApNzHSJpB845j2CWGwW5cOzAnMMBlF8E5PrpzwzwWFnBR20IcgGZhy+7c5x/p9CEMOecrSc8jrQ0xoQlldOawWC/K1KojCHiJCPQi9Q0MILjnz/S3ocyagq7gDew8dw77d21GYJwG7MIqJed5wFSyrQoE1D/CQvFp/22zWbF14DATcDKJ8G6rK8hCd7MKgJ2X/Cg8bJSL+0gVcJq69awBeeQUat9sg2YLBNeXWh4rGWxA2cm05Jdx1EbHpEf5T7rCLXZjr+B56T34Ml06dBYo/j8JC/uIypPVk0ImJ3z2OocFZ3jOVKYT8QkjVDcQ5EF4gWiUwA6m2mQhH8rdv7bI5y9hRcN//Rol+GMMvPIHZYOaGn2FiiHp6sRi+fpd4/fAqoS8yIjp0Ei5WD7Fcl3TCzJN4ObFV6WCDvViYeIt35+Hq+id0nTsH6A9Cr+WNUsg2X7K121LW9C2cB8mX1VlDOqG0LotNEEuG5Cn/mcDVvDVw0xp/IDjhECWiZnGD7LvZ7bJinXJLXVXgBpuTUx4weaTeEzEpMllhEMzDMZWi/nOAEZDwtVXYl5zZ4t2eMiIZBWnL7LGZLnT0OxDV2FFW24Sdew7i4JEjaCjSQrBZMZPF9xjWh7H23+PsmbO4+OZZtI0tkjsLY3pwHItc5meCyxtlHHMTU9eZncuBLQqPIQK/nsvfA/XQC70YH5pNO2S3QiIEr9sFj8eNuakBXGkbQcxci3LjenET/y1IJuXWgIrGW4iE34PAK88g8OzT8D/3fcQcIxDqTGCUuW1A5kauqrIPwmwv4H3IM08e+nDPq1hI5EGhN/C+2TKFsA+Q5DVBJnIgGORmBmaIYGyERBEk19KH5CwRbsaj30Fl4TzGX/wyxmZTf1SGg/SAnC4gqm5prxYPIyRtExEWq9r6jcNbQlL9JPZ/9qUVV1d1Yxu3tyod3ClOsa4R6rz0kzuxhSlEoYd0eb991vmSW/5tOWs6EM6D3BB3TzkSjfhBRiJLJ/N5JErD2ii2FP5eueXLtMxakrDXfG52uxzhvpzGksfq8MKTE3AjD+YCNQxmPQSeSTjW2xa4AWyCBesfRhs/s7XsWt6+jNGUvY8ME4VnpBNtF07jzKmX8PprZ9A+GYOhohqWzW6li8cQJ4kTia//Bi1uj2E87Id3UQ37NjUSnkEMzmU+SMUVh8FmhSw2gynn+oetsmUrw2MTLgxy+ds6CG9Cg8JSU1ZvdEl4F+BjxVCpMhyfTiKGiNvjGVt1gpLyroSKxluIaOtvYK6cRtnHVCg8HEL88n8g2tdGGl3SuuY0+xKFsu6rqD74YNrSp8BQDoUgjLA/t5O0DBPBon8eElMV5D4HuP4jTkRjTFMDlWwWkZTGnxOseQe/jZoqFo7fPoahibV7dLiDJkGvi7SW9dCk1FCRtR5KOJMzmctkEx4wiMmXv4TW5/5nmhvk9zZuhq1Oh27vP2PHez+adghErC8izfE1u2zDyyXeXGG1D6D6wz9F4+GjaQcV0pAWQZmytCjSWpM/os3pv1wJTHUiJjuKbfsPQ6HQQ2L5IErryzcvjLKAYVgsBkktVmuRlyKkRHn5JP8WEeKX3m92u5wRqaFK0U8ihYKUWwTh1UuisWlMzcagLdgOu0GAuen19ywnC+o6hRVcJIETwRH1LM1scc4diJI0ksFNSpOmMFeistSYXCLloorH/Jh1kjrFyCFPHVHkhD85wFVo8zcUT9zlvNIKGAVBjPeMrj/jJ7SggKjY8PQ4XNdpklm5DbW778LOasv6zxFHluFlRxQBtwvumV50DXggstWjwnh9wcwhUJF6wdW50Dpr42IttES4BwObeMAptxxCk9nyv/i/syYSDtOTUn8glGo1Siuq0Nl6GbYjMijtouT4XyRjoK0Qg4m6EOruwGJ3NxkSJpInrYcHehHwr/8AM0wcoZAdlqYPwGjWgGW0kFvfh5JDH4Vm8Xn0nz2HcHKN0IB8YqNa+DUmRlP3JW6DYddxiKd/DsfUklgSGI+TkWshBK5TGO7pTu7zs+w+DKVgCM5zv0GAX3NUNHwbjXdWI9L7I0y6FVDkF684cXwaYf43gCI+OfRNH4XZno8Eq4Gi6CMo23cvpHM/Rv+ljpV9g9mEx4namG8CYW+6E9kfhlnTh6n2Cyudnsh4CHprJZS6Miit+2AwyRF2eyHML4NCHCAN45LQ3Mp0cB1kOFECS+P7YNBJkRDooSz+GMp3E2Hm/HcMtF1ZSW+2+ZKtXbbpXUbZ+DeoqqmAzGTEYvvz8K96+4i06OMoyJNBTMIUsXLIbA+ibM97IJt/DgMtLSvxJu0MU3C0nEGY90P+ERRVGuG98nMsLC75JdzdCKnugrXxIyjc+QnYyvVwDwxDa5Fjvu05eHN8c41YZYQhTwOlUgVlngkmjYgMkiIQKlRQiKII8sv44UUhDNtKUKCTEMEghoII+KpKG6T+AfQMza+k42a3yxapvhg2lRASnQrCuAgynR2VZTbIgmPoH3GniUJOtAZjCtiLzVCyMxjqnFh5vlPh7BiVHTaTEsJoHEI5yXOlHEw4gEiCTwcRbfqiMhSQ0U0cEsjzzCipbUC5mcXM6CzC/GwnQ+pjXaUdakGcPB9SKNQG2MtKoBN5MDYwjWCG+Dci2S5IbbBbNYg6xlbe8JIR2TbUb7dB4LyCK+N+0mZmtpVYa1BjBqZIe+y+zgkd5bZG1JJ4ZRopQmMT8PL5sZpsw9sIcX4hCnUxzAyRvCL3Hpl3gdWXoNgqh3fcgUU+/5L1QMNtL4pBrFBDrbOhtKYUeYlp9PVcs1uG07ua0gaU5gUxdnUE3k28jYjyh2Wz+m35e1Q03uSkikZtuYR0etemjrjHU6YTJsUj99t7vuFYVqKRIzF/AS63CMqiu2GuOQGj1YS445fof/l7mA8vj3yzF41x1X5sqyxHfOLnGBuZJL1BAXR7jkIZbsXUpdMrv3OW1/w4EQtSiI17Ya56T5qTB07CMb1032ywFXOOKBE7x2Cpey+MBfkIj/wEva/8GwIpDVO24WVCXvrIGtGo3v19NNz1PpgqjsJo0pGORQdN+dHkZ4OkC6MDQ0m7rU5H3H0B7gUN1GXvgaX2OPQGNbH7/9Dz2r8jmGKXbXjZ2mWb3mVicRP0ZdVgnL/CaGf70qGoFJJiUHcJg2+FYd73KdhKy4C5F9H/yvexsFKvsheNDONHYOiXmLxyCrP9JM7z/4I5yTGUlCvh2YRo1JbciebqQpgtBTBppSR8KbTmguRno3AeIzN8uUU8mJ2PQ2mwosBmgylfgvDsILo6h9ME0s1uly1JsaCew0B/ApaqMtiNarD+cfR29GE+pb4swwZZqIqtkM/0o8exvogKca+O0hbAWlgIm9UKk9kAuIbgCvH20XnMeUg6zOS63Q6zTgnGO46ejl54UkRcbMEFv0BL2ikiQm2k/Ix5kJAB80hnF6YXNz8FF/aGoLAVo9AogXdmNuPeUO43Eo3VzShW+TDQ3oOFDPnBwf0YuL2mFobYKLoH3dcV7vGEBHoyYGcWxjE87sk4U5tLeBuRKhoDJBxur/O8OwodJ9hlC5icCSTLkKsHdkM+9AW25DNh4H7KwD9F6kEP5iLpM6KcYJRbGtBUqUd0vB1XnYvr1gPKzcONikb67umbHFNBAY6eeADP/OgHkBKBKJBkfigT5IEOu+PJ91Fn8+5pCuWdgPvR7h1Vb6Hth09i4R3qQMTNP8S+/SH0/PNjcK7TgVPeWZi8GuzfZcNcy6vocfGetygCVTEadlZDLwhidqQTXUOuzAdEKCuwIgPKG+uIEJUh4uhCa+f4mllIys0Jfff0bQL3BpiKoiaUFTRmdNy1G31LDIWyNWxt58GomqEvOZR0xtovomZHA+KTb2TxI92UdwJuhklnLYA0Mg3nFr2d5L+ThH8ErefOo2vMC7FSeeO/d3k7IFZCwXgw0vYGLnZQwXg7QWcab3LydQY079nLf8oO7t3UHvcc/4lC+cOxNNN4CW0//NqWzTRyM4v7DzQSscKCDc8iMPEiBn7/fSxs9sAH5YZgGTO2H9kB7cSbeKNvnR8rpFAoNyU3OtNIRSOFQqFQKBTKbcCNika6PE2hUCgUCoVC2RAqGikUCoVCoVAoG0JFI4VCoVAoFAplQ6hopFAoFAqFQqFsCBWNFAqFQqFQKJQNoaKRQqFQKBQKhbIhVDRSKBQKhUKhUDaEikYKhUKhUCgUyoZQ0UihUCgUCoVC2RAqGikUCoVCoVAoG0JFI4VCoVAoFAplQ+i7p29BLDY7HJMTuPvE/bxPOq0X34THPcd/olAoFAqFQqHvnr7tqG/eidqG5uTf5gJrRieWipPXKRQK5XaHESqgy1dDyOY8P3LbwQo1JK8UNK8o60JF4y0EJxi3N9/Bf6JQKBTKerCsGLqSHbjz0CE0VxhoZ5cNUjMq7ziI/fubUagW8Z4UyjXo8vQtQqpgdE5P4bXfvoCPf/p/JD+v5tRvn8fM9DT/KTPcQFKy7TOo2Pcg8vU6MBEHFgZ/hqGzzyIQY3ibKpR+8iek8UjAe/4BtLXOEr8KlD78ryjUiOG79CG0XhqH4fgZ1EmfxpmTzyEhuA/1X/gb6Ef+DmdffBEJ0UNo/MLnEHz2XgxMMeT7DCT2h1HGxWswQhB2wDfynxg69wv4I0vxcqTZ6YldZAb+0V9g8Nwz8IfXsbtOeKmwon2ofuQfYXR9Exd/9V+IMul2LGOG4a6nUN1UDREuo+8Hj2J6VVi5xJtNeNrDv0Vzg57/dA3W919o+dFT8PH3uKl82QK7dwtcvVcYy1FWZoNOJYMgEYJvZhQDvcNYWKn3gHXnCdQZMqefdXfh9KURxFbXG4EedQd2w+TvxPm3xxBZdX2Z69nlV92NnUUy/tM12NAwLp3uhnedMNdDU3EYu2yzaHm9E54cv7seXP5obJUwwYmhyXlSv7cm3K2EE4zG2n1osAngHulB/8g0adf4i4Rs6gGHuHAPDtVkeC79A7jwRi8COaY92e7qSlBRsQ16lRSCWAgLM8MY6BuDP5F7PspL9mFfWQhXXrmMmevci7riEPaUKJN/s2wC8cgi/K4JDPYPwhNOeidJ3p/GhuLaGmxThjB8+U0MLcT5q5R3A3R5+jbgHZlh1H0K9fd/DtroaQyfehL97T2QVv0FGu+5FyKu5Ugh6BmGZtvBpSWL/EOksbuKhQX+IiHkn+NaYEi5D1or5PEgEuoCJBfJNSZIMIMQby8wfhYN738UeZFzGH3t6yTeKxBX/Dkajz8EcUq8AsNn0PDgo8iPvYnR17+OgbZWCEq/gqb7Pg5Zql2W4S3DdSbafV+FRdaFkdO/WCsYZXeg+P0/Rl2DEX7HFO+7lmzjzTa8QMff4soLj6+4jlPPk06ORdTZjRBvw5F1vmyx3bsFsbEeO5vLoIk6MNTZgZ5BJxKGauzcXQ0Nk55e1j+KKy2X0LbiejFHyiQeDmN1N8pllba8HgWieQx2X0cwbmDnG29LiY+4rlH446QezC9gkbf570cItbUMxVbtTduBiIw1qLFLsdB/Ce39U2mCkSOnehCbw2BqmRDXfnUi7bnMFoG6DM07q6CLOzDcfQW9o25ICuqxo7EQknf4eWPJgLCfu/fWNlwdngFrrERTUxkUKfFy1THqm0TfW29hOKhEcX051Hhn74tya0FF402OUCjEDBEb3OzhsuMOutwoyqrj0LBnMHDyW5jqfQnOS0+gi3SK4rL7oU+qv2vEp7sQtN2JfCEgLd0L2WgrAuTvZUK+GRIgJw4JRDRK3aMIqC1IjmvVREwmnAgHuA9AXuOHoQqcRPfzTyfjnbn8NXScb4Gw+CEUqJdsODQND0EV+jW6f/XNpftr+Xt0vP46WNtDsOh4I0K24S0jMH4GldsLEGj5BiY9axtD7Z1/iyLdCEZPfgJdPevP1mYbb7bhxdwX4Bo+nXRzk2HkN98L6ey/oOPlF9OEbbb5stV27wZYVgZbqR2ShT60XO7BhHMajrEetF0eRFBZjOKCVXuBYwG4Z2cwNzebdC5SozXCKJxTjjWzawJ1BWq2yeEf6cREkPfMwEZ2saB7Jb5ZTwL5RXbIfH1ovTK5ZoBDyQzLimAqLIBkcRR9o741ZZVzPUAYvpR6kHSeIOKbKI/8bSVQh8fIYITE6yDxjnaidcAFkaEIVjlv9E7BBuFJpsMB59hVtPXOgtGYYcwQL8N6Mdw7gaiiEIXrzLhTbk+oaLzJkckVMFmsac5WVJScfbwRBALSMMZ8iKRMmQTffgznf/TXmI3wHjyi8GW4vDugLzTAUFQOz1Ab8eQvEqI+J+JyHaSkNok1BWBd3VgUWSAhNkK1CSK/E4tEn7GsFDHHSYy+eRK+BP9lQsQ1jCjMkOYtfebsFBo9MNcJb4pdbKoTARBRmr/0OdvwlmHZQtiP/DEUvmfRd7En47JafOqnaP/ZoxidcPM+a8kl3mzCS4UV1KL4wX8gqXweXSd/AH/82j3mki9baZcL6gMncehPnoCx5CtofOQUDnz+Zez+wOMwaNP3Ry3bmcoeR+MnX8eBR1/Crgf/DHpVymiEwLISKKr+koT1Mu76winsfuhPoW/4Bxz84o9RqMp1BkQFpYrBotuFUErZJ3wuzEcFUKtUvA+Lub6LaOmexvIEFcsKYbKZIQ5PYcqVHi/LylFYWwJlaAQ9g951l2uzteNgGQ1Kd+6AHWPouDwAH7u+7YaQ2xUbqtF81zEcvvtu7N1ZA2PKCjgLI2qPnMDBWiMRC9fStuy/vyqf3DsLVleHg/ecwD3Hj6NWx4DR1ePI8ftw7D3vxdF77kW9KeW7xF6sLULtroM4cPdxHD58CE1VdigFq/NODG1xE3YdOIrDx07gbu7+7qiDWcEbbAot8vIECM864UOmfMu2HixzA3mfArcVJLYwhuH+ibTnLeLzkXZDBukWiUZGVYk7j92LXaXqtPJcTSISRYKkbb3UJTxOuOKkfPLpVjTKNahovMlRqlXJpenVwpFz3N7G1S5bAqOXEJYdRfmRB6BWLE0tMgkvokFPsiFJhWHGMTvqRX7lo9CZr2BumIUgtW/3OhFhDJApicjNsyDsa0HEb4GciCeZ0kAic5CxOhcOGbF3fRcjvVfTOky5pRJidhyLHt4DJHCuZsZjSTuWa9i4xo+Nk7+FRPAuWWUf3hLSusdRZPHBcfp78K7TCQf6nsECp3CvQy7xZhNeKtoDT6HYIoCflKVQs1q1ZZcvW2+XIwIidhqUcF18Cr3nX0ZY9yHUnvgk5Ks7MGYHbNtlcF/4BnovnkPM8hHUvffhNDtuG0DdPQ9C7n0Jg6eewuh4PqyNjfzVXIkiRlSgVKFKPx0qVkFONG2c5AMHQ/Ii6nfD4w9fK1+xFQUGEQKT41hY9XxI7XUo1UYxdbV/zbVUsrXjyKvcQWwZ+OcXIZIn5/A3D6PHtmIRXP1duNo/hYiqGPWNpdfymZ3F9HQIYosdhpQyFxptMImCcE66k3kC/zi621vR0daGCR8Rkb5RdLa1kM8tuNLehrGULSuQF6ORiFMdO4OR7g70DM9CVLAdO7fb0rZvCE21aKowIDHTT8J+G1e6h7AgsaFuRxXUq+tLtjCy5IA1FFpvATm7erACSbtAJIJQwD8fm4RhWHgn+zDkSB8wyLVakidBLF5nhjpbWCKIi+tLoAgOoWdo9cCEgYhLh1AMicqCinIT4nMjmFpv3wMbInlI8km6aumJcluz2W6B8geGO/iSjcuWxMR30HXhCiQ1T2DHp1/F3j/6Lip2HIBk1X4eDkYggm/wTTCV90HnPAdXWED8+IscC04sQk8aIgHkagNCC5exGDBCSgaoUpUBcd/0uktrrOwYSpu3Izb0Szj8vGcKrOz92P7oOew9fpyTOBuyXnis9BjK9u9BYuCfMDSytFauO/oqDj3yJShvoCNYZqN0ZAvr7cDcSCdg/wzqPvrvqK2y8FfSyTZfttouKyQuOH/3NUz0voyZjqfR+eZbgPEu6Jf24V9DukDs/g7j3PJ+y5PoutwDxrwf+SkzLvKKA1DEz2LwhacxTcJzXvprDPZvJLnWg8TnCEJorkJdiQlKqQQy0nmWN1dAxyzCNefj7daisNuhE3gxPenlfZZghRZUVhqRcPZgYG5JbOhrj+HoXZVQpdSrbO2WYRfnMTs3T4wqsP3Ou1BvWXs4JmvEETjbOzHmnIZzvAdtA3NgNBYYeC3APZruiSksCo2wmJZmhLlZMYPFCGFgClN8tjARL+ZmHHA6nfBGiUfUh1kS5gzx45w35eCU2l4ELetAz+WrGE8uw3ajrX+WiMQipCZFrtFAFJ/BcM8oZmZnMesYwdWWt9DZN0PaDN4oV4SkfSL/sIn1DnDkVg8YYQEajh7HkWMncOToUdzZXAnDDRRHKqyIxFucj9jMKKY2s0lyFYqi7ShWhzDR3b9mlpWRFmEHl46j9+DA3iaYYoNob5tYd/8tkc8kD7n6ccMtAuVdBBWNtxDKex+G9lN/ldFx13KBYYLwXXoMF/710+g68wxcfgNMe7+FO9730JoDEMlGY+o3GO8/h4mOU2ScThqZ1HYmOo1IREdEo410Al4iGt2IeOOQqQsgUWoRIaIxE6ygCkX3/xWM7Bn0//7FNadRkyy+iN7/+DRaT59ac/hgNeuFxy0L6vZ/GSbh2xg6/VLmeG6ArNKRJb7W/x+6Xvi/0PKTP0bvuBTGA39COt8MojbbfNlqu2wIjyKQMmsS83LLvAZIVu8xDQ+RwQX/NyHsHkMCWkhSRKNUoQcCEwimTP4EXGPYjMznimW+vwV9zgR0FXdg76Fj2Ld7OwrzJGAXRjFBNFomWFaFAmse4BnHdMqsDLdkra+qhplxob9nat1yz9YuFe9YGzpa38Jb587iqksIc3UZ8jc7uIn54OdEHk8sGCTlIUbaBJKPpM0nhMFuXToIJzDDZBTBOz2J4Cbqs0JOCjHoQ5AMOLl92Zxj/T6EIYc8Zek55PUhJjShrK4cVosF+VoVRGEPEaEehDY5NNiIXOpBzNmNy5cu8O4iOnonEdaUoaG5/IYHmyyjRsmO7TDDiZ6eyRtoN/iZUPk2VJXlITrZhUFPyvo3DxslIp5PS3vXALzyCjRut73jB3Ao7y6oaLwFYSPXhqThrouITY/wn3KHXezCXMf30HvyY7h06ixQ/HkUFvIXlyGNGYNOTPzucQwNzvKeqUwh5BdCqm4gzoHwAtEggRlItc1EOJK/fWuXzVnGjoL7/jdK9MMYfuEJzAYzN0uQXdIAAD4kSURBVJgME0PU04vF8PWlzPXDq4S+yIjo0Em4WD3Ecl3SCdO32W2KbNORKww7BWdPK1jSsGsyHOjJNl+22i4r1vRBnAfJl9VZQzqrtK6NTRBLhuQp/5nA1bw1cNMfm4RhfRhr/z3OnjmLi2+eRdvYImkEw5geHMfiep12HiljZRxzE1OrZmVUMBjkiM6MYQ4SiCXipBOuaVWztVsLw4YwPeUGK9ZCvdnZrXXKI3W1gBtETk55wHBpJWJSZLLCIJiHYypF1ecAwy3laquwLzmzxbs9ZUQyCkAurRCb6UJHvwNRjR1ltU3YuecgDh45goYiLQSbFTNZfC/besBGfPB43LxzYW6ylwjHGbAqC0iRbhqW5IS16Q6UqfwYvNyKmXV+HiwbGCLw67n8PVAPvdCL8aHZzId0EiF43a5kWuamBnClbQQxcy3KjevFTfw3f1uUdylUNN5CJPweBF55BoFnn4b/ue8j5hiBUGcCo8xtozI3c6Iq+yDM9gLeh7QNpHEI97yKhUQeFHoD75stUwj7AEleE2QiB4JBbgZhhgjGRkgUQXItfQqHJcLNePQ7qCycx/iLX8bYbMoPhSUhwoXTBUTVpe0hYoSkDSPCYlWfsHF4S0iqn8T+z7604uqqbmyDd7bxbgTL5kFd9XFY7OlL0YlYmHQuUnBnlpbINl+22i5H1nQ0nAeJiIsrR6IRP8hIZOlkPo9EaVgbRQ5w+/PiYT+8i2rYt6mR8AxicC5lKi4FLg8MNitksRlMOTPbSKw7cOjwPSuuwZp5D+JGdtyhEI25CNb89D1kicTSHlPhZlcJM5YHiS/5/2uEJyfgRh7MBWoYzHoIPJNwbHLJlE2wYP3DaFuZpVtyLW9fxmjK3keGicIz0om2C6dx5tRLeP21M2ifjMFQUQ3LZrfSxWOIk8SJxKtPQaezUT3gyl6s0EIjTw8nthhAlNRI6SZFPHe4y1S3GzW6KEZbL2HEv9kHbQk24cIgl7+tg/AmNCgsNWX1RpeEdwE+UudUqvXUrxgibo9nbNXJSMptDRWNtxDR1t/AXDmNso+pUHg4hPjl/0C0r400zqQVzmn2JQpl3VdRffBBKFK6DoGhHApBGGF/did9l2GYCBb985CYqiD3OZK/XxYnojGmqYFKNotISifBCda8g99GTRULx28fw9BE+h4xDu6gSdDrIr11PTQpNVRkrYcSzuRM5jLZhAcMYvLlL6H1uf+Z5gb5vY2bIbt4syUOde2XUbXv+MpSEfeP0lwGQWISQV5zZ5svW22XCqt9ANUf/ikaDx9NO9CQhrQIypQlSJHWChFc4PRfrgSmOhGTHcW2/YehUOghsXwQpfXlawRPrnC3nldaAaMgiPGe0fX3dQktKCDqJTw9DteaR8yPiY6LuPw26bBTXP/sanGZrR0Ljb0WNRXWlHrAQqVRQ8AGk4OxTSFSQ5Wie0QKBSmPCMKrD0DEpjE1G4O2YDvsBgHmptffi5wsgOsUQnCRBE4ER9SzNLPFOXcgSuocGYyk5KPCXInKUmMyvVxU8Zgfs05SVxg5Nn/+x5/MK4U2f0PxtFE90Ffsxa6morTDWWKVikjGEMIZBDUrt6F2913YWW3J+HxwWxV0lbtRT8brU+1vYcCz6tDNpogi4HbBPdOLrgEPRLZ6VBivL5g5BCpSLxgWi6F1TsKItdAS4R4M3MAmbcq7DqHJbPlf/N9ZEwmH6YmqPxBKtRqlFVXobL0M2xEZlHZRcp5AJGOgrRCDiboQ6u7AYnc3NyWRPGk9PNCLgH/9B51h4giF7LA0fQBGswYso4Xc+j6UHPooNIvPo//sOYSTa4QG5BMb1cKvMTGaui9xGwy7jkM8/XM4ppbEksB4nIxwCyFwncJwT3dyn59l92EoBUNwnvsNAvyao6Lh22i8sxqR3h9h0q2AIr94xYnj0wjzvwEU8cmhb/oozPZ8JFgNFEUfQdm+eyGd+zH6L3Ws7P/JJjxO1MZ8Ewh7053I/jDMmj7SeF9Y6RxFxkPQWyuh1JVBad0Hg0mOsNsLYX4ZFOIAaUCXhGa26cgmPO7+QvEKUh7vgyFPjLjQBE3lZ1GxoxmJ3m9jcHCUlNHS/WWbL1ttt4yy8W9QVVMBmcmIxfbn034SiENa9HEU5MkgJmkWsXLIbA+ibM97IJt/DgMtLSvhJe0MU3C0nEF4OY78IyiqNMJ75edYWFzyS7i7EVLdBWvjR1C48xOwlevhHhiG1iLHfNtz8G52WU+2DfXbbRA4r+DKuH8lf1cjsdagxkw6ePJ8uVedzOBOw0ZJhxsiAinViXSlsMgXMDnGiR8mB7sEFhNqFBQVwqRgkGBk0JgrUFWsR3y6G30zwXXvcz2k+mLYVEJIdCoI4yLIdHZUltkgC46hf8SdJgq5+wzGFLAXm6FkZzDUObHy3KbC2TEqO2wmJYTROIRyFZRKOZhwABH+rSZhItr0RWUoIKOROJFY8jwzSmobUG5mMTM6izA/28mQ56Cu0g61II6EQAqF2gB7WQl0Ig/GBqYRzBD/RiSfd6kNdqsGUcdY2hte1nCdesD9Geb2s26zwagk6WAkUBmLUFVmhdg7hN7R+bXPx7ZG1JJ4ZRopQmPcT+ukX1ds240d5VoyCOnHREBIBkLKFSdOLCKco4YU5xeiUBfDzBDJK3IvkXkXWH0Jiq1yeMcdWOTzL1kPNNy2oRjECjXUOhtKa0qRl5hGX881u2U4vaspbUBpXhBjV0fgXfWcU25dNqvflr9HReNNTqpo1JZLyCj32pQQ9xjLdMKkeOR+U883HMtKNHIk5i/A5RZBWXQ3zDUnYLSaEHf8Ev0vfw/z4eURcvaiMa7aj22V5YhP/BxjI5OktS2Abs9RKMOtmLp0euX30PKaHydiQQqxcS/MVe9Jc/LASTiml+6bDbZizhElIuYYLHXvhbEgH+GRn6D3lX9DIKUByza8TMhLH1kjGtW7v4+Gu94HU8VRGE060nHooCk/mvxskHRhdGAoaZdtvNmGF3edh8evI2V8HAU1R5HH/dxK9z/i6tnXEElZX8w2X7babplY3AR9WTUY568w2tm+dCgqhaQY1F3C4FthmPd9CrbSMmDuRfS/8n0srNSr7EUjw/gRGPolJq+cwmw/ifP8v2BOcgwl5Up4NikaudkeY3UzilU+DLT3YGGdDpH7EWh7TS0MsVF0D7rXCIT1UBjTxeB6ZLKL+2fhDomhNVthtZJnSMnAN9WN7j5nWj3IlqRYUM9hoD8BS1UZ7EY1WP84ejv6MJ8h3WyQharYCvlMP3oc64vpEPdKKG0BrIWFsFmtMJkNgGsIrhBvH53HnCcOpZlct9th1inBeMfR09ELT4qIiy244BdoSftDRKitEGZjHiRkIDzS2YXpxU3sZ+AJe0NQ2IpRaJTAOzOLxaUxXBrZ1IO4fw6ugIiId648rDCopQjP9qOraySjoI4nJNCTgTizMI7hcc+amdr8bbWwakSQaEywFNjSnDI0jqmF3FRjqmjkXmnI7U2ed0eh4wS7jNStmUCyDLl6YDfkQ0/iMVsKYOB+osA/RepBD+Yi6TOinGCUWxrQVKlHdLwdV52LOQ9WKDcvNyoa6bunb3JMBQU4euIBPPOjH0BKBKJAkvnhTZAHP+yOJ99Hnc27pymUdwLuR7t3VL2Fth8+iYV3qKMRN/8Q+/aH0PPPj8G5juCjbA4mrwb7d9kw1/Iqely85y2KQFWMhp3V0AuCmB3pRNeQa1NvcbmdYEUGlDfWESEqQ8TRhdbO8TWzkJRbG/ru6dsE7g0wFUVNKCtozOi4azf6lhgKZWvY2k6GUTVDX3Io6Yy1X0TNjgbEJ9/AlmwHo6zAzTDprAWQRqbhXPXWm1uRhH8ErefOo2vMC7FSeeO/P3o7IFZCwXgw0vYGLnZQwUhZC51pvMnJ1xnQvGcv/yk7uHdTe9xz/CcK5Q/H0kzjJbT98GtbNtPIzSzuP9BIRA0LNjyLwMSLGPj997Gw2YMhlIywjBnbj+yAduJNvNG3zo9WUiiUW5obnWmkopFCoVAoFArlNuBGRSNdnqZQKBQKhUKhbAgVjRQKhUKhUCiUDaGikUKhUCgUCoWyIVQ0UigUCoVCoVA2hIpGCoVCoVAoFMqGUNFIoVAoFAqFQtkQKhopFAqFQqFQKBtCRSOFQqFQKBQKZUOoaKRQKBQKhUKhbAgVjRQKhUKhUCiUDaGikUKhUCgUCoWyIfTd07cgFpsdjskJ3H3ift4nndaLb8LjnuM/USgUCoVCodB3T9921DfvRG1Dc/Jvc4E1oxNLxcnrFAqFQskORqiALl8NIZvzPAplHVihhuSpgubpuwgqGm8hOMG4vfkO/hOFQqFQbhSWFUNXsgN3HjqE5goD7RS3EqkZlXccxP79zShUi3hPyq0MXZ6+RUgVjM7pKbz22xfw8U//j+Tn1Zz67fOYmZ7mP2WGG/hJtn0GFfseRL5eBybiwMLgzzB09lkEYgxvU4XST/6EPOwJeM8/gLbWWeJXgdKH/xWFGjF8lz6E1kvjMBw/gzrp0zhz8jkkBPeh/gt/A/3I3+Hsiy8iIXoIjV/4HILP3ouBKYZ8n4HE/jDKuHgNRgjCDvhG/hND534Bf2QpXo40Oz2xi8zAP/oLDJ57Bv7wOnbXCS8VVrQP1Y/8I4yub+Lir/4LUSbdjmXMMNz1FKqbqiHCZfT94FFMrworl3izCU97+LdobtDzn67B+v4LLT96Cj7+HjeVL9ex48jm/t5NsJDCWHkH6oo0JL0uXH3tIqbiq/KEez50Jaio2Aa9SgpBPAz/7DD6ekfhS7FdYxcLYWFmGAN9Y/AnMuchK9Cj7sBumPydOP/2GCIp9Y8LT2ooQ2V5IQlPBia+CN/sGAZ6h7DAP5cc4sI9OFSTob74B3DhjV4EVtXpjdBUHMYu2yxaXu+EJ8fvrgeXFo2tEiY4MTQ5T+rZ1oS7lXCC0Vi7Dw02AdwjPegfmSbtH3+R5x2tL+vY5UI295ct8pJ92FcWwpVXLmPmOuWlrjiEPSXK5N8sm0A8sgi/awKD/YPwhJPeSZLp1dhQXFuDbcoQhi+/iaGFOH+V8t8BXZ6+DXhHZhh1n0L9/Z+DNnoaw6eeRH97D6RVf4HGe+6FiHvSUwh6hqHZdnBpiSH/EGnsrmJhgb9ICPnnAIWRNF0ErRXyeBAJdQGSi+QaEySYQYi3Fxg/i4b3P4q8yDmMvvZ1Eu8ViCv+HI3HH4I4JV6B4TNoePBR5MfexOjrX8dAWysEpV9B030fhyzVLsvwluE6Ce2+r8Ii68LI6V+sFYyyO1D8/h+jrsEIv2OK911LtvFmG16g429x5YXHV1zHqedJ58Ui6uxGiLfhyDpfsrTL9v7eLbCifJTu3I+GQgn8C0Hedy0CVRmad1RBF3dipOsKekfmIDDVYWdzcXo+q4ndTs7OgeFuYjfqhqSgHjsaCyHJWP/II1JejwLRPAa70wUjhyCvisRRgTwS3lBXO3qGSbzGanIvpZCvCo+NzWGw5RLaUlz71Ym0+vLfixBqaxmKrdqbtqMRGWtQY5dioZ/kXf/UWsG41fUlS7tsyfb+3glYMhDt5+pcaxuuDs+ANVaiqakMipR0cNU76ptE31tvYTioRHF9OdRE5lJuXahovMkRCoWYIZ05N3u47LiDLjeKsuo4NOwZDJz8FqZ6X4Lz0hPoaumFuOx+6JPq7xrx6S4EbXciXwhIS/dCNtqKAPl7mZBvhgTIiUMCEY1S9ygCaguS41A1EZMJJ8IB7gOQ1/hhqAIn0f3808l4Zy5/DR3nWyAsfggF6iUbDk3DQ1CFfo3uX31z6f5a/h4dr78O1vYQLDreiJBteMsIjJ9B5fYCBFq+gUnP2sZLe+ffokg3gtGTn0BXz/qztdnGm214MfcFuIZPJ93cZBj5zfdCOvsv6Hj5xTRhm22+ZGuX7f29W8grb0KJKoDhlnNon1rkfdeSV7gN6tg4ui5fxbhzGo7RLrR0O8DmF8G6NMGSJH9bCdThMVxp6cGEg7PrROuACyIDsZPzRikI1BWo2SaHf6QTExn6eE2BFQoiGHu4eJPhdaG1fxYCrR2WlHiXCMM3O4O5udlrzhNE/DozRJRrsKwIpsICSBZH0TfqyzgTutX1JVu7bMn2/t4R2CA8yfrngHPsKtp6Z8FozDBmqPcM68Vw7wSiikIUGmj9vJWhovEmRyZXwGSxpjlbUVFy9vFGEAjERKn4EElZKQi+/RjO/+ivMRvhPXhE4ctweXdAX2iAoagcnqE24slfJER9TsTlOkhJbRJrCsC6urEoskBCbIRqE0R+JxaJPmNZKWKOkxh98yR8Cf7LhIhrGFGYIc1b+szZKTR6YK4T3hS72FQnAiCiNH/pc7bhLcOyhbAf+WMofM+i72JPxk4iPvVTtP/sUYxOuHmfteQSbzbhpcIKalH84D+QVD6PrpM/gD9taSv7fMnGjiPX+9sI9YGTOPQnT8BY8hU0PnIKBz7/MnZ/4HEYtOn7mZbtTGWPo/GTr+PAoy9h14N/Br0qZTRCYFkJFFV/ScJ6GXd94RR2P/Sn0Df8Aw5+8ccoVOU+YxHzDKH1jYsY9kR5n7VwS/tyhQzwLWA+JYrYvIfknxwyvnPn7GILYxjun0jL54jPR+qBDNJVnSfLylFYWwJlaAQ9g97My7UJEmE8gkhKePFIDAmw5Pu8xwpb3PmS8MWGajTfdQyH774be3fWwEiyYRkWRtQeOYGDtUYiAq7dzLL//qp8co/kPnV1OHjPCdxz/DhqdQwYXT2OHL8Px97zXhy9517Um1K+S+zF2iLU7jqIA3cfx+HDh9BUZYdSkJ7Y5ApBcRN2HTiKw8dO4G7u/u6og1nBG2wKLfLyBAjPOuFbJy+3ur5kY5cL2dzfjcKoKnHnsXuxq1SdVu6rSUSipJ6S8uY/rybhccIVJ+WYT7e23cpQ0XiTo1SrkkvTq4Uj57i9jatdtgRGLyEsO4ryIw9ArViaWmQSXkSDnuSDnwrDjGN21Iv8ykehM1/B3DALQWrf7nUiwhiSjZ4sz4KwrwURvwVyIp5kSgOJzAFumwvDhOHr+i5Geq+mdZhySyXE7DgWPbwHSOBczYzHknYs1xBxjRUbJ38LieBdsso+vCWkdY+jyOKD4/T34CUNeCYCfc9ggVO41yGXeLMJLxXtgadQbBHAT8pSqElRd0myy5fs7XK/v6wQ7IC9QQnXxafQe/5lhHUfQu2JT65ZXgWzA7btMrgvfAO9F88hZvkI6t77cJodtw2g7p4HIfe+hMFTT2F0PB/Wxkb+au4EnKPwrFqCXAvJoGT+EamWzD9yq8l7IoKI5KWAL3KGYeGd7MOQI10AyrVaUg+CWFw1kyi116FUG8XU1X4srHrGlvFOjMIrsqGy0gKlVAKZqgBV5SYkXCNwrJ6ZJHEKRCIIyQ1drzPPGkaPbcUiuPq7cLV/ChFVMeobU5bF2VlMT4cgtthhSKlDwv9/e+cBHEd23vl/T86DyRF5kEmAAHeXS4JxSYkKa8mhLCutz9ZZPtmWQ12dXfZJKvlsuXx38unO1pUt3551dw4lWy5JXklWpqRNWi65RCIAAhyEQQZmBpNz6ns9GAADYED0gOCKFN+v6hXQ3W+6X7/++r3/+15okwNmUQJrSwGSJHJfsQWMDw9iZGgIi1GSZ9E5jA4NkO0B3B4ewnzZ0BbIG9BDxKme9cIzPoKJWR9EtuM4edyxY5iH0NyJEy1GFLxucu43cHt8BmGJA119bVAf9t4ZWbFhm0rt36F/lPbCPx5/+KXv8LBQoeFYIxSJGUzM7G7oMBBx9icUQ6KyooXYad7vwb4OTzZF8pq8B9JdXVmUR4qyV5/yMMNNfOET+FJY/CzGrt+GpOPj6PvQ93D6/f8TLX3nICEV4W4YgQjR6dfAtL4T+rVXsJ4WkH2lgxzhNSRhIAWHAHK1EanwLSTjJkhJg1KqMiIfXdkzdnATVnYFTb3HkZv5MlZjpZ1lsLKfxvFfewWnr17lpNCB7Hc+VnoFzf2nUJj6c8x4NvrK9Ze/hwu/+NtQHrbSKeOg++ALGxmB3zMKOP8tun7hH9DZZi0d2QnffKk2/44EyTrWvvPHWJz8Nrwjn8HoazcA01kYdntSpGES74+wwHXvD3wKY7cmwFj6oSvz0MlbzkGRfxnTX/sMVsj51m5+AtPu/STX0cOKnDjxzNtw7riNn/2JrHA16JDzzmG5TIuwQisRgiYU1iYw5d+o5Q2dV3D5bCtUZfbHJmYxPDwPgbMPpy9cQf/pHpiy0xgeWkBq1zvECG3ovnwVl668HZcuX8bTva0wlnkGq0acwdrwKObXVrC2MIGhKT8YjRXGUh3PXT6wuIyk0ASrecNzzHnPjFYThPFlLEeLu8BkIvB7V7G2toYI5wDLRuEj5/SSfVyIlE3EUjvroWXLu+PHMeT2EZFYD2vZvcg1GojyXsxOzMHr88G36sGdgRsYveslZUspUrUISTlG/rCFo5uYwddeqrWrHxeK+uNoUKewOO7e441lpPXo4+zv8ltw7vQJmHOcnS7uGae7DWm0Fjg7epjvmHIQVDQ+Qijf9hy0v/SxioE7Vg0Mk0D05kdx/f98CGMvfQHrMSPMp/8MTzz7s3sGZBdf8uVvYMH9ChZHriHLFR7l5UJ2BZmMnohGByncI0Q0BpCJ5CFT2yBRapEhorESrKAN9T/1MZjYl+D+4deRq1TYJL+OyX/8EAZfvEaKnHuz3/m4bkF9/+/ALHwDMy9+q/J17gNe98GT6OB/xNjXfgMDf/sBTC5IYTr3K6RSrSBq+eZLFfl3ZKTnEC/ziuUiK8jBCMnuMabpGdK4KP1PSAfmUYAWkjLRKFUYgPgiEmXelPj6fNFL86aQXcT49Vdx887qwfbHqNHYdxwWrGFiYqnM/oQwtLXDwqzDPbF8T/sQ6trQ11MHgf8uRgduYmR8CmGZCz1PuKAqa9Dl1sZx6+b1UngdI5NLSGua0d3rOnwjKBdFrKyXM5dIkOcmxg7HUHQBK1EhjE77xoQ5gQVmkwiRlSUkDmH3Cjl52IkoEqRhyo3f5gIbiyINOeRlXc+pSBQ5oRnNXS7YrVbotCqI0kEiQoNIvWlNCB7wtZcq7OrNp+TBltehrbkG2aUxTAfLxkuUYLNE7JdscHhsChF5C3qOOypOAKP85EBF4yMIm9l2YaTHXkduxVPaqh42OQb/yF9i8oX34ua1l4GGj6C2tnRwE1IZMBjF4nd+FzPTvtLOcpaRigkhVXeTsIp0mGiVuBdSbS8RjuT/6N5uc5ZxwvbO/4FGwyxmv/Zx+BKVC36GySEbnEQyfe+i9d7na4Wh3oTszAtYZw0Qy/XFINw5zO5Q8L2PamHYZaxNDIIlBbGmwoQevvnCN96RsqfO4HaQfNmdNaRy2VEVsdzIPYbkaWmbwFneHjh3xZsEp4OyRNQkD8g+logc+4kn0KyKYfrWILw7lixSwWiUI+udhx8SiCXiYhDuKn258Zt2VyMUMTcGRqaw6vfBtzSF2wPTSGtdaLJtL9rPZqIIBgOlsA7/0iQRjl6wKivIpQ7HPs+tvFeBa2wuLQfB1BC7J2JSZLbDKAhhdblM/VcBw3Wta9twpuixKoVTzSQ3BTu6a3PeMYy4V5HVONHceQInT53H+UuX0F2vheCwIuUBiBu+9sI33o8DhjQEjnHP4dwxGIQRLMz4Kk+uKqQQCawXbdC/TOx0yIOcpRMuU4W4Rcj+/Q5RHhmoaHyEKMSCiH/3C4h/6TOIfeVzyK16INSbwSirG1jMsiqomn8OFqettGejEEtPfA/hQg0UBmNpL1+WkY4CkpoTkIlWkUhwngEvEYw9kCgS5FioFG8Dlgg30+XPorU2hIWv/w7mfWULexUhJSmnC4iq2zFWixGSMocIi11l/cHn20DS/in0f/hbW6Gr7f4GZPO97kGwbA3Ube+D1bmzK7qQS5NqWwpuztIGfPOluvw7cvZUDNwOkqBDaL1sJgbSEtmYmV9CojTuvcSRUkor1325I7M2JOzu7OPEnrnrKXTos5gbvAlPrHIGS+x9uHDxLVuh215+VxxKKJUM0qHwji6+QjyEaF4ApWLD9cYlSazQQiPfFpEcuWQcWZJT0sN2UVd8bnvvN720iABqYLGpYbQYIAguYfWQ6/ywBRZsbBZDW17TjTDwxi3MlY19ZJgsgp5RDF1/ES9d+xZ+8P2XMLyUg7GlHdbDDpHL55AnNycS78zH6uFrL9XZ1Y8LtrCOae45DE4jUtCgtsnM64suhUgYUVYMlWq/VosYItJQz+d2zbSkPFJQ0fgIkR38BiytK2h+rwq1F1PI3/pHZO8OkUKXlK5VeV+yUHb9B7SffzcUZUWVwOiCQpBGOlbdTFqGySAZC0FiboM8ulpcJy5PRGNO0wGVzIdMWeHPCdaa83+BjjYWq9/8KGYWI6Uj23ATTRKRdcB4DJoyCxXZj5Fqda3oydyEz/mAaSx9+7cx+JXf2hGmS2MbDwO/6/IlD3Xn76DtzNWtrh3uj9LSDEFhCYmS5uabL9XkX7Ww2neh/ef/Hj0XL++YqLADaT0ROKX/CSKtvbjoMKf/qiW+PIqc7DLq+i9CoTBAYv05NB1zPdAKlpvgkkwQK1ZrUVMmpEQ1OpJ/SaTKut65rmd961M4Rtpfy8M3MFVxVkIMiyOv49YbpCIuC27f7hmvSSSTJPvIdXZMBlLVQCMkaeIOljC0nMaTJ+p3xBOrVEQyppA+pICDSA1VmX4SEZEqQgbp3RMbcitY9uWgtR2H0yiAf2X/McvFB3WPh5Xg7okIiWxww2PFhUA8S54BadyUFWkKSytam0zF94O7VD4Xg2+N2BQjh3y39uZNrNjAVWh19/WZO772Uo1dbcLKHeh86ixOtlv3f9+OnCzigXUEvJMYmwpC5DiGFtPBwlqgIvbD3WNqn5kwYi20ROAn4vcx6JvyY0dotlj/sPQ/bzLpNJ0B9SahVKvR1NKG0cFbcFySQekUFVulIhkDbYsYTHYdqfERJMfHSVOvUJxpPTs1iXhs/xeTYfJIpZywnvgZmCwasIwWcvuzaLzwC9Akvwr3y68gXewjNEJH4qjC/4rFufJxiXUwPnkV4pUvYnV5QywJTFdJi7QWgvVrmJ0YL47zsz51EUrBDNZe+QbipT5HRfdfoOfpdmQmP4+lgAIKXcNWEOdXkC6tAZSJymE48QuwOHUosBoo6t+D5jNvg9T//+C+ObI1LozP+ThRm4suIh3ZGUTO52DR3CWV/fWtSk9kugCDvRVKfTOU9jMwmuVIByIQ6pqhEMdJgbchNPneB5/zcelL5VvI83gWxhox8kIzNK0fRktfLwqTf4Hp6TnyjDbSxzdf+Mbje7+bKHs+ibaOFsjMJiSHv7pjSSAOaf37YKuRQUzOKWLlkDnejeZTb4Us9BVMDQxsXbcYz7iM1YGXkC7tg+4S6ltNiNz+IsLJjX2FwDhSqrOw97wHtSc/CIfLgMDULLRWOUJDX0Gkyi/XiFUmkscaKJUqKGvMMGtEpJGUgVChgkKURaLUjZ9OCmGsa4RNLyHCUAyFoR5trQ5IY1OYmAlt21/dU+hzaZFecWMxLiTCVrkVxIUk0kRDcmIhSyrSFBFI5UGkb4JVHsbSPCd+GBIvh0RWDXt9LcxqMQqMBEqdE67OJmhyC5gcX0GSvEfcpdOk0WKrc8CkFCBP4qlMJH3NdogjM5ic204fX6SGBjhUQkj0KgjzIsj0TrQ2OyBLzMPtCewQhdz9JHIKOBssULJezIwubr3f5XDxGJUTDrMSwmweQjnJc6UcTDqOTOlrOWkilAz1zbCR1k2eSF55jQWNnd1wWVh453xIF0s7ci5ij12tTqgFeRQEUijURjibG6EXBTE/tYJEhesfRLFckDrgtGuQXZ3f8cWdTY7aXvjG20RZ14NOkj6ZRorUPLe0087jfNPHF7GuFrX6HLwzJE9JWjKhdbCGRjTY5YgsrBbtj6NoLxpuGFIOYoUaar0DTR1NqCms4O7EdrxNOL2raepGU00C83c8iBzyizWU++ew+m3zd1Q0PuSUi0atS0IKiW3XEffayfTConjk1t6LzuZ4iUaOQug61gMiKOufgaXj7TDZzcivfhnub/8lQunNFi1/0ZhX9aOu1YX84hcx71kipaMN+lOXoUwPYvnmi1szP2t6f5eIBSnEptOwtL11R5DHX8Dqyka62cQg/KtZInauwNr1DphsOqQ9f4vJ7/4d4mUFDt/zVULe9It7RKP6qc+h++yzMLdchsmsJxWLHhrX5eK2UTKGuamZYjy+1+V7vvz6jxCM6ckzvgpbx2XUaBnExv877rz8fWRKFScH33zhG49v+jbJ5c0wNLeDWfsXzI0Ob0yKKqMoBvU3MX0jDcuZX4KjqRnwfx3u734O4S274i8aGSaG+MyXsXT7Gnxucs0f/Q38kitodCkRPIRo1DY+jd72WlisNpi1UnJ+KbQWW3HbJAzB4y3ZXyYIXygPpdEOm8MBs06CtG8aY6OzOwSSrq4TdlJRSzRmWG2OHUGZWsByeP/1UBSmnaKRIx9bgz8mgtpsg8PhhEknQz7gwcTIJAJloiYf82M9LoLGYofdbodRLSXpc2NszFNRwB1EUQSo/ZhyF2Bta4bTpAYbI0J15C5CFSp4NsFC1WCH3OvGxGpsq1GzmxT36SitDfbaWjhIOs0WI7A+g/VUKX42BH+Q5LOFHHc6YdErwUQWivcbLLvfXHgdMYGWlFNEhDrI8zPVQEIazJ7RMawkq+ll2Uk6koLC0YBakwQRr2/PGMOjthe+8TbJFyQwkIY9E17A7EJwj0eXb/r4Ui4auU9Rcg2ZUCALPSfsZcRWvfHis+bsxWnUwUDsnLuWkVvyILZM7GUC/sxOjygnGOXWbpxoNSC7MIw7a8l97YXy4Llf0Ui/Pf2QY7bZcPnt78IXPv/XkBKBKJBUftkK5EVNB/LF71FzX4056NvTFMqDgFu0u6/tBoae/xTCD6hiEPc+jzP9KUz81UexVkHQUB48TE0H+p90wD/wPUysl3Y+oghUDeg+2Q6DIAGfZxRjM+v0qzpHBCsywtXTRYSoDJnVMQyOLuzxQlLeXOi3px8TuC/AtNSfQLOtp2Lgjt3vV2IolKPhaCsFRtULQ+OFYjB1/iY6+rqRX3r1gS5qTNkfznOkt9sgzaxgbb1qn8NDRyHmweArP8LYfARipfKhXjfxkUOshIIJwjP0Kl4foYLxJwHqaXzI0emN6D11urTFD+7b1MGAv7RFobx5bHgab2Lo+T8+Mk8j51nsP9dDxAoLNu1DfPHrmPrh5xCuMHGA8uBhGQuOX+qDdvE1vHp358oIFArl4eZ+PY1UNFIoFAqFQqE8BtyvaKTd0xQKhUKhUCiUA6GikUKhUCgUCoVyIFQ0UigUCoVCoVAOhIpGCoVCoVAoFMqBUNFIoVAoFAqFQjkQKhopFAqFQqFQKAdCRSOFQqFQKBQK5UCoaKRQKBQKhUKhHAgVjRQKhUKhUCiUA6GikUKhUCgUCoVyIFQ0UigUCoVCoVAOhH57+hHE6nBidWkRz7z9p0p7djL4+msIBvylLQqFQqFQKBT67enHjmO9J9HZ3Vv832KzVwxiqbh4nEKhUHbDCBXQ69QQslX7Cx47WKGG5JWC5hWFUoKKxkcITjAe732itEWhUCj8YVkx9I19ePrCBfS2GGnhzwepBa1PnEd/fy9q1aLSTgrl8UVotlj/sPQ/bzLpNKRSaWmL8mZQLhjjsShmp+7uKyBnpyZJnFhpi7IJV2mqu34dDlMCYe8awDClI0cD6/pTXPjAh1CY/BIi6aM994OEhRSm1qfxZN8xuJr1SM8tIspWTj/LslA1n8O5k3XA6hxC2Z3xOIeM1NiMju4edLS3o7HeAYNSgEQwiHRhOy4XT6JvRDuJ197WhsY6J4xKFrFACJmya/ONxxdNy0Wc7VYiNOtF6oieP5dGjaOViIocQpHUkdvVUcDZvqnzDHrq5YjOjWLkzgJSu/LvKO3gMLACA7rOX0SXMY3l5TDyh8hHeeMZXHjChPj0MuL3+L265QLOP9GFpuYWNDY1o77WASMRhclwEKl8KRJHJgCvLwmRsR5NDVYwgSUE09TrSHl0Oax+2/wdbWw+AlAP41FBRGPbc6hr66KGX4IV6dB0sh/dtRLEwonS3nsgrkVLgxq5VTfm46V9ZQhq2nCytwU1+VXMjA1jYtYPgakdvX1NkHPqqoRA1Uz2tUGfX4Nn7DYmPSSeuYv8tgGyQ8T78SKE2t6MBrv2obUrkakDHU4pwu6bGHYTQZUrHShx1HZQLdyj1LqOwSYKYXp8Hpk3QXizGS/cAyQ/BodwhzQiWFMrTpxohqLMrrhkZKNLuHvjBmYTSjQcc0FN5DWF8rhC686HHKFQCO/qMq5986tbgZvoQqEcBTWuE2hUxTE78AqGl5OlvZVhWQaGFhcMggg8U6sVPUEamx0KIhgnbt3BwuoKVufGMOj2QaB1wqosRSLU1NZBnVvAGBdvbSPewPgqWF097IeIR9kflhXBXGuDJDmHu3NRsBWe21HbQbUI1C3oqJMj5hnFIg/NeiSwCQR9Xvj9q1ibv4OhSR8YjQUmeel4GQwbwezkIrKKWtQaH7ygpVAeVmj39EOOQqmCs74BSpV6K2hqamAuTXqpBJ/uaZaVQNn+e+h85yfQ0v/LsNYakRK/C0++5xdRGP8KIpmNgpFrdEts70fL2z6J1vO/hYYT74BWk0Vs4Q6yZV1X6nMv4PRbXUiGT8H1rj9B65n3weKwIL10A8nMdsuc7/lY67/H6V/+Q8jDS9Bd/HN0XfoInO1PQ5oYQXA9tNUFyLJyqLp+F+1v/QO0nPt11Pe8CwaTCumVAaSyxShgaz+O/n/zabie/mUYtQwY7RnUP/2raDj1YdQ/9SEoAv8b/kB198uyUig7fh9d7/gEXGeeg9kuQzyshbWpBqHh6rqnxb3P49wVJ3zDN5ERPItjv/H3aNVMYmF2noijj+CpX3kO+Te+iRjzFnT+uy+gRTOKhZkFkgWlNDPn0PGr/0z23ya/WdzazweRkIVvcgwriQIEGgcaTIB/dqlyt6SyGd2dVrDLwxhfSVQUHzJ9AxFzESx4fEhvpk9mRr1VgtD8PEI5huQdA319O0yZedxZjmw9y0JWBlMDOX9gCr4E/3jVIDU0wKFOwB/To/VkL9pdDbDpZUgH/UiUvG8sTMTeLqBDEca8N75ta6X9rdJ1zPuJsDIcw4WzT6DV5SJCg9iV3IxGV+tWl6cy5oY3XvotMSxJTcNGN3t7O5rqnaiR5hENhnfZlRg1jd3oPt6F1lYSr6EOVoMC2ZAP8ZI9V48OtR1OSNYmMLWeLu3byVHbQTVw73Bdbw+s7BxuDy/d17ABsY6IOn0O3pmVre5pRtWKp88/CRvWsBIg90/2b9rBcpmdQmpCvU2KcMlOd8OmWKgaaqHNeLHInYdCeQSh3dM/4SjVqmLXdKVwPwhMH0bXW94NeeRbmL72XzG3oIO9p6d0tIya96PrZ34TusJrmPvBp+AeuAVhy+/jxNV3QFzWjVOE6YPjuAyB6/8Fk6+/gpz1PURUPbejW7Kq80EIXc9Pg5n5X5i89tdYSzTCcfWP4agpHSYIXR/DicsXwMz/A6a+80lM/ugFJI3PoevtH4Bk83z+L2Himx/H2Df+CMt+Fqz/q7jzjY+R7Y9h/JufwOLKRrQiPNMnsHwEx648C2nwq5i69t+wsFKHup6OQ3VcZQLzyKmdkHEbRheU6RBY8reYfn0tZBEP4tw4q/xL8HsSkDQ8A6J9txDUXoBeGoTPfaMqwcgRX5tDcFdXZSU4MWNra4QaAczO+FHY5zqRxTlERA4ieKxQSiWQqWxoc5lRWPdgdcuDRIodruTJF4qCg8szppi35NmAgWDr1HzjVQljQF2DCOvuMdxxLyOjasCxnrLuc9aHlZUUxFYnjGUlpNDkgFmUwNpSYCOfYwsYHx7EyNAQFqMkTdE5jA4NkO0BIn6GMB8u/ZBD3oCekx3Qs154xkcwMeuDyHYcJ487dtiV0NyJEy1GFLxucu43cHt8BmGJA119bVCXxasKRgaJCEilUqUdezlqO6gGqbMLTdoslu+4ESbP9SghMg8NxxqhSMxgYiayS+AyEIlEEArFkKisaCF2mvd7sK+jlU2RPCTppQ4TymNMWZFIeZyQt5yDIv8ypr/2GaxMfhtrNz+BaffeIlvV9dPQ5r+Puy/8GZYnv4W1gT/F6KvXIWz6eZhUpUibSMNY+84fYYHE8w58CmO3JsBY+qEr6+6p6nykakpN/CdMDf4rfJNfwNQ3/i9CgnboarWl46Qc93waN57/Wdx++Z/hm38Ngal/whSptAW2fhhKKw8xyTtk/3fhdX8fUa5CSLrhd38HPrLPN/U9REveIA6+6VO6zkGe+wGmvv5ZrN7dyL8ZT+ZwLxSpqBJEaCnI+YWmJkiWBxHRNUNNkiXXOcEEZ8ANG2OYDBE6ryGvPAOTdeOnnI6ocfVDnHgZvsXCxs4HgboRjUYx2LQI9iev4MKli3iqtwMWhbAUYQM2MYvh4XkInH04feEK+k/3wJSdxvDQQkUPEity4sQzb8O54zbSRNgfvvF4Ic5gbXgU82srWFuYwNCUH4zGCmNJC3DJDCwuIyk0wWremDHLeT2NVhOE8WUsR4u7wGQi8HtXsba2hgjnBcxG4SPn9JJ9XCj3Nqud9dCy5d324xhy+4hIrIe12FrYQK7RQJT3YnZiDl6fD75VD+4M3MDoXS8OPddEKCi+12yhfIbHIeFpB3xhhVbSwDChwHlB/Ruq1dB5BZfPtkJ1WJFchqL+OBrUKSyOuxHdVbox0nr0Xb6KS5ffgnOnT8Cc4+x08R7jKfMkDzn7uG8LpFAeWahofMjxrqzgC5//66oC95uDkCoMQHxxq0uOI74+X/TmlKNQ24Gwh1SgSgglimJgAx6kGSJyyjx+RdIzSJYNik8H5lGAFpIy0VjV+RBGMrBe+p+QWESSNPVFcpL2EgXyO8v553H6N17B+Y/8EOdIOHu5nxTsWogOMeaNb/qkCj0QW0GyTKfF/XN78o8XMXK9rJ0IRCJGDQ2I+15EKtVA0kLSo3UgFZja8pDkZ7+P9awJhpZNr/BJGBr0yMxcQ+j+69iKcHW3qaEOCmQR9S9g9vYbGLrtQUxei2OnemAWbV9YqGtDX08dBP67GB24iZHxKYRlLvQ84YKKqZDA7CLGr7+Km3dWSZV8D/jG40MuilhZV28ukUAOYuxwIEUXsBIVwui0Q8RlgMACs0mEyMoSEvuKiv1RyMlLkIgiIeA8W8JiYGNRpCGHXFGKREhFosgJzWjucsFutUKnVUGUDhIRGkTqiL1w1VKNHfCBZYUwtLXDwqzDPbGM3CHytTIMBJwHUV6HtuYaZJfGMB3c26Bis0TE37yOWyQMj00hIm9Bz3HHdg8FhULZAxWNDynvPinGr12RHkmoBFOpAuKa0bshlRtj+TBOlQRZMbznfaSqE0Kw23pIYbvjDOR8XDfijmFR1ZyP/Lq8+GaYl3H3+QsYvDlb3OYqHf35T6PZJcH6K3+AwS9/dCNcv3U48cbBN33FCm7XVSrlHy+mEA9pIdOaodJrkPS/iFioFkqzgQhVFRHzU6V4hFIXtbzxEpRc5Wa7CKMyBL/7dZKkByUqdNDrxcj7JzB4Zw7r4TDCfg/Gbt1FWGhBnWOjVcCNk7W7GqGIuTEwMoVVvw++pSncHphGWutCk23vovNckrNETCUPUIJ84/Fij3FwO8gbUfZ8GSaBpeUgmBonbOQVEpntMApCWF0+3FRhRsCNpW3DmaJnqxRONRO7EuzoZs95xzDiXkVW40Rz5wmcPHUe5y9dQne9FoLDipkjE0H87IA/KhiNcmS98/BDArFEXAzC+6yVGCLwj3H5e+4YDMIIFmZ8lSfrFFKIkEZpMBiAf5nY6ZAHOUsnXKb93iOyf79DFMpjwn2+npQHhV0ngMuyN3Q5CmizoeKx/UIlspkYIFWTonobidK4t0zM58Gufwm3NwVZKQx95fewsFaKUw1Her4uGOqMyE99DneHriG8eKMYIqFS/+Fh4Ju+YkW8K7fKVUcVMMwKEoEk5LorUBoWEPfFkQhGoTJcIEKSHPNvj0Xb6qLWnoPJCKhbzkKaeBneB9k1TYoJoqWRjkZ2eoNSYcRy3BivTbGghFLJIB0K7+jiK8RDiOYFUCo2XWokrVxyuW7THYJmoymzvYdvvCrZ9dg2d+w+X3ppEQHUwGJTw2gxQBBcwur+wwLvCVsgDaDYLIZKnq3NMPDGLcyVjX1kmCyCnlEMXX8RL137Fn7w/ZcwvJSDsaUd1sMOpcvnkCc3JxLf75ei+NpBdUjsfbhw8S1bodteXipVD1tYxzSXv4PTiBQ0qG0y8/qiSyESRpQVQ6Xa7z7EEIm47MyUtimUxw8qGh8hNPIE+l2TONU4TSqXQ1eZReLLo8jJLqOu/yIUCgMk1p9D0zHXnoozEV3mykpkF1/fEmWh9SAETJ7TV1VztOdLcvUhqQ23KxnO+6i2tuzVBUVKImSfoxx805dOBACVDfKyN0hprN/3zKz2XWj/+b9Hz8XLFSb8kOuGFiAz9EMh8SBONC83VEBuPgu5fA5xcqlyNrqoa2FovgRjnR2Z2WuI3J85HEAM8TgLmU6/cw1FpQFaMYt4YtP7lkQyScRDjW7Xmow10AhZcmxjhgFnu8kEUV9qLWrKMkxEfqck50iVJszwjVc1IjVUZfpJRMSsCBmkd0+AyK1g2ZeD1nYcTqMA/pUVZCt5rDi4273HM0hw904ERza44dniQiCeJfdY2OGgVlha0dpkKnaRcpfK52Lwra0TES6H/NBaKoYEySuFVnefn8PjawfbsHIHOp86i5Pt1gp2H8PiyOu49QYReGXB7Tv0NPESWfLOrCPgncTYVBAixzG0mA4WzAIVsQvO5lK7DaGEWAstEe6JOP1wAuXxhS6585DyZJMIetV2BcVVoE/Wz0ImzkIqyiGTEyOcLBsMdQ++c7ts4GKJQmAcKdVZ2Hveg9qTH4TDZUBgahZaqxyhoe0ldzIRMXR9H4TFqkAeWsgsz6DhmY+jsbkA/9CrSJdkkrT+fbAZl7E68NL2Eha6S6hvNSFy+4skrdWdD6rTqO1yITHxdwhESvv2EEa+5ioc7aehInnCyppQc/y34ahVQirP7Vn6hmFyYMw/BVuTE8JkCkJtE5T6WggSHpKf1aUvm7bDfPxZGCxyEk8HRdMvobalDjJ5uuKSO8qeT6KtowUyswnJ4a8ilt95PC97AnXdvZAEX4RnbAhZyXE4+rglhm5gYfD6TrFSWARjei+5zw6I9QyCr/5nrB/SuSpWmWCs0UCpVEFZY4ZZI0I6loFQoYJClEUinSf5lkcsLYOtoQE2cjzPSKDUOeHqaoI2u4DJOytIskwxfxNZNez1tTCrxShsxutsgiZH4o1vxONIJ4VE8DbCppcQoS+GwlCPtlYHpLEpTMyEtjxZfOPxpbjUikoIiV4FYV4Emd6J1mYHZIl5uD2BHfnMvXOJnALOBguUrBczo4uIV1iChovHqJxwmJUQZvMQykleKuVg0nFkSl/BSRPRZqhvJvknIPYigbzGgsbObrgsLLxzvi27YnTN6Gp1Qi3IoyCQQqE2wtncCL0oiPmpFSQqXP8gOO90TuqA065BdnUe4QrLyRylHZSjrOtBJ7muTCNFan4RkbKvAnH5liUCLUUEdXkQ6ZtglYexNM+J5erut3zJHW7saSa0DtbQiAa7HJGF1a30Fe1AQ5o58RzECjXUegeaOkj5UVjB3YnteJtwelfT1I2mmgTm73gQ2fX+UiiPCve75A4VjQ8pu0Vjk9EPqzZU2gLURJwsBPWkMDu48KokGhkmhvjMl7F0+xp87n/B3I/+Bn7JFTS6lAiWiUakbiOwmCai6B2wH3sWZmcdWO/XMPXtzyJU9jktvqKR7/n4iEau0kkv3UJKeQKm9rfD6uqFLPldTI/nYW3WVRRv6bVpwHQJtu53w9Z2BSbXk2Dny67BM31sbAihuAna5quwtfdDzQzCM56EpVFb8bq5vBmG5nYwaySvR4eR3eWTZOGCpfdpCOf/CZ7ZefKS1cJw6iIUKy9g+u4kd7OlmNy/eaTYNji7+yAl9zv7wxcPPUlC2/g0ettriUi2wayVknNLobXYitsmYQge74ZXpRD3wkfySGl2wOF0wqSTIReYxZ3bkwiUTevNx9bgj4mgNtvgcGzEywc8mBgh8crECpsJwhfKQ2m0w+ZwwKyTIO2bxtjo7A5hxjceXzbW5/Njyl2Ata0ZTpOaPEsieEbuIlRBCLAJbm0+O+ReNyZWY7uWbNkmFQ6TzLTBXlsLh500KCxGYH0G66lS/GwI/iC5Dws5TvLPoleCiSwU8yVYli+58DpiAi1MdiJCHeS5mGogya7DMzqGlfJZV1WSjqSgcDSg1iRBxOvbMzb0qO1gk3xBQhpWGjDhBcwuBPf31JahMB2NaOTWaeQaMqFAFnpOsMvIOb3x4jPk7MBp1MFgcxTv0cgt8RBbJnYwAX/ZurIcnGCUW7txotWA7MIw7qwl97UDCuVh535FI9N1/MTON4QH0UgEag1pplEeGNwEls3xiEpJGqeb3RAKdlYay2EdcjkhEZdRjC3XIpTY9jxKhHmcanIjEFfjbZ/Wl/beG26R6TP9KUz81UexRlvSFAqYmg70P+mAf+B7mCibyP8oIlA1oPtkOwyCBHyeUYzNrB/J11x+kmFFRrh6uogQlSGzOobB0YU9XkgK5VHisPpt83d0TONDytVjC2i1rJLCah0nGzx7BCOHXRtEncEPlTSNk/WzRXG5yXHHAhSSDJy6/Ws6RtULQ+OFYjB1/iY6+rqRX3qV1yK/FMpPOpyHSW+3QZpZwdp61W3rh45CzIPBV36EsfkIxErl/a93+TggVkLBBOEZehWvj1DBSKEc2tNIoVAoFAqFQnm0uB9P46FEI4VCoVAoFArl8YB2T1MoFAqFQqFQeENFI4VCoVAoFArlQKhopFAoFAqFQqEcCBWNFAqFQqFQKJQDoaKRQqFQKBQKhXIgVDRSKBQKhUKhUA6EikYKhUKhUCgUyoFQ0UihUCgUCoVCORAqGikUCoVCoVAoB0JFI4VCoVAoFArlQKhopFAoFAqFQqEcCBWNFAqFQqFQKJQDoaKRQqFQKBQKhXIgVDRSKBQKhUKhUA6EikYKhUKhUCgUygEA/x/t1NK25ibjNwAAAABJRU5ErkJggg==;" parent="1" vertex="1">
          <mxGeometry x="330" y="420" width="653" height="621" as="geometry" />
        </mxCell>
        <mxCell id="Iz3JguLne4xoaT1ydrIv-2" value="" style="rounded=1;whiteSpace=wrap;html=1;shadow=0;sketch=0;fontFamily=Helvetica;fontSize=20;fontColor=#EA5B0C;strokeColor=none;strokeWidth=1;fillColor=#EA5B0C;opacity=50;gradientColor=#FBDECE;gradientDirection=east;" parent="1" vertex="1">
          <mxGeometry x="413" y="409" width="54" height="70" as="geometry" />
        </mxCell>
        <mxCell id="Iz3JguLne4xoaT1ydrIv-3" value="1" style="ellipse;whiteSpace=wrap;html=1;aspect=fixed;gradientColor=#fbdece;strokeColor=none;fontColor=#f7f7f7;fontStyle=1;fontSize=20;fillColor=#EA5B0C;" parent="1" vertex="1">
          <mxGeometry x="408" y="365" width="62" height="62" as="geometry" />
        </mxCell>
        <mxCell id="Iz3JguLne4xoaT1ydrIv-4" value="2" style="shape=offPageConnector;whiteSpace=wrap;html=1;rounded=1;sketch=0;strokeColor=none;fontSize=20;fillColor=#3366FF;gradientColor=#C9D6FF;size=0.29411764705882354;fontColor=#FFFFFF;shadow=1;dashed=0;strokeWidth=3;fontStyle=1;arcSize=21;direction=west;" parent="1" vertex="1">
          <mxGeometry x="358" y="514" width="30" height="76" as="geometry" />
        </mxCell>
        <mxCell id="Iz3JguLne4xoaT1ydrIv-5" value="3" style="shape=offPageConnector;whiteSpace=wrap;html=1;rounded=1;sketch=0;strokeColor=none;fontSize=20;fillColor=#3366FF;gradientColor=#C9D6FF;size=0.29411764705882354;fontColor=#FFFFFF;shadow=1;dashed=0;strokeWidth=3;fontStyle=1;arcSize=21;direction=west;" parent="1" vertex="1">
          <mxGeometry x="403" y="514" width="30" height="76" as="geometry" />
        </mxCell>
        <mxCell id="Iz3JguLne4xoaT1ydrIv-6" value="4" style="shape=offPageConnector;whiteSpace=wrap;html=1;rounded=1;sketch=0;strokeColor=none;fontSize=20;fillColor=#3366FF;gradientColor=#C9D6FF;size=0.29411764705882354;fontColor=#FFFFFF;shadow=1;dashed=0;strokeWidth=3;fontStyle=1;arcSize=21;direction=west;" parent="1" vertex="1">
          <mxGeometry x="449" y="514" width="30" height="76" as="geometry" />
        </mxCell>
      </root>
    </mxGraphModel>
  </diagram>
  <diagram id="2XOgC_wDK3HaDk3XKECu" name="ctx_menu">
    <mxGraphModel dx="1912" dy="1214" grid="1" gridSize="10" guides="1" tooltips="1" connect="1" arrows="1" fold="1" page="1" pageScale="1" pageWidth="827" pageHeight="1169" math="0" shadow="0">
      <root>
        <mxCell id="0" />
        <mxCell id="1" parent="0" />
        <mxCell id="In-g6JO-tNbXF7FbOPXC-1" value="" style="shape=image;verticalLabelPosition=bottom;labelBackgroundColor=default;verticalAlign=top;aspect=fixed;imageAspect=0;image=data:image/png,iVBORw0KGgoAAAANSUhEUgAAAdsAAAF7CAYAAACaZiHaAAAAAXNSR0IArs4c6QAAAARnQU1BAACxjwv8YQUAAAAJcEhZcwAADsMAAA7DAcdvqGQAAL/8SURBVHhe7N0HeBTF38Dx7+VSSCO9k4ReErpUAUVEUOwU/4qiiAWkiCgoPYgUQZp0JKET4AURQVSaEAFBkSpFSggEQgpppPd99y4LuYSE3CU5wDAfnnm4na0zu9nfzlaVf6OmEoIgCIIgGI2J8r8gCIIgCEYigq0gCIIgGJkItoIgCIJgZCLYCoIgCIKRiWArCIIgCEYmgq0gCIIgGJkItoIgCIJgZCLYCoIgCIKR3fdg27pVa20SBEEQhEeF2tXNfYLy26hMTEx4552+9OjRkxYtWuLg4MCpU6eQJPECK0EQBKFyuy+vazQzM2fQoEHUb+DPihXLtXl9+77Lv+fOsGDBArKzs7R5Fa2KZxtefeNlHq/vjYtNHolRYfyzZyPrfv6H+DyVMlTFqt97GkPa2ShdIGWnERsRzqW/trJp3xUyVMaZ7/1QtGy6on+dysRt15Wu0kmSHV0+n0KXyIWMWHNGyb2bJFnQcegsuqcGMTTomJL736Gts3pHmD5+I1eLrHtJqkb3CaNoc3EeXwT/q+QKglAZGf00so2NDaNGjaZmzVosXDCfK2Fh2qT5rcnT9NMMU9HUXs8zbuZYXvSO58i2VQSu+oWT0da0fG8K0z5ui60BLWrJpzfzNi+lX73Sx7F2rIaPYzrnDh7koJwOH79EolV9XvzsW+YObIHlQ9aSL0/ZdNPRqynKUPpSY+fmi5ezldJdEhNs5OG8na2V7v8WbZ15OWKudBdmjoOXL9UcS6sDQRD+64wabF2cXQgYPwErK2vmzZtPTEyM0gftb02epp9mGM2wFanpq71pnLKNicOns2rrTnb/so5FXw/ns8B/cHq6F52dlQH1opZb52ao9W2Upl5gx9q1BAcHs2blEmZP+JhPgs7h9Gw/XvVVhnlolL1sumn7qURlAEEQBKEoo12z9fX1ZfSYcSQkJBIUuJS0tDSlT4GsrExOHD9OAz9/nn/+Bc6cOc2tW7eUvmUnSVVo9vLbtEjZQ+Dui+TonL5LC/2b338/RmhCEhm5+fmW1bvy4dCPeP/9frzR7Qkae2Ry5exlEnNU+PSYzKwBrXG1qopvi2d49oXGZPweQmhG8dHJs1UPOrpfZcfWo8Qr81WpJJLDzWn6WmfsLn5PSFguEnY0fvUjPhkiz/fdN+nxbDvq2iVy/tQ10lDJZbDn+bEL+MA7nKgG/fj8k0EMaBTPhv1h2mnea5kLxr1EqOf/+GRwfz58+1U6NnYl6d+TXEvJb8VWRNlKcnv53nuvH//r0pYmviaE/3ORBHn5lCHw7/oqDZJC+P7wDSUPqjbsxZBhA/nwvbd55anGOMb9S1r9F2iWeZANB8OVofQtf/F1V1Rp60I7jIkbj785hE8GfUi/t3rxXAd/7OPPcDLi7u1a173rzIHmLz1Hzei9bP4rUskrve4KyneZazXeZvjQAbzzcjvqW9/k+D+3qN9rGEMH9Of9N1+gtW8ul09c0Kn3e9edIAjGYZSWrY+PD2PHBhB6+TJBQYFkZGYqfe6m6acZRjOsZhzNuOWlUmVw5nQoeY178PGL/jipC06RqvKSiLoeQUJW/o5FXbs302f0p2nOaX4MXEDg1lOo2w7lm3Ev4ypJxB7ZxPLNJ0gklTPblrF82Vb+MfSMqYap3HqUd+vZuXKglUzx7/c1k/o2R312B6vnz5cDSRzVXxnJuN41lRFMsHJwo3qnQXzUMo2jPy5n8S/ntX1KW+bb4/q2/4iB7bP4e8sylgQfJKXWS4wY9Ro+8nJoVFjZilDXeUtevkG0MDnPrysWsOLns6haDOSbme9Sz6Tk09XmTfoza/Kb1Ek5wv8tWciaPZH4DRhJN3dlAIW+5S+u7orSZ11IkoqG/SYx8gV3ru1Zw7dzgtgV7syLI0bwYpFlKy/96k5Zvx36069JNHs2rOHns6Y0evMLJn71FR80iGLfxhX8328ROD75EZ+/UU8ZT5+6EwTBGIzSsn3qqU44ODiyTA6ieXl5Sm7JNHcknzl9moYNG2mH//ff8t8sknj2H2JcWvNir9fo8cITNKrhhYNZOjcjYkhTbo6SJCde+HwkrcLn8fGkHzh9NZwrF46x77iKDu+8hvfl79l/NpLw9Bo897wPF9bOZcvxGFLucXNVcS0ZTUu7Qe/+vFEvht3LfuVcqjmmJtkkntjIgg2/c+HqVf49dojkmq/yfK14du44I7eorLQtvxbme/nyk/mEnA8lNCpZr2U+FJHfamxp8wfffLqYg1eucfXiMQ7F1+Cl5xuQtOcXzqSqyL4VZXjZ6thi7eRLoxYtaHE7NXcg7mgoiXJ5JcmZl0Z8ToeEVQwbu4ajYeGEXThOyKE0HnvjDZpn7GPXv6ny1Aq3bCXJnR6ff0aL60v4ZMJGTsnluvzv3/x2vhqvvFoPy/D8lq0h5S9ad8Uz02Nd+PDcB6/j/fdsvlhxkOvXw/jnjyNcik8m5sY1YtNLDlIl1pmcWrZojn99X6zD81u2htZdS4t9TB65nL+vXOafQ2ex6fAqT7gdZ9anS/jj6hXOHdtPrPdLdKudwK5fT8uHVM6l1t3hiPzlFgShYhmlZat5zCdTbrEa8liPZljNOJpxK4IqL4Lfvh3CuwPGs1huHWR6PE7vz6azNOgb+rawyx9I3YhmfnDueCh23t54V6umTdXywrgYa031Wp75wxmqamNeG/IxQwYP4eNPR/PVt9/x9auuXFj3HVujNS3vTKKO/cymvWHkqC1x9KpFo1ZPUMsuF9w98FImo5F+/hQXdQOgAcuc9e9pzuqMm3o+jChccPVQMspCbYu7jy/euqmai3xooJCXr4mfKSd2/kS0cgpWIy/6Z3adNKFek8aYFrddmPrhXxuO7dlR6HRrzrmdHNC9ydmA8t9Vd8XQb13c5Nr1NOza9WHQC63wtVXL48VyfM9ezsXJw5WmuDrTJneqmirDaBhYdxmXzhKqlE+lkgPn1WyIvk64skgqVS4xNxPl7dEeB02GsbZ3QRBKZfS7kXX5yH/gb775ljZpfhubZp+dduMYv6yZx5ef9uXtwV+xPtSFV7/4nGcd5Z2WvDN1MTGn9cBFLFq8RCeNo4ubSu5dxmU0qYKdkzNOcnK0zCHm1C8sGDWAL9afJ1cJJOY1nmHQxIUEb9rEykUzGTeoBw3ttb0KycktsjM3YJkzszOUX4rcHHLlnbiqPGs98RALR49izJjRBSlgHWduB0h3d3n5EomJKnzpQKXKJjI6ARM3D4rdpbu74SyPFx+To2TcFk1sgvJTw4Dy31V3JShtXahU6fy2cDLBp814/L3xzF+7kZVzAuj/bB2s9DmgLK7O5DR69HwOxCvDaBhYd9k5RetKlifJ61iXzvIZa3sXBKFU9y3YOsuB56OBA8nKztImzW9NnjFIkhq15hqpzvVBTSxIDf+T9dM38I95I1o2tYCEBJLIJGRaT3r1vDv1nXtEGdtAiX+xdMJ4JnwZwITJ05m/bB27ziaSpwQkiSZ8OHEo7aqcZM3UobzT8xX+13cgM0IK7tYukbGWuaLEJ3BLssHWXgm+OuxtbeTljydW6S5EMx62VHUoOp6jPJ7yU6OCy6/vulAlnmTdlCH0eaMvn365kF0RLnQa9DUjn6vAbbisdaevh33bEYRK7L4F2wZ+fkRFRTFv7hxt0vzW5BmFSXM+WfMDQR81R12k5WHqpWk9ZJKcnCU3ey8SGmlBg0b1yE5PIz0jXZvSshzxa1kXB3Pd681qTNXKz/JyrUcd+xQOrVvML0dCiZcXRZLMqeXtqgxwDwYts74qsGzp57kUYU6zx9tirlP3knlr2sgHOJGh50m73QrWlXaJsCgzmrYtPB4ej9NC9565ii6/HutCMrGnVquONHGTG44ZsVw8upvV02fya4QFfvJyVJiy1p2+jLLtCIKgj/sWbC0tq5CcUnCrq+a3Js8o8k6wY891HLp8wpcfvspTTWrg7l6DJp36EDCmO+7Xd7HrpCS3dkPZuPYQll2HMfaNdtRysce5ejNe/GwC44cP4TkfpXqiI4jKc6Bpt+dp2dgHB31OHd5L7BWupdjQpMtLNPGxw8reh1a9RvF269LrQ+9l1lcFl02lCuP7dQehw2AC+rSnjqsDbrXb0mf8EJ4wOUzwxgvKkIWpVJfY/P0xzDsMZEzvttR0dsC9fieGjHwGR517myq8/Hqti+p0GzSccSPeo21tZ2wda9LqhVdp7ZbFhXMXlWHKr6x1p68KrztBEPRWKf+6NNe4/gkM4OvNobh0eZ/PJs8nMHA+k4a+jGvY90wNCOKM8uhP0r4ZjJx7FLsXhjNn2RpWzJ/Eu/632DE7gBXnlGtiGSGsXHoYdeuBjJ/8Bc+V89KWKu8vgmZv4VajD5i8MJgNq+czrHUYG7ZdUYa4N72WWV8VXDaNpJBZjJ53BOvnRjAraDWBs76gm+0x5o2cwb7kkltmcb9MZ/zqC3h1H83cFWtY+nVf3PbPYF2Rp3Yqsvz6rAuVfPAWNHU5J226Mmr2Ctatmsf4dxsRt+0bZm3T49S/Acpad/qq0G1HEAS9GeXdyF26dKFnz/8REVHwHIGjoyOhoZeYO3eOtvvjjz+hVq3axMcX3CHi5eXFpk0b2Llzp5JTfpJJFZzcPXGySJcbcVEkZRVfXM11XmsXT5zVSUTFJJIl3b1jU6ltcLSHW7HJhV6UUVaSPD0PH3esM29yNSLR4Gnqs8z6quiyaWiWz9bNA5u0SKJS9LtZSUNSWeLi5YQUG0lcRsnjVWT59VkXmmdybV08cLLMKPQImTGUte70VZF1JwhC6YwSbDWv/3vqqaewsSm4syUnJ4f9+/eTkJAfXDXP4Xbo0AFT04JnH1JSktm7dy/Z2dlKjiAIgiD8992Xr/4IgiAIwqNM3BEhCIIgCEYmgq0gCIIgGJkItoIgCIJgZCLYCoIgCIKRiWArCIIgCEYmgq0gCIIgGJkItoIgCIJgZCLYCoIgCIKRGfxSC3d38YFpQRAE4dEWFXVD+aUf8QYpQRAEQTAycRpZEARBEIxMBFtBEARBMDIRbAVBEATByESwFQRBEAQjE8FWEARBEIxMBFtBEARBMDIRbAVBEATByESwFQRBEAQjq/Bga+lujbVv1buShWMVZQhBeLSoLO2wVRvv3TGSTR06dG6Gu0q8n8YQxlgvklUt2j3TEm8TsS6Ewir8DVK13vLXBteiMuMzOL/kBOTdn42wfu9pDGlno3TJfwTZacRFRRB6ZBubdl8iTaVS+hiPJFnQcegsuqcGMTTomJJ7/xm6HJa+T/PGa0/iV7MGnjZp3Ai9zNkDG1m3K5T0+1BvFUGS7Ojy+RS6RC5kxJozSm7FKrqN6Yr+dSoTt12Xl8OfQSun0TV2Oe9/tokY7Ct0uSTJnBYff8enVYL4YPrv2u266HLlpicQeS2cq+cO8NPOMyRhvHWonXe1vYyb9gvxJWwr92PdFFV0nkXXy009tmt9lluSvHh9zlzaHBrGsP8LV3IF4T6eRta0bB0aOitdxmftWA0fx3TOHTzIQTkdPn6RONOaPPvxbBZ+1h4b6X4EfRNs3HzxdrZWuh8U/ZZDUyWenYYzZ+YwutbII/zIdr7/6U/C83zo+vEM5ozsSrWHsPUk+fRm3ual9Kunu2xq7OQyezlbKd0Vr+g2ppuOXk1Rhgrn4PZf+WXHMeK13RW8XB6v8HbnbHZtzg+0GkWX6+/zceDcmG6DvmbR9P60cTLeOtTO28MeU6W7eMZfN3crOs+i60UfpS+3ShXB1i1H8e7xFh2qPHx/K8KDc1+v2Xp0rq5t+d4rOTR2UYauAKkX2LF2LcHBwaxZ+R1zJ33MkAXHsXqqLz1qK8MIBZyeZeBHT2Jy+BuGDg5g7rL1fL9hGd9++TFDpx9A9Xh/Purmqgz8MFFjZmaG+kE0unW2Md20/VSitrdKlczJjfNZvCuMXCOcFajbrTM1bxxk3yUl4zad5Vq1dDZTxw1mwIhALrq8yLDBXXG4LwebDy9jrpe0Q/s5atKKzh3tlRxBuM/B1tTS9K5ruUWTub2FMrRxxP5+iAt4ULO2pZIDltW7MjBgBktWr2ft0rlM+LAT1S0LdkYSdjR69ROmLFjJuo0bCQ6aw6g+bXCR++iq2rAXw6fOZ0XwelbMn0i/1s56nbArbfqSZE+3MUFM7+1Hza6D+XJ2EMFrlzNvwge0c1drh9FVluXQ7Hubvt6bJpm/EzR/H1F5BWOoVLlE7l/IspA0Gr/xFo+ZSDrL1ADfTkOYtng1wWsCmT1xMF2q3319/l51bGj5dPn0mEzQxOdxx5HOo5YRGDiWLva660WNz9MDmTBjKWuDV7F46hCeqVGw7m8rbRsoq9tl+/bdxkpO8coyf0nyoW0LT26dPskVPQJGyoWtfLPsAHkt+vBm08Jtz9vzX7xqPasXzWTCwGepqdMyK6kckk8PpgRO57XqhZe1auPXGTNnuRzsV7Fw+mj6tHTGpJQAX951UGj8oPlMHPgC9WyKH7+k8hgyDQ3JxJvnRy/guynv0NBKGS7zb05dMKVJ61aYP+IHNUIBowbbjJhUUq8mGZSyEjOVsY3ExgZr8sjJztZ2qmv3ZvqM/jTNOc2PgQsI3HoKdduhfDPuZVzlPxRJMsW/39dM6tsc9dkdrJ4/nw0H46j+ykjG9a6pnYaGeZP+zJr8JnVSjvB/SxayZk8kfgNG0s1dGaAE+k3fBCsHN3zbf8TA9ln8vWUZS4IPklLrJUaMeg0fnaBf1uUAN/zqOZJ0eA+HM+7ecatUGRzac5gku9rU035lMX+ZfFr3Z+TrjpzZGsiiZdu5YNaGwTOm0tNHO5pWaXVsSPmKij2yieWbT5BIKme2LWP5sq38c/sMrsyi3lsMeSqX4z+tYPHKXUS6PM3HY/vRyLRgmqUvX3nkl83FruSDyDLP38qPel4SoZf+VTJKl/L7Tg4lOVDHr2CDUNd5S57/IFqYnOfXFQtY8fNZVC0G8s3Md6l350afEsphaouzmxM2urHboQOfDH2clAPBLF4czIGbXrwydg6ftrdVBrhbeddB/viDaGV6ge3LF7F6z0Us2/Rn0oTX8C12+7m7PIZOQzLx4rmxk/mgdgTr5qzidFr+341Klc6F0Ei5XutTT5sjCJotzkhy0nIIXXWG0DWGpYRTN5UpVDy1fQNeHfQitTNP8eeRHDnQOdHtvZ44HZ/H8EnL+TlkP3u3BTI+YD1R/m/yZmtN9aiJP7GN1XMCGD1/rTxMCFuCvib4SDY1mj+GkzYgu/Py289jf+o7Rk1aIQ/zO7t/WMTI6ScxL/Wsa+nTv83K4izLApawLeQgIdsD+SrwENk129JGmUf5lqM61TzgRuQ9buoIv0EkHnj5FARja58cdoyZwKqfQ9j/2w8sHDOOzTG16fVWR6y0daNPHecrrXzFSQs/zoETEWSQSeTpAxz84xSROQXLZ25+lhUBi/lx30H271jNpG93Eufamsfr5Pc3ZPmKZduQ7gMGMKB//4L0QWdq6BEgNMo1fy9P3EySiIlMUzL0EU5kFHh6emu7JMmZF/p1x+vSCkYFfMeW3/azZ1sQE0YGEerxCu+9VOpR2t2c7Lm05HO+3bSL33//lbXTRzDvT1OefOd/1C6mXsq7DjTjPy+P73V5JSPHLWHrbyH8Gvwt42du5rJZQ5rpHPiVxNBpSCYedBk1hQE1LjBv9DT2xhQuV0RkNNi54WHcE3XCf0gpe5Kyiz18A1MrMxqPakPjMW0NTjV6+ylTKgeXrkxcG8zaNWsJXr+Zzau/4d36SeyYM4ddSXJ/dSOaybM5dzwUO29vvKtV06ZqeWFcjLWmei1P+Sg1k6hjP7Npbxg5akscvWrRqNUT1LLLBXc58GjmY+qHf204tmdHoTswc87t5MB1paMEek1fkfXvac7qnN5NPR9GFC64ykFSqxzLgcoUtRpys/Jb/MWS++Vgipm5zqndM3vZEaP8lqnkuvt17yWsGjSkliZDjzq+rdTylUHWv/9wJlenLs6Hcg1HXDyUTd+A5SuW2hZ3H1+8dVM1F/S+9ac887e1lueTSrJmW9ZbDjnypmViaoZKE/jk+TfxM+XEzp+I1rnYkBf9M7tOmlCvSWNM9TxwuOPWYfb8laF0aLbxNEJ2/0WaRwMaOiiZuvSoA0nypOsnXzIhQDcF0KuBpgyNaaopw46t8vZSUIb0k8v5YmgAW8IL8kpkyDRUznT+fAqD615iwZip7ImSK7SI1JRkcrHGtuTGvPCIMUqwzUnLJvbvKNyelI+eTfTY0IsRE1IBt82n/svOdesIltPaLceIJY/Lm6cy/0AskiYYycHMxcSc1gMXsWjxEp00ji5uKrl3/tG/eY1nGDRxIcGbNrFy0UzGDepBQ917H9zdcDZJJD4mR8m4LZrYBOXnPZQ6fUVmdsEOTCs3R/6DVqG6vRbLsxzSNW7IB+PuntWUjGL4eOIuTysivGD6afFxdz0OFBMbh2Tvgrvm1KKedaxRavnK4K5p5mTL09Rs+MpEDVi+YiUeYuHoUYwZM7ogBazjjB7XULXKM395HirN6U2DYqEXHm7yFhFxTfkbcJfnn0hMVOHLNypVNpHRCZi4eVDK4cbd4uK4qfy8LS/6JgnygZNbcRPTqw6ySUuIlSetm+JI1hwbastwi5tRWdrJlYkB07Dt+BEDW9lrD1i0Ry7F0a6W8m27QuVilE3h5qEI7Y1Odn5OSo5hki4mkBqhc+GtrNKucuCnbWzf/hM/rfuW4D/TqP3qO7S/fSNDQgJJZBIyrSe9et6d+s49Iv/BNOHDiUNpV+Uka6YO5Z2er/C/vgOZEaLTnItP4Ba2VHUouoN1xL6UI1u9pq+vciwHRHDlaiZOzdpQu5gH8iVJRZ1WzXDKusoVneMgS9uqd7V87KtWRZV6i3hNTNajjh+oB7185Zl/UqrcrrXG5u7H2ktk6t+BxxwzCLt8LT9Ds81INtja331wYG9rIy9fvHyQWkBdNHpUscBc+XlHVVvuOla0t6OqvHXK8fJuetSBSnWT/SvnMW++bprPr5fk5ZbLkKTZ7h3LsTszYBq5V7cxdsBX7EpryoAxfaijc/3/NmsbW0xJMfCsg1CZVXiwzU7Jklu10bjLrVqVvkf3uuTtNjpE2RFUIM2t/r+t3MJl63b0eb0+ak2ASLtIaKQFDRrVIzs9jfSMdG1Ky3LEr2VdHMzzwLUedexTOLRuMb8cCSVePvDVvEiglrfOhcS0S4RFmdG0bdvCdx96PE6L0q4X6TN9fZVjOTR3HB/YuIVrHs/zQc8ad91FaeHbnQ9eqMb1bf/HAZ0zzSr/VrTTOWcqSQ60b1OHvLBQwjQZ+tRxhVBjeu8bl4t335avBOWZf1QUN6WquLrdfXd1cUwcmvF+/+dwvLiRdX8oZyfSz3MpwpxmjxfeZiTz1rRpakFk6Hnl+V354CkhD6tqPnfuI9AcgPk29eeuQ2rnFrSpU/C3L0lqGrdrgW3yFS4WdwxZ3nWgLYMpTdq0x1KnDKpqHek3+H06ehXelotlwDTSLp/gXMwxFkxZzRXP1xj18ePYFvl78XBzkQ+GbhJd5MSK8Oiq8GAbI7dqq7hYUrWuo5JjmFvn40iPTlW6KlZe+Pes2B2HZ7f3eE6OZSpVKBvXHsKy6zDGvtGOWi72OFdvxoufTWD88CE85yNXT+wVrqXY0KTLSzTxscPK3odWvUbxduuCx1tUqkts/v4Y5h0GMqZ3W2o6O+BevxNDRj6DY7IyUEn0mL6+yrUcstzQDSzaHEHNPjOZ8/lbPNu+GQ2bdODZ3iOYM/NdasVsY/H684WeS8zJqkfvsX1oW9MFR/d6dB4QQJ+GyezZmP8GIb3quLyiI4jKc6Bpt+dp2djHoGdI78vy3UO55p98louRJlSvW1fJ0GHhil+rVrRs2ZoOnV/mjfe/YNaCiXS1Pcmy+Zu4rlyXVKnC+H7dQegwmIA+7anj6oBb7bb0GT+EJ0wOE7zxgjJcLqf/OUN23R6MlAN2i8bN6dR7DJ+211w1LiLJgnbDhtOtoRdOTj606DGKz7o6cnHzBo4r89VV3nWgKcOmdYdQtf+IcX2eoLarE9UaPc1Hnw3h1RZW3IpSBryHskwjN2wjU+YfwuypYYx62fvOo02SZEm92p7kXfwX/e8TFyq7Ct+TZESn4d5Rbkbd/TdVOnlbjf694lu1t2muQx1bs46Tkh+vv/O49gg2ad8MRs49it0Lw5mzbA0r5k/iXf9b7JgdwIpzOajy/iJo9hZuNfqAyQuD2bB6PsNah7Fh2xVlqvnifpnO+NUX8Oo+mrkr1rD067647Z/BuvPKACXQd/r6KutyaKhUWZxaMYxPZ+wksdZzfDDiK6ZO+pwPutUhce9shg1dwskijwWl/72coCst+Xj2clYFzuLjjqYcnDOWRUcLrgGWVsfllhHCyqWHUbceyPjJX/BcKZdZizL68pWi7PMP4/DRaJz8m+Bd5ABD5dCWDwLkYDV+HJ++/yod6tsQuftbPh04nm2XC19nTAqZxeh5R7B+bgSzglYTOOsLutkeY97IGexLLljf0T8tYNG+WHyelwPzlyN4zS+cFYsPcNeZ0vAtzN5mQY8JS1i5chEBb9Yh4vsJTNpU8l165V0HSfu+YeT8v+UyfMrsoJUsmvIJ7eWDhYVfLea4zg1y91KWacTum8m0LTfx6zeGdxsqp3hMm9KorsSZo3+RUZaze0KlVOHvRrb2rkqtt/2VLsMk/hNL+NaLStf9pTnVZe3iibM6iaiYRLKkwn8kktoGDx93rDNvcjUikZwS/ogklSUuXk5IsZHEZZRw80Qx9J2+vsq6HLrUls64WKVyMzbtrrfsSJIjvWauovv1L+k95wim1m542mUSeSOB7BKOtEqr4/JSyXXoaA+3YpPLVH/GXr7SlGX+mldVLpz3BH8O6c8qfe66vQfN/G3dPLBJiyQqpeRtRmVui40qmeRSHok3sbDH3dWCxIgo0nTuMr+X8q6D/DJ4Yp91kxsJ6eSVcTsozzTM2n1B8CcWLHz7S/aml2+dCJVHhQdbu7qOVHHX+8GHQhJO3iTrlpFfaiFUiKLBVngwNKcsHx/+HR/lzaf/rMP/mQ9FVFaS5EaPbxby1KkRDF0dWqZgL1ROFR5shUeDCLYPD8nejy7tbTmz/TA37nNrXChMsqpLp6fduPLL74TpvFxFEESwFcpEkszwfawdvikn2X9Bj4eJBUEQHmEi2AqCIAiCkRn3uQZBEARBEESwFQRBEARjE8FWEARBEIzsvl2zreJihdqq8AerM2+maT/FJwiCIAiV2X0LttVfq0fVOoVf4Xjl//7VfnRAEARBECozowVbl9aeeHT2Vbry3TwcSeSe/NcQ+g9vhdqi8Jvjz8z4i9zMsr3t6FGjsrTDJiuRZD1fRSfoR9RrPsmmDk+0seHinmNEPeLP7kpWtWjfzpHwPX9xTc83YQlCUfc12GYnZZKVkP+GKGufqvLctT/vMEawtfR9mjdeexK/mjXwrJpN/I3LnNixgQ27L5Bcphc4G1f93tMY0s5G6Sos+tepTNx2HUnyZ9DKaXSNXc77n20iBnu6fD6FLpELGbHmjDL0w6NomaTsNGIjwrn011Y27bty1/tjK2Kd6TMNSbIrVG9F6/WmAW//0Zax2l7GTcv/AMPDRpIs6Dh0Ft1TgxgadEzJLZ7mq1MtPv6OT6sE8cH035Wv/uTTq15rv8bUYU9ip+0qXs6x/OUobtuIi4og9Mg2Nu2+dGfe2uHqHWH6+I1crcD61W878eL1OXNpc2gYw/6vAr6zLTyS7usNUmZVLbD2rapNxo5zmveye3YazpyZw+haI4/wI9vZuHk3pxNc6TRkNvNGd8ZF8+WDh4y1YzV8HNM5d/AgB4uko1dvf+M3nIPbf+WXHceI13arsXPzxcu5bK/J1KV51+68zUvpV6/i6qZomQ4fv0SiVX1e/Oxb5g5sceeTZhWxzgybRtF6K1qv+tOW0cOewnclPExMsJHL6u1srXTfg8crvN05m12bCwKtQfWaGMoRne32XIoTPm45XNLJO/Rv/odt7942LhJnWpNnP57Nws/aY6NsG9rhvBzv/nZuGRlSHpUqgq1bjuLd4y06VFHKKAgGUru6uU9Qflco62q22Na86xPS93Tzjwik3AramJ2eZeSXvbD9cwafj1vBnmNn+PfcP/y9/xd+u+xMpzf+R5OU3ey5kK6M8HDwbNWDjk7HWDhpOSGnT/PPP//cSReVj2Nqvs4TffYv/r6ciKTdGVri3/VVGiSF8P3hG9physyuKS+/WJuoXVs4FlsxR0RFy3Tq5FEO7dvBwfTG9OzVBumP7fxzS55XRawzg6ZRuN7urlf9acvoeIGtv54mtQJbXhXHjLpPv0bzzINsOHjv1lnd14byetU/WLTqBIm3y2JAvarSIvlXZ7tN8OlKV9+LrAz4jp3KNn362i3tZIvbNv78/Rf2xdfn1f91wPSvrZxMUOUP536VHVuPVsyZAwO3texIqN2zF3UTfmXfJfH+dsFw96Vlm3wpgdA1Z4pN5FX8kaLmqLXp671pkvk7QfP3EVXkOkv8n0tZGxKHZ/PWOCpHzhqW1bsyMGAGi1etZ/WimUwY+Cw1dY5kJcmebmOCmN67Ab6dhjBt8WqC1wQye+JgulQv+P6sunl/FgROobt34bJJ7i/zVeAiBrUu3/H57eX49t3GSk7xbpdnyer1rF06lwkfdqK6Zcn17dNjMkETn8cdRzqPWkZg4Fi62OtfP4bQfB/1xs7fOW/iQ506FmVeZ7rKO42i9arv+tZVtfHrjJmznODgVSycPpo+LZ3vfOf0Nn3qUcKORq9+wpQFK1m3cSPBQXMY1afNndZWwbI1pdFro5mxdD2bR3fS9tOo2rAXw6fOZ0XwelbMn0i/1s56nUySJB/atvDk1umTXFGCWkWsG0PF/n6IC3hQs7Z+H8YvSnJrzgsvtcKj2PVchvJk/s2pC6Y0ad2q0Ef2BUFf9yXYZqdkk3o1qdhknM3WDb96jiQd3sPhIt9f1VCp0gmZ9T59J/585yhZXectps8YRAuT8/y6YgErfj6LqsVAvpn5LvVMbi+lCVYObvi07s/I1x05szWQRcu2c8GsDYNnTKWnT/5QOSflHZVNYzo/WSM/Q+Hb6Rma2l3n1InyHhnnL4eLnYXSfTd17d5yefrTNOc0PwYuIHDrKdRth/LNuJdxLWFnEXtkE8s3y60ZUjmzbRnLl23lH+XMtX71YyBTM9TyFpCdq7lOb/g6u1t5p1G0XvVb33c4dOCToY+TciCYxYuDOXDTi1fGzuHT9rbKAPrVoySZ4t/vayb1bY767A5Wz58vt0bjqP7KSMb1rqkd5vayVe80iI9apnH0x+Us/iX/o8XmTfoza/Kb1Ek5wv8tWciaPZH4DRhJN3dt73uz8qOel0ToJd3PnlfEujGQjQ3W5JGTna1kGKhWZ/q914U6SmdhhpdHk3chNFJef/Wpp80RBMNU0pdaVKeaB9yI1O9mBkly5oV+3fG6tIJRAd+x5bf97NkWxISRQYR6vMJ7LxXeS1n75LBjzARW/RzC/t9+YOGYcWyOqU2vtzpipQlkOUf47Y9EvNs/RQ0lsEmSNx3bVyf50B7+yD8bXDLbhnQfMIAB/fsXpA8635lWaSTJiW7v9cTp+DyGT1rOzyH72bstkPEB64nyf5M3Wxe/2tPCj3PgRAQZZBJ5+gAH/zhFZI7K4PrRhyRVoUGPztTPvcC5s5pnrQ1bZ8WriGncrdT1fZuTPZeWfM63m3bx+++/snb6COb9acqT7/yP2vJw+tejmvgT21g9J4DR89fK6y+ELUFfE3wkmxrNH8NJZ56WeUeY/cVs1v20g53HI+R5uPPy289jf+o7Rk1aIY/7O7t/WMTI6Scxd1VGuhcvT9xMkoiJTFMyNIxTryVR2zfg1UEvUjvzFH8eMcZz+GUrT0RkNNi54VHyMa4glKhyBluVKWo15GbpeVSsbkQTP1NO7PyJaJ2TbXnRP7PrpAn1mjTGVHenemYvO2KU3zJVXhi/7r2EVYOG1NJ0q3I5tns/cV7teOr2oXX1jjzuncAfe47c9SH2u6htcffxxVs3VXNB79uf5PI084Nzx0Ox8/aWx62mTdXk5bwYa031Wp7KgHoytH6KU7Uxrw35mCGDh/Dxp6P56tvv+PpVVy6s+46t8j7M4HVWnIqYRnFKWd933DrMnr8KjqRUqjRCdv9FmkcDGjrIGXrWo0qVSdSxn9m0N4wctSWOXrVo1OoJatnlgrsHXsp4GunnT3FR9zSoqR/+teHYnh2FWpk553Zy4LrScS+21vJ2lkpyktKtYax6vc2lKxPXBrN2zVqC129m8+pveLd+EjvmzGGX7nKUwty1Ho81a65NLarbyzu3qlSXD07y8xrgbqFso2UsT2pKMrlye9u24ESFIOitcgZb6Ro35B24u2c1JaMU7u64mCQSE1X49K5KlU1kdAImbh7ohqe0+Li7PtIdExuHZO+Cu3I7at6ZPeyPcufxpxpou+s81QGvmAPsOqHHkXriIRaOHsWYMaMLUsA6zuh7ik7eIbuYmNN64CIWLV6ik8bRxU0l9/ZWBtSTgfVTLJMq2Dk54yQnR8scYk79woJRA/hi/fn8gw9D11lxKmIaxdBnfWvFxXFT+XlbXvRNEnDBTVNBBtSjeY1nGDRxIcGbNrFy0UzGDepBw2LuN8zRnoLX4e6GszyP+Jii21k0sfq8P0Yup0pzcUf32MlI9XpH6r/sXLeOYDmt3XKMWPK4vHkq8w/EGnSjmlvnwXz51Vf5qXcTTNX+vKZ0T5g4VN72lQHLWh5ttcj1U0nPBwrGVUk3mwiuXM3EqVkbahdzPVGS1DTsNYYJ/Z/MvwEiPoFbkg229nf/Ydvb2kBCvLwDKGBpW/Wulpx91aqoUm8Rr+zjVKpL7A65itvjHWlAbZ5s58n1kF2cN2DnUWYJCSSRSci0nvTqeXfqO9fAj70bWD/FSvyLpRPGM+HLACZMns78ZevYdTaRvDv1YeA6K1ZFTONu+qxvraq23BUP7e3k9tUtEjQVpGc9SjThQzk4tKtykjVTh/JOz1f4X9+BzAjRaV6XRDMPbKnqUHQejvI8lJ/3kpQqt2utsamqdGsZp17vSLvKgZ+2sX37T/y07luC/0yj9qvv0N7KsGldXz+8YDufeYDs3D+Zo3S/1msoa++cNS5beaxtbDElpXCrXxD0VCmDreY07oGNW7jm8Twf9Kxx192Dpj4v0ee1trimXs0/1ZZ+nksR5jR7vG2hYSXz1rRpakFk6PlCD/ar/FvRTuecriQ50L5NHfLCQglT8jSu7NpHqNPjdHy1E+3cwti3O1TpY2RpFwmNtKBBo3pkp6eRnpGuTWlZjvi1rIuDeZ4yYEnUcqtA+alhYP2UhcHrrBgVMY3i6Lu+cW5BmzoF09XstBu3a4Ft8hUuauKkvvXoWo869ikcWreYX46EEp+lmZY5tbz1uOiadomwKDOati08Dzwep0XRG7qKExXFTakqrm4FdwEbq16Lo1Il89vKLVy2bkef1+ujLjKve5HyMgu29cxc+aAlj6w7238mucqp+7KWx8PNRT4YuYnyBJ4gGKTSnhDJDd3Aos0R1Owzkzmfv8Wz7Zvh79+STj2HMmNqP2rf2Mz8Tfm7SpUqjO/XHYQOgwno0546rg641W5Ln/FDeMLkMMEbL2iHuy0nqx69x/ahbU0XHN3r0XlAAH0aJrNnY5G3B0XtJuScPc/0eQ6n8/vYHaHkG5lKFcrGtYew7DqMsW+0o5aLPc7Vm/HiZxMYP3wIz/ncY7VHRxCV50DTbs/TsrEPDvKOyND6KStD1llJKmIaRem9vpMsaDdsON0aeuHk5EOLHqP4rKsjFzdv4Ljm9KO+9Rh7hWspNjTp8hJNfOywsvehVa9RvN26+MeNdGnOqGz+/hjmHQYypndbajo74F6/E0NGPoNjsjLQvSSf5WKkCdXr1lUy8hmjXkuSF/49K3bH4dntPZ7TPb6wcMWvVStatmxZKNUu/Mp1vRhaHkmypF5tT/Iu/ovufdqCoC/V/XxdY2kq+nWNmkcofDq+x0dvdKCehz0WahV5GTc599smlq/exr/JBTtKzevsajzzEZ+825FaVU3ljBySw35n+ayF7LqafygrSY70mrmK7tdnMSf1ZYa9UAtbeZq5yWHsDZzOgt1XyS5yZF/12a9YNagJZxa9zZifE5Xckj02eC0Tmobw6XtLuFhCK6FgOb6k95wjd3XnD2NB9c79teWpbWcu74RVZMaeY8+K2SzZe73Em7Q0rbGaL45iTN82uFlcZd1HAwm+rrkjufT6KYk+ZbrNkHVWEn2nUVo9GrK+tWX0+p4vQhrw2fttcasizzMzln9+/JaZq44Sr7Sq9K1Hh1bvM/bjl6hnr5bHySX5300sO92coc+EMubNuZzE6a51fpsk2eDfaxif/q8l7pby+DlxnFg9iT/8ZvFB1jS6T9uvDHk3TSPPv38Q05rsY+DAVVzTWV9lXTd1+i1lVuezTHhjFkeLrP+Stg3J4VkmfzeY6n9O5oNv/sBvSDBfPlv8S3L+mvUSE38rvN+QrD1p4K0i4tx1kkvY5gzaP6jbMjJ4FHZr3mH0NvHxFMFwlTrY6lJbOuNqm0VszC2ylR1fcTTBxtbNA5u0SKJSivwBF9kZm1q74WmXSeSNhBKnafN0ACs/MmFRn/HsTi95vsaiKY+1iyfO6iSiYhLJ0vOl8iq1DY7yvu1WbDI5hXa4JddPRdN3nd1LeaZRlvWtYWJhj7urBYkRUaQVeWHCbfrUoySvAw8fd6wzb3I1IrHQetCHpLLExcsJKTaSuAz915XmlZ0L5z3Bn0P6syq8+HlWxLp5mJRWHrN2XxD8iQUL3/6SvQ/g71j473tk7qvLTY8lMiap1B2D5npOSsx1vQJJTmo04TcSi52mysQMc/vG9OnxGBmHfuF33ccW7yNNedJirxEefUvvQKsh5aYQF5dy1w7ekPopL33X2b1UxDRuu9f61pWXmciNa9ElBloNfepRJa+DqLBLhN64ZXCg1VBJ6cRev25QoNW6+gNrfremc482d95bXVRF1uvD4F7lkSQ3Xny5FVE/riHkAf0dC/99RmvZVkZFWzol0bywocuE9QxtaUZO9O/M/vxrQuIqx07pUaLv+q6MJHs/urS35cz2w9x45D+xV5dOT7tx5ZffCcsRf8dC2YhgawBJMsP3sXb4ppxk/4WSr9torst5Nm5BLcs4Lpw4R0yW+AP9L9J3fQuCIJRGBFtBEARBMLJH5pqtIAiCIDwoItgKgiAIgpGJYCsIgiAIRiaCrSAIgiAYmQi2giAIgmBkItgKgiAIgpEZ/OiPu7uBHx4XBEEQhEomKuqG8ks/4jlbQRAEQTAycRpZEARBEIxMBFtBEARBMDIRbAVBEATByESwFQRBEAQjE8FWEARBEIxMBFtBEARBMDIRbAVBEATByESwFQRBEAQjE8FWeKRJJqaoEe91EQTBuCptsLVyrUPdGi5UkcSOVCieJFnhVb8x/nVcMRXbiSAIRlRpg62JuQVVLMyVroolmbtTt7EfHpaVawddWculUXzZMrl18yaxsUnkKjmCIAjGIE4jl4VKlZ8qm8paLo1iyqZS5ZJ68xo3EjKRKmu5BUF4KFTaDxHYVGtITZsELpy7TjqmONWoj0NaGBE5Trg7VcVabvRmpyUSeS2C5BxlJJmEGXZuXrg62GBhakJuVgoJkdeITs7W9q/iXJvqrlaYmZmSl51Jbl4a0RcvE59zex5XiZKc8ZDnYZlxjVNhSdp8p4wwLkalaaehIVm4UKuGPclhF4jJKBj3Rq4Tns62WKgySY2P5Fp0KpauPtrlsTSTyEyKJuJ6LBlSQXAwsXDE3dMZW0tL1FIGabdiuBEVT1aeCklS61X2ksqVkFtyECqYbxXUufJ8U2KJuhF3Z9kKzTvLCS83O7lO8+R5JxN74zoJmYU3Pf3KUbh+/7mSIPczxcbFEzcnWyzNTSEngxS57iKibpEjB9HS1lnRdWNQucq5PQmC8GhQu7q5T1B+VyrmVV1xMM8gLjaJHNTYunhhZ2Up7xQzuRUbS2JaLlXs3XC1k0iKTdHulDWX7ay96lHDWU3KzWhiYm+RbVoVV3c7chPjSJcDT15uNhnZamyqmpEWJe80E5JIy8gmV5mHvbV1/jzi5HkkpZKehTbfVkrgZpLccZuZHe5uNmTHxcg759vLVwVLdSrxsYlkmFhj7+pCVSs7qpqly3kJpGebY+Pshr3qFnEp+Xt0VRV3atf1kgNPPDdv3uRWuoS1czXcbXNIiE+9s1yllb2kcuVRfLBVVfGgTl1vqmQlyHV8k6R0FZaOXrg7qkiOS5brXDOeMm85aNnayvlyncYnZaCylgOUuwN5t2JJU4K5vuW4u35zsfaoRy13S3KS4uRx40jNMaeqqyf2JBCfmlvqOtNdNwaVqwK2J0EQHg2P1GlktUkqN0KvE3frlryzvsGVCLlVZGmPrZkyABZyULCUd4Q3uH4znuSUBGLCL3NFbkne3jHmZSaTlCK3juR/mamJJCenka0TkEy4RfjFq8TExZOQqhNc9aAmmRtXIkm4FS/P9ypxcovXyjJdzrsh58kBITKUG4m5WNhW1d7QI0lmOHq5Y558lYvyMPFKuUIv3SDTWg4QVQuWq7Syl1YuXfnzdcMi7Rqhl68Tm3CLhLgILl+8RrqFu9wyL3ytXF0F4i+FEh2fSFLiTSJCL3Izywo3DwdMDCzH3fWrIjs5hqjwi1y6FimPm0hsZBhRSXlYVs2vJ33LZnC5KmB7EgTh0fBIBdu81GTSdK7N5aZnkCnvEC0slAyyyMjMxdTOA0+nqpjLtaNSZZOSkCC3wJRBSqGZR4bOPAyRl55CuhIEVKpMMjLyIFteRuVsq2ayOZlygFGbYqrNsMbWBlKT0lDLhTA3N9cmC3kq6XJLroplQXAovewGUNlga20it/RiydYta3Ys8clgZWuLStOsuy0ljnids6Yqec5x8fIyW9kix2GDy6FbvyqVRHaq3KJNzJQ7TFCbV8Ha1gErTQVZVJGnYQADy3U/tidBECqHRyvYSnLw0pWn2eMV3nEnXgslKkWFvVdt6jdqSoM6NfF0tNS2wPSRV45nNvOKm4ecpZurc6kWzOXAJK9CO5+GNPBrpJPq4GShkntbKgOWXnaDaIKhKouszMLT1MSdzKwsVPJy6Qa53Owc8nSDlywnOwvJzAx5MQ0rRzH1q6riiGeN+vg3boZ/gwbU8HHD2rQM68HAct2P7UkQhMrhkQq2+lDlphBz9Tzn/vmHi5euEp9pjoN3PXwdC59CNJSqaGAzUZc11BXIyUZzVTUh7Bj/nLw7nbt2SxmwgsnBM0duW5tqm9eFmZqaycslByylW8PEVC5rkeCillvnqtxcsjXZ5SiHJNngVbM69uoUoi6f5Yw8/Jmz/3I1QW7pGsrAcunDWNuTIAj/LSLY6pBQY2lrr20VSVI26akJRF29QlyGCda2VspQt8nhU69omUOWHFHUcuvs9osTNP9Z2lhz59JeWeWmkZFpgpU8LSkvT9sy1qRcyQyrqtaoyxTN9ShXXgppcp3YOtgVCqISVbGzMSErNa1QS1ZlY0dVnS1Nc/ewnZ01cgWTrskoTznMrLE0yyUp8hrxKRnkyssvyc1/yyrFnUAupWwGlqs0hm1PgiBUZiLYFmKJk3dNalT3wraKmdz6qoKtsytVLfJIk3e0d2RlyC0cc7mfMzbWFvd8+5Bm35yWkoxk7Y6vl2Z4W+zdauDtoJYDQ/moVBnERCagdvLF180eS7kFaWphi7NPLWr4+uBUpeTlKpae5dJcT74ZFY9k70MN7XxNMatSFfeaPto7gG/E6NSVTMqzlvt5UlVTp6aWOHrVxMM2h/ioOHLlCipXOXLSycxRY+PsgrWFGhO1BbauNfC0UysDKPQom6HlKp2e25MgCJWeCLY6VKRwI+waKWoXqtdrRMNG/tT0tCUn5jLhsTonEPPiibqegMrOl5q1a+BYyl04WXHhXI/PpIqzPHytGrjZZHBDHr8i7pHJSbzCxfAkzFxqUMe/Cf4N6uJhk0Nc+CWiDd2fG1CunMSrXLqWhIlLTXm+jWlQrxbOpklcv3SFpLzCrb/cpAgi0qviXVeu04Z+8oGGCbfCLxKRUnDNs6zlUJHEjfAocmx8qN2gqTx9f3zt0omOSVWGUOhZNkPKVRq9tydBECq9SvtSi/LQNHrUZuaYqiVyMrJKPHWoOU1oJjegcnNy9HoDkWZ4U1UOuYXucqoYt5fZXPN4i2Z55F19WRlSLkmesdrMAnVeFtlF7hfSnC52rdMYl8yLnL2WLLcczTAzyyM7s+TplrUcmmU2r2IuL0c2mZnZJU9fz7Ldq1yG0nd7EgSh8hIt22Jo9oV5mpth5J32vXaMKjkg5OTm6hVoNTTDGyPQatxe5owceXnKEWg1DCmXSh5GM199ApLmumVW1r2nW9ZyaJY5OyOdjKx7B1F9y2ZIuUpzu0ylbU+CIFReItgKgiAIgpGJYCsYUQ63Ii9zPVZ7z7EgCMIjSwRbwWg0Z0yzUhNJStd5M78gCMIjSARbQRAEQTAyEWwFQRAEwchEsBUEQRAEIxPBVhAEQRCMTARbQRAEQTAyEWwFLZWlHbZq8TIxQRAEY7hvr2u0sbbB1d2dy6GXlBxwc3XXhvvoqCglp+LU7z2NIe1slC6QstOIi4og9Mg2Nu2+VOij35VZ0XrQFf3rVCZuu44k+TNo5TS6xi7n/c82EYM9XT6fQpfIhYxYc0YZWhAEobCqNVrTwKP475elXzvKqWsFz9irrTyoUacmLvaWmOVmkBQXzuWLV0nKeTT2xfelZWtiYkKPXq/zyis9sbKy1ubZ29vzvzfe4rlnX9R2VzRrx2r4OKZz7uBBDsrp8PGLxJnW5NmPZ7Pws/bYaF5Y+wgoWg+66ejVFGWocA5u/5VfdhwjXtutxs7NFy9n8Rk4QRBKZmphjY1FDolRkXKjqXCKTSl4vl6qUo1GbZrgbhZHxPkznL8aQ55TfR5rUQcb1aOxL74vwbZFy9Y4OTkTfvUKaWn5X2Pp3PlZTE1NOXvutLbbKFIvsGPtWoKDg1mz8jvmTvqYIQuOY/VUX3rUVoZ5FOjUg27afipR21ulSubkxvks3hWm/eSdIAiC3rITiQi9xJXLoYXSjYRsZQCw86mNU/ZVTv19jnBNML52gZN/XyDFpiY+TqJlWyE0Ldg2bdqRk5PD7t2/avPq1/fDx7c6cXGx/H3kT23e/RL7+yEu4EHN2pZKDlhW78rAgBksWb2etUvnMuHDTlS3zD/akiR7uo0JYnpvP2p2HcyXs4MIXruceRM+oJ174W+mStjR6NVPmLJgJes2biQ4aA6j+rTBRe6j7X9nWg2p/9Jwvl64itXfzWDU682wlixp1HMEk+euJHhNINOHPU+tIt9xvddylsft5fr23cZKTvGMNX9BECovzUnEvJRIrly8zi3d3UV6Esm5aiwtzZWMys3owfZ2C/bw4YMkJiZiUaUKHZ96Wl4BErt37SAvrwI+q2IIGxusySMnO/+oS127N9Nn9Kdpzml+DFxA4NZTqNsO5ZtxL+OqPdVsgpWDG77tP2Jg+yz+3rKMJcEHSan1EiNGvYbPnUBqin+/r5nUtznqsztYPX8+Gw7GUf2VkYzrXVM7zJ1pdehPvybR7Nmwhp/PmtLozS+Y+NVXfNAgin0bV/B/v0Xg+ORHfP5GPWU8fZazPPKXy8Wu5A/YGnf+giBUVpqTZSk3zhMapfnMZkEr1sTeFUfTDJKSMpWcys2owba4FuwTT3TUXrc9ffokERHXtHn3i9q+Aa8OepHamaf480iOHCCd6PZeT5yOz2P4pOX8HLKfvdsCGR+wnij/N3mzdUH1WFmcZVnAEraFHCRkeyBfBR4iu2Zb2rgqA6Am/sQ2Vs8JYPT8tfK0QtgS9DXBR7Kp0fwxnHQCkpXqBEsmr2JXyE6CZ8/i12s21K1xjWWavP17+SFoIkEHUvFs1BRneTxDlrNYtg3pPmAAA/r3L0gfdKaGnkGy3PMXBKHyMnfCt14D6tatr5O8sL7H/kUysaeWf3XM4i9xLf9qVqVntL1kcS1YLy9vGjZsor1u+/vv+5QhjcilKxPXBrN2zVqC129m8+pveLd+EjvmzGFXktxf3YhmfnDueCh23t54V6umTdXywrgYa031Wp7505Fl/Xuas3kFR2Wp58OIwgVXj/xulSqTqGM/s2lvGDlqSxy9atGo1RPUsssFdw+88gfTyrh0llBlWipVOFeuyq3s6OuEy4Pm5+USc1PeAqva46DJMGA5i6W2xd3HF2/dVM0FvW9/Ku/8BUGoxEyxsq1aOFlbyLnFk+Q9j1eTx/Axi+bcP+FkPCL3iRgt2BZtwWruSO78TFftaYR9e/eQmZGhDGlEqf+yc906guW0dssxYsnj8uapzD8Qm//xcDkIupiY03rgIhYtXqKTxtHFTSX39lYmBJnZRZY3N4dcVKh0atC8xjMMmriQ4E2bWLloJuMG9aChvdJTR3ZOMV/ByZPk6enSOSo0YDmLlXiIhaNHMWbM6IIUsI4z+m7k5Z2/IAiVV5YcNP/+kxNH/ypIxy9zq5j9iySZ4+rfkvoOaVw6epyYrEcj0GoYJdgW14LVvSP533/PavOMLu0qB37axvbtP/HTum8J/jON2q++Q3srJZAlJJBEJiHTetKr592p79wj+cPpQaIJH04cSrsqJ1kzdSjv9HyF//UdyIyQGGWIcqjA5SyTBz1/QRD+8yRJjWO9VjR0y+XqsSOE337y8BFR4cG2uBZscXck32+ax1t+W7mFy9bt6PN6fdSa6wlpFwmNtKBBo3pkp6eRnpGuTWlZjvi1rIuDuQE3b7nWo459CofWLeaXI6HEZ+UfxdXyvnNRt+wqcjnL4kHPXxCE/zRJUmFbvSWNfUy4cepPQhMfvW9cV3iwLa4FW/SO5AclL/x7VuyOw7Pbezwnx0CVKpSNaw9h2XUYY99oRy0Xe5yrN+PFzyYwfvgQnpM3DL3FXuFaig1NurxEEx87rOx9aNVrFG+3rqIMUHYVupxlUNb5a45kG741h2WLP6WDreZGr3t3C4JQ+WjaNVZezWhW146MiMvESnY4yjHiTrIRj/6UiV+DhoVasJrrtg/qmdqiVKpsjq1Zx0nJj9ffeRxLeStI2jeDkXOPYvfCcOYsW8OK+ZN41/8WO2YHsOKc/kdfqry/CJq9hVuNPmDywmA2rJ7PsNZhbNh2RRmifCpqOcuqbPNXY+PkiIOjE7bav6fSugVBqHwscPV2w0Klxta7Mc0ea0VzndSslrMyXOVW4e9GdnN3l5uQEB1T8L7jmrVqExMVRUrqw3uSXtPKsnbxxFmdRFRMIllS2S7cS2obPHzcsc68ydWIRHL0vQlJTxW1nGVl6Pw1w5uqc8hV7r4urVsQBKEyum8fIhAEQRCER5VxL/YJgiAIgiCCrSAIgiAYmwi2giAIgmBkItgKgiAIgpGJYCsIgiAIRiaCrSAIgiAY2X159Kd58+Z0eKIj1lbFf2dG8xKMsLAwfvppG+npaUquIAiCIFQORg+2DvYOPNWpk9JVPLXalMcea4Ek/xs/fgzZWfkfdhcEQRCEysCowdbDw1P7EYKSZGdnExFxXW7NpmNpacnMWXNYtXIFhw8fUoaoHFSWdthkJZKcWzneklTZyiMIgmBsRgm2mi//DB78MS1btlJySpaamsq3387m3LmzjBkznrNnT/PDD5uVvmVXv/c0hrSzUbogNz2ByGvhXD13gJ92niEJ4wQKSbKjy+dT6BK5kBFrzsjd/gxaOY2usct5/7NN3Kzg1zdWpKJ1piv616lM3Hb9rvLEYF+ovIIgCMLdjHKDVIsWLWjYsCEjR46gT5/eJaZ3332bQ4f/4O13+mrHy8vLRfNpvopg7VgNH8d0zh08yEE5/X0+Dpwb023Q1yya3p82TsZq0Kuxc/PFy/n29elwDm7/lV92HCNeyakokk9v5m1eSr96FVOWonWmm45evf1e66LlKVpeQRAEoSijBFsvr2pcvRpORESEklM8zY1RR/76C08PTyWngqVeYMfatQQHB7Nq6WymjhvMgBGBXHR5kWGDu+Kg+faTkWm+o3ty43wW7wojt8JbtWrMzMxQV+RkdepMN20/lf9pROOWRxAEoXIySrDVtE4lqeCD4g39G9K9e4876cUXX8LCwkLbT5IDnua08/2ScmEr3yw7QF6LPrzZ1FSbJ0n2dBsTxLfvNtZ23yb59GBK4HReq6759mr+MNN7N8C30xCmLV5N8JpAZk8cTJfqJX+ztqRpW1bvysCAGSxZvZ61QfOZOPAF6tkUBH8JOxq9+glTFqxk3caNBAfNYVSfNrjIfTR8ekwmaOLzuONI51HLCAwcSxf7gvELTX/pXCZ82InqluU/uCipPEUZa/6CIAj/Rfclynn7+FK/foM7qUGDBlhZPrjTjim/7+RQkgN1/NyVHBOsHNxwscs/ALjD1BZnNydstDE5fxif1v0Z+bojZ7YGsmjZdi6YtWHwjKn09NGOUYy7p62u3ZvpMwbRyvQC25cvYvWei1i26c+kCa/hq7knWzLFv9/XTOrbHPXZHayeP58NB+Oo/spIxvWuqZ1G7JFNLN98gkRSObNtGcuXbeUf5Uxv/vT70zTnND8GLiBw6ynUbYfyzbiXcS13a76EutJh3PkLgiD899yXYPvLL9uZMmXSnTR9+jQSEhOUvg9COJFR4OnprXTrz9onhx1jJrDq5xD2//YDC8eMY3NMbXq91RErPQKJJDnx/Hs98bq8kpHjlrD1txB+Df6W8TM3c9msIc20QVtN/IltrJ4TwOj5a/k5JIQtQV8TfCSbGs0fw0meT1r4cQ6ciCCDTCJPH+DgH6eIzNGcUXCimzx9p+PzGD5puTzufvZuC2R8wHqi/N/kzdalrHLbhnQfMIAB/fsXpA86U0PPIFnu+QuCIFRC92XP9957H7B6dfCdtGzZSlzdXJW+D0IOObly4U3NUBna0jqzlx0xym+ZKi+MX/dewqpBQ2opefekbkxTP1NO7NhKlM4d0eknl/PF0AC2hKtQqTKJOvYzm/aGkaO2xNGrFo1aPUEtO3mh3T3wUsYplroRzfzg3PFQ7Ly98a5WTZuqyct5Mdaa6rVKuT6utsXdx1d7NuJOquaC3uchyjt/QRCESui+BNvNm78v1LKdMuUrYm/GKn0fBC883CA64hqSgTf5pMXHkV5knJjYOCR7F9zzLwHfm7s7Lia3uBmVpWQUz7zGMwyauJDgTZtYuWgm4wb1oGHJjywXkIOxi4k5rQcuYtHiJTppHF3cVHLvUlrziYdYOHoUY8aMLkgB6zijbz2Vd/6CIAiV0H0Jtl6entrrtAXJT3sXbXFSUpKVX8Zj6t+BxxwzCLt8TcnJp1YVqY4qFpgrP2+ztK2KaZHWsH3VqqhSbxGfo2TcS3wCSdhS1bHkqpdowocTh9KuyknWTB3KOz1f4X99BzIjRKdJXZIEzfQzCZnWk14970595x5RBjSSBz1/QRCEh9B9Cbb63iCVmZnB33//rXQZh4lDM97v/xyOFzey7o/b0VEOlAl5WFXz0V4P1ZAkFb5N/XHSdhVQ+beinc6iS5ID7dvUIS8slDAl757Sz3MpwpQmbdpjqRO0VdU60m/w+3T0kvNc61HHPoVD6xbzy5FQ4uVGsCSZU8u7uFPvakzVyk+NtIuERlrQoFE9stPTSM9I16a0LEf8WtbFwbzgLnGjeNDzFwRBeAjdl2Cr7w1Sy5ctIz6+Al/9YOGKX6tWtGzZmg6dX+aN979g1oKJdLU9ybL5m7iuXDNVqXI5/c8Zsuv2YKQciFs0bk6n3mP4tL0VqdohCuRk1aP32D60remCo3s9Og8IoE/DZPZs/IV4PU61qlRhbFp3CFX7jxjX5wlquzpRrdHTfPTZEF5tYcWtKHmg2CtcS7GhSZeXaOJjh5W9D616jeLt1kUeMYqOICrPgabdnqdlYx/tc8MqVSgb1x7Csuswxr7Rjlou9jhXb8aLn01g/PAhPOdj3FVe1vlLkpqGb81h2eJP6WCruSP73t2CIAj/JUbZ8ybEJ+Dm6oaZefGninV5eXrdCbwVfYeyyqEtHwTIO/nx4/j0/VfpUN+GyN3f8unA8Wy7nKsMlS/6pwUs2heLz/ODCfhyBK/5hbNi8QGSlP63pf+9nKArLfl49nJWBc7i446mHJwzlkVHM5UhSpe07xtGzv8b6+c+ZXbQShZN+YT2JodZ+NVijueqUOX9RdDsLdxq9AGTFwazYfV8hrUOY8O2K8oUFBkhrFx6GHXrgYyf/AXPKZdDk/bNYOTco9i9MJw5y9awYv4k3vW/xY7ZAaw4p8+57vIp2/zV2Dg54uDohK323H1p3YIgCP8dRnk3sqWlFZMnTcZEbUpMTLSSezdTU1Nq1arN2rWr2Llzp5L7YKnMbbFRJZNcJHZKkiO9Zq6i+/Uv6T3nCKbWbnjaZRJ5I4HsMr5nWdNas3XzxD7rJjcS0skr0jKW1DZ4+LhjnXmTqxGJ5JTQclbJwznaw63Y5ELDaKZv7eKJszqJqJhEsqSyLWdZGTp/zfCm6hxy8/KHK61bEAThv8JoX/3RBNy2bdve86s/mtc1nj9/Xk7/KjkPr6LBVhAEQRD0ZfTv2VYWItgKgiAIZaV2dXOfoPwW7imH1LjrXDxzjvC4DCVPEARBEEonWraCIAiCYGT35dEfQRAEQXiUiWArCIIgCEYmgq0gCIIgGNl9u2bbrFkzmjdvpnTlO3bsOMePH1e6BEEQBKFyMlqwdbC3p5lOcK1Ro4Y26QoLC9Om247LwTchMVHpEgRBEITKwWjBVhNY33uvn9Kln6CgZYWCr1B2Kks7bLISSc4Vb1sSBEF40CptsK3fexpD2tkoXZCbnkDktXCunjvATzvPkGTgKxYlyY4un0+hS+RCRqw5o+Tef0XLpSv616lM3HZdXlZ/Bq2cRtfY5bz/2SZisH8oll0QhMqlao3WNPAoeAe+lJNJWkoyKYlRREQkkK3vd7AVkmSGR6PWVEs7w9+XK/Zd+Q9apX3O9rHBa5nQLpId246h+Y6Q5l3GXj618G/sg+r8T8ybtoTDcfpvCGV9g5Tk05v5c57i+Kj3WXa+/K3MouXSdev0z2w/lSgvqy1NX3uHtonbWbrzMjk4ibdfCYJQ4Rzrd6KZRxrXr95E8zp5E7UlVlXtcXCQGwS3rnDu1DliMw3Zz5rj2/ppqqcc4fezsUpu6SSrWrRpW424v/ZxKbn8+1ljMHqw1bd1q2nVViRtUGoawqfvLeGiztGVTd2XGD7qAxpcmceACTtI0PPIq+zBtg9LFjzN0RHvsPTfCgq2xZTrXsSrJgVBMAZtsHW+wZ/7z5Gisz9S2/rg38wPh+R/+OPYdb1buGUPtnVo286L2L/2culW+fezxmD0R39u3xhVWrpfUi5s5ZtlB8hr0Yc3m5oqufksq3dlYMAMlqxez9qlc5nwYSeqW977WORe4/j0mEzQxOdxx5HOo5YRGDiWLvYF0yvL/PQhSfZ0GxPEt+82VnKKZ6z5C4LwaMtNDufMv1FIzvWo6Vg4+Kmtq1G3WVvaPtmZDu3b0biuJ9bqe+937jWOlW8r2rXwxYoqeDXpyOPtm+NhXjC9sszPGB7J52xTft/JoSQH6vi5KznyCqndm+kz+tM05zQ/Bi4gcOsp1G2H8s24l3GVil8xpY0Te2QTyzefIJFUzmxbxvJlW/knRb9xy8cEKwc3XOwslO67GXf+giA86nKiw4nOscDO3lLJAZVNLR5r7YdTbixX/z3N+auxmLg3pmWz6lQpYb9T2jiZN0O5EBZLFtnEX/2XC+fDSMzWb9z76RF9qUU4kVHg6Zn/tXVJcqLbez1xOj6P4ZOW83PIfvZuC2R8wHqi/N/kzdZ3V5M+46SFH+fAiQgyyCTy9AEO/nGKyBxVmeZXiG1Dug8YwID+/QvSB52poefGU+75C4IglCqVjFS55WmVf0OnJFngVb8WVeJO8/fJC9yIjiLm2nmO/32BNLs61HC5+/SvPuPkpsVxMy6VHHJJT4wi9mYC6ZJmP2v4/IzpEd2r5pCTKxfe1AyVJkCpG9HMD84dD8XO2xvvatW0qVpeGBdjraley1MZT0dZxrmtPONqqG1x9/HFWzdVc8FK6V2q8s5fEAShVHnkybtXlYlaDnzyDxNHHOwhIS4RMysrrCwttclaSiYpywxb24IW8B1lGee28oxrBI9osPXCww2iI64haS7cu3vgYmJO64GLWLR4iU4aRxc3ldw7vwVcSFnGua0842okHmLh6FGMGTO6IAWs44yeNyGUe/6CIAilssZSbgGkp6Wg0uybqsjBTqXGza8jj3d4Sie1pJqlSh62mEcayzLObeUZ1wgeyWBr6t+BxxwzCLt8LT8jIYEkMgmZ1pNePe9OfecWcwdvWca5rTzjVoQHPX9BECo9E3sPnM1zSEpSblTJypL3OrncOL6Dvbt33pUOnL2ZP5yusoxzW3nGNYJHLtiaODTj/f7P4XhxI+v+yMnPTLtIaKQFDRrVIzs9jfSMdG1Ky3LEr2VdHMzz8ofTZdA4akzVyk+NssyvIj3o+QuCUKmpTB2p3cAHi6RQwmKUe0lybpGSrsbB0Y683Gxy83K0KUcyw87ZFvPiTswZNI4JJrrdZZmfEVXuYGvhil+rVrRs2ZoOnV/mjfe/YNaCiXS1Pcmy+Zu4rrxFSqUKZePaQ1h2HcbYN9pRy8Ue5+rNePGzCYwfPoTnfO6uJr3HiY4gKs+Bpt2ep2VjHxwkqUzzq0gPev6CIFQiaiscnF1wdHLBxdOX6nWa0qJDK6qZxXHxzGXSlctbKlUyVy5Goa7WmEY1XbGxMMPc2gkv/1Y0bdwYL1vtYIXoPU56KmmSBU7VfHB0sMFMu581fH7GZPSXWkya9JXy697Gjh2n/KoYmpc/fPmsvfa35uJ8TmoskdevcfVsCBuCd3Elo/BhjebOteqd+/PJux2pbWcurygVmbHn2LNiNkv2Xi/2LUyljZMrd0uSmpovjmJM3za4WVxl3UcDCb6ef6dcaeMWR5+XWhR9iUVxL7Uo6/wFQRBu07zUorlPFe1vzX42LyddjnupJCfc4ErodVLziu5n1Vh71Me/nhdVzdXa/U5uRjwR509xMSqVPCzueqlFaeNo7rvR3H9l492cJnXdsFQnE3pgP1fS8/e/pY17vxg92A4eNAh3j4LnWYsTFRnF/AULlK4HS7tyXDxxVicRFZNIllT6ytBnHJXaBkc59t+KTSZHZwWXZX4V6UHPXxCER48mOJpWscJClU1GRpYcZPXZz5Y+joQp5uaQk5ldKJCWZX4VzejB1tbWliZNG2NuJtdAMbKyszh54hTJyclKjiAIgiBULpX2QwSCIAiC8LAQd8IIgiAIgpGJYCsIgiAIRiaCrSAIgiAYmQi2giAIgmBkItgKgiAIgpGJYCsIgiAIRmaUR38aN2qCn5+/0pVP83aRQ4f+IPzaVSVHEARBEB4NFR5s2z3env4DBnD16lVycwteaF+lShWcnBz5evo0Qi9eUHIFQRAEofKr8GA7fMRIUlNT+GHzZiUnn+adlL1eew1/Pz+mfj2VK2GXlT7GZen7NG+89iR+NWvgWTWb+BuXObFjAxt2XyD5Abyyq6LU7z2NIe2K/x5j9K9TmbjtutJVOkmyo8vnU+gSuZARa84ouXfTvE+549BZdE8NYmjQMSVXEIRHVdUarWngYaZ0FZZ+7SinrqUj2dSkWWNPLJT8ohLOH+BCnNJRiVX4NVtrK0tSU5TvF+rQnEbe+H8buXjxIl9NnMTq1cF3paWBy/joo0GYmxe/8gyheRemZ6fhzJk5jK418gg/sp2Nm3dzOsGVTkNmM290Z1y4fy/Pknx6M2/zUvrVq5h5WjtWw8cxnXMHD3KwSDp69e76vzc1dm6+eDlbKd0lMcFGHs7b2VrpFgThUWZqYY2NRQ6JUZFEF0mxKconTLNvEV9M/5iEXCytrTD977Z5DFLhLduAgC8JCwtj586dSk5hJiYm1KhRQ+kqzNLKipdffoWQffvYtGmDkls2kuOzTF4yCLc/ZzBu1j6idL4+4dDqY6aNeYrYpe8z+qf7c0gl+fRhyYKnOTriHZb+W/6tS5+v/+iruK8CFUeSLHlhykbeS5pG92n7lVxBEB5Vmq/+NHO+wZ/7z5FiwH5IklQ4+3ekqeMN/jrw73/6LKO+7vvdyHl5eYSGhhabTv/zD8eO/k29evWUoctG06pt+npvmmT+TtD8woFWI/7PpawNicOzeWsc5YElyZ5uY4KY3rspjV4bzYyl69k8upMytHwQUL0rAwNmsGT1etYuncuEDztR3bLgGEXCjkavfsKUBStZt3EjwUFzGNWnzZ2Ws0+PyQRNfB53HOk8ahmBgWPpYl8wfmnTL6/b01+8aj2rF81kwsBnqVml9OlXbdiL4VPnsyJ4PSvmT6Rfa+di/yTutfyl1a0gCI8gq+rU8jTj5qXLj0Sg1XjoHv3Jzc3F1FStdJWVG371HEk6vIfDRb5bq6FSpRMy6336TvyZeO3RmAlWDm5U7zSIj1qmcfTH5Sz+5bx2WHXt3kyf0Z+mOaf5MXABgVtPoW47lG/GvYyrNlCb4t/vayb1bY767A5Wz5/PhoNxVH9lJON619ROI/bIJpZvPkEiqZzZtozly7byj3Kmt7Tpl5e6zlvy9AfRwuQ8v65YwIqfz6JqMZBvZr5LPZOSp2/epD+zJr9JnZQj/N+ShazZE4nfgJF0K/K1xNKXv+S6FQTh0aP5rKdLzRrYpl/lclSWklv5VdLnbKtTzQNuRIYr3fqxzDvC7C9ms+6nHew8HiFvFE50e68nTsfnMXzScn4O2c/ebYGMD1hPlP+bvNlaU31q4k9sY/WcAEbPXysPE8KWoK8JPpJNjeaP4SQHnLTw4xw4EUEGmUSePsDBP04RmaP5sLE+078H24Z0HzCAAf37F6QPOlNDCdKS5MwL/brjdWkFowK+Y8tv+9mzLYgJI4MI9XiF914q/jvDkuTOy28/j/2p7xg1aYW8XL+z+4dFjJx+EnNXZSCZIctftG4FQagkzJ3wrdeAunXr6yQvrEtqLFj5UtPdlJuhl0l5RFq1Gg9FsE1OvkV0dCRRUTdYtWoFX34ZoPQpI5UparlxnJuVrWToJ13z9X7dU87qRjTzg3PHQ7Hz9sa7WjVtqpYXxsVYa6rX8pRbyZlEHfuZTXvDyFFb4uhVi0atnqCWXS64e+ClTKpYekz/ntS2uPv44q2bqrlw5zYnefpN/Ew5sfMnonU26rzon9l10oR6TRpjWtwfhKkf/rXh2J4dSss/X865nRzQvcnZgOW/q24FQagkTLGyrVo4WVvIuXfTnAl0rSW3ajMerVatxgMPtjk5OaSmpuLeehRmls5KbjlJ17gRLcc6z2pKhn5ycuUAqUsOli4m5rQeuIhFi5fopHF0cVPJvb21g5nXeIZBExcSvGkTKxfNZNygHjS01/a6Nz2nX6LEQywcPYoxY0YXpIB1nLkdIN3d5eknEhOVmd+tUKmyiYxOwMTNg2LDubsbzvJ48THK3YR3RBOboPzUMGD576pbQRAqh6xozv39JyeO/lWQjl/mVnE3TFlrWrUmxDxirVqNBx5s8/Lyd8L2dV7EzM5H+7v8IrhyNROnZm2oXcx1Sc01g4a9xjCh/5PaG6RKlJBAEpmETOtJr553p75zjyDRhA8nDqVdlZOsmTqUd3q+wv/6DmRGSIwykXvQY/rlEp/ALckGW/u7N2p7Wxt5/vHEKt2FaMbDlqoORcdzlMdTfmoYe/kFQag0NPtdN7lVa5MWTtgj1qrVeGDBVtOizcrKlP837FSvPlSqXA5s3MI1j+f5oGcNzIsEVFOfl+jzWltcU68WOk16l7SLhEZa0KBRPbLT00jPSNemtCxH/FrWxcE8D1zrUcc+hUPrFvPLkVDi5W1Iksyp5a1zcfMONYXu/dJn+uWRfp5LEeY0e7xtoTqQzFvTpqkFkaHnSSuu/GmX5D8GM5q2LTweHo/TQvd4yNjLLwhC5WFTkxpuKmIuP3qtWo0HEmw112hjY2OIj48jKSlJya1YuaEbWLQ5gpp9ZjLn87d4tn0z/P1b0qnnUGZM7UftG5uZvylMGbp4KlUoG9cewrLrMMa+0Y5aLvY4V2/Gi59NYPzwITznI1df7BWupdjQpMtLNPGxw8reh1a9RvF26yrKVBTREUTlOdC02/O0bOyDgxzE9Jp+OahUYXy/7iB0GExAn/bUcXXArXZb+owfwhMmhwneWPxrM1WqS2z+/hjmHQYypndbajo74F6/E0NGPoNjsjKQrKKXX3vG4a05LFv8KR1sNXd637tbEIT/Bs21WvdavlinXSUs8tFr1WpUeLBNTUvH2qb41wjelpaWhkfbUTToc+hO0vB9ZsGd7lqvbNTmlZVKlcWpFcP4dMZOEms9xwcjvmLatAl88nozsv5YwpixQZwt5rGgopL2zWDk3KPYvTCcOcvWsGL+JN71v8WO2QGsOJeDKu8vgmZv4VajD5i8MJgNq+czrHUYG7ZdUaagyAhh5dLDqFsPZPzkL3hOuZxZ2vTLKylkFqPnHcH6uRHMClpN4Kwv6GZ7jHkjZ7AvueTyx/0ynfGrL+DVfTRzV6xh6dd9cds/g3VFntqp2OVXY+PkiIOjE7bm+nQLgvBfYGJbg5qaVm1omEEvv6hM7tuHCHRNmDAOUysXzKsW3ECjCbTRR+aQkXhR252bnkjmrYp7f7La0hlX2yxiY26RXYZTGJpWlbWLJ87qJKJiEsmSCk9DUtvg4eOOdeZNrkYkklPCBqWSh3O0h1uxyYWGKW365aWZvq2bBzZpkUSl6H+zkqSyxMXLCSk2kriMkserqOXXTMdUnUOucudyad2CIAj/BfftE3u61m8IVn4V0LRmr+4aRFqUeMG9IAiCULkYJdiWhQi2giAIQmX1QG6QKk5W8nVyM3Qf4hQEQRCEyuGhadkKgiAIQmX10LRsBUEQBKGyEsFWEARBEIxMBFtBEARBMLL7cs22efPmdHiiI9ZWd75HU4jm1Y1hYWH89NM20tPTlFxBEARBqByMHmwd7B14qlMnpat4arUpjz3WAkn+N378GLIN/DSeIAiCIDzMjBpsPTw8sbcv+Vtz2dnZRERcl1uz6VhaWjJz1hxWrVzB4cP5r28USqaytMMmK5Hk3If7TUqSZIZb/cdo4GFO4sUjnIxIV/oIgiA8OowSbE1MTBg8+GNatmyl5JRM8y3bb7+dzblzZxkzZjxnz57mhx82K33Lz9L3ad547Un8atbAs2o28Tcuc2LHBjbsvkDyQ/jlifq9pzGkXfHvlo7+dSoTt12XA5g/g1ZOo2vsct7/bBMx2NPl8yl0iVzIiDVnlKHLpuj8pew04qIiCD2yjU27LxX/laASSFJV2n0ykxGdPSAri/OrPmTkj8V+1E8QBKFSM0qwbdWqFe+//yFffhkgt1wjlNy7mZqa8uZbfahfvwGjRn7OqFFjOH/+XzZv/l4Zouw0X4bzeno4AQM7Yh/zNwf//pdrt0xwq9eGJ1rXJOvP2YyYspubD1nAfWzwWia0i2THtmPEK3m33Tr9M9tPJcpls6Xpa+/QNnE7S3deJgcnes1cRffrX9J7Tvm+IVt0/iZmNjh6N6RNy+pkhUxj8MwDer9IXLJ9ienBH2Kx8RNGr7pEuvZCwcPdEhcEQTAGo9yN7OVVjatXw+8ZaDU0N0Yd+esvPD08lZwK5PQsAz96EpPD3zB0cABzl63nh++DWTzlYwZN3klW68EMe8FZGfghk3qBHWvXEhwcXChpAq2GSpXMyY3zWbwrjFxjfEFDZ/5rVn7H3EkfM2TBcaye6kuP2sow+nCww04O2eeOXERz25sItIIgPKqMEmxVcgCQpIIv/jT0b0j37j3upBdffAkLCwttP0lugmpOO1ckTau26eu9aZL5O0Hz9xFV5Asx8X8uZW1IHJ7NW+Oo83F0y+pdGRgwg8Wr1rN60UwmDHyWmlUK+kuSPd3GBDG9dwN8Ow1h2uLVBK8JZPbEwXSpXvD9WnXz/iwInEJ378InDST3l/kqcBGDWpfv+3C3l+PbdxsrOcW7XZ4lq9ezdulcJnzYieqWhZdJX7G/H+ICHtSsbank3Hv6jd6dS9DE53HHnk4jlxEYOJ3Xqt9d18WNW1DPTWn02mhmLF3P5tEFN9npN64fNbsO5svZQQSvXc68CR/Qzl33y/35Ck0raD4TB75APZvCdVSR9SgIwqPpvjxn6+3jqz1VfDs1aNAAK8viHwOqGG741XMk6fAeDhfzzVqVKp2QWe/Td+LPxCstQ3Wdt5g+YxAtTM7z64oFrPj5LKoWA/lm5rvUM7m9YzXBysENn9b9Gfm6I2e2BrJo2XYumLVh8Iyp9PTJHyrn5Emu2DSm85M18jMUvp2eoanddU6dyFRyyip/OVzs8g9YiqOu3VsuT3+a5pzmx8AFBG49hbrtUL4Z9zKuOgcYerOxwZo8crLz7xQvbfrX969l+eYTJJLKmW3LWL5sA3/GaEfVY9nyy1e90yA+apnG0R+Xs/iX/A/p6juub/uPGNg+i7+3LGNJ8EFSar3EiFGv4SO3r2/Ln9YgWpleYPvyRazecxHLNv2ZNOE1fJXhKrweBUF4JN2XYPvLL9uZMmXSnTR9+jQSEo350YHqVPOAG5HhSve9SZIzL/TrjtelFYwK+I4tv+1nz7YgJowMItTjFd57yV0ZMp+1Tw47xkxg1c8h7P/tBxaOGcfmmNr0eqsjVpodcM4RfvsjEe/2T1FD2SFLkjcd21cn+dAe/sjQZpXMtiHdBwxgQP/+BemDznemVRpJcqLbez1xOj6P4ZOW83PIfvZuC2R8wHqi/N/kzdaGrXa1fQNeHfQitTNP8eeRHL2mn3DpTw6ciCCDTCJPH+DgH0e5mqY546H/slnmHWH2F7NZ99MOdh6PMGhcK4uzLAtYwraQg4RsD+SrwENk12xLG9f8/pppPS9Py+vySkaOW8LW30L4Nfhbxs/czGWzhjSTD5wquh4FQXh03Ze9xXvvfcDq1cF30rJlK3F1U/Z6xqAyRa2GXH2f11U3oomfKSd2/kS0znXFvOif2XXShHpNGmOqG+jO7GWH0krTUOWF8eveS1g1aEgtTbcql2O79xPn1Y6n6uQPQ/WOPO6dwB97jpR+nVVti7uPr/aMwJ1UzQW9zwXI5WnmB+eOh2Ln7S2PW02bqsnLeTHWmuq1SrlG7tKViWuDWbtmLcHrN7N59Te8Wz+JHXPmsCtJ7l+e6Rswbvr5U1zUvQRgwLhZ/57mrM64qefDiMIFV/kgTEvdmKaadb5jq5xfMFz6yeV8MTSALeFyXnnrURAEQXFfgq3m7mLdlu2UKV8Re9OIj4BI17gRDe6e1ZSMUri742KSSExU4dO7KlU2kdEJmLh5oLtbTYuPI71IwIyJjUOyd8HdNL8778we9ke58/hTDbTddZ7qgFfMAXadyNF231PiIRaOHsWYMaMLUsA6zuh7M5S7h1wec1oPXMSixUt00ji6uKnk3t7KgCVI/Zed69YRLKe1W44RSx6XN09l/oFYJM0ylGf6Boybk5ur/FIYMG5mdpHTB7k55MpBVXV7i9eu81vcjMpSMopR3noUBEFQ3Jdg6+Xpqb1OW5D8MDMzU/oWlpKSrPwqjwiuXM3EqVkbat+53lpAktQ07DWGCf2fzL9BKj6BW5INtvZ3BzN7WxtIiJcDTgFL26qFW7oy+6pVUaXeIl6JpSrVJXaHXMXt8Y40oDZPtvPkesguzusbMMsjIYEkMgmZ1pNePe9OfeeW8nhQ2lUO/LSN7dt/4qd13xL8Zxq1X32H9lZKmcsz/Qc1blHyOk/ClqqO9/gTqMj5CYLwSLsvwVbfG6QyMzP4+++/la6y05zGPbBxC9c8nueDnjUwLxIYTX1eos9rbXFNvZp/g1T6eS5FmNPs8baFhpXMW9OmqQWRoecLvcxB5d+KdjqLL0kOtG9Th7ywUMKUPI0ru/YR6vQ4HV/tRDu3MPbtDlX6GFnaRUIjLWjQqB7Z6WmkZ6RrU1qWI34t6+JgXnCneGk0jxn9tnILl63b0ef1+qg19VOe6T+ocYvSrnNTmrRpj6XOOldV60i/we/T0auc5RQEQdBxX4KtvjdILV+2jPj4oq9yKJvc0A0s2hxBzT4zmfP5Wzzbvhn+/i3p1HMoM6b2o/aNzczflB8aVaowvl93EDoMJqBPe+q4OuBWuy19xg/hCZPDBG+8oB3utpysevQe24e2NV1wdK9H5wEB9GmYzJ6Nv9y5u1krajch5+x5ps9zOJ3fx+57P3ZcYVSqUDauPYRl12GMfaMdtVzsca7ejBc/m8D44UN4zsew1Z4X/j0rdsfh2e09nnMt3/Qf1LhFadb5pnWHULX/iHF9nqC2qxPVGj3NR58N4dUWVtyKqvh6FATh0WWUvUVCfAJurm6YmRd/qliXl6fXncBbkXcoq1RZnFoxjE9n7CSx1nN8MOIrpk2bwCevNyPrjyWMGRvEWZ3HgpJCZjF63hGsnxvBrKDVBM76gm62x5g3cgb7kguf+k3/ezlBV1ry8ezlrAqcxccdTTk4ZyyLjha95pvAnr0nMTFTc3rvHuLuxylkRdK+GYycexS7F4YzZ9kaVsyfxLv+t9gxO4AV5/S4bqxDc+362Jp1nJT8eP2dx7UtwfJM/0GNW1TSvm8YOf9veZ1/yuyglSya8gnt5YOrhV8t5rjyzumKnJ8gCI8uo7yu0dLSismTJmOiNiUmJlrJvZvmdY21atVm7dpV7Ny5U8k1DrWlM662WcTG3CL7Hm8y0lzPtXXzwCYtkqiUwjfoSJJjodcimlq74WmXSeSNhBKnafN0ACs/MmFRn/HsTr9/wfY2TXmsXTxxVicRFZNIllSxy1Ce6T+ocYvKX+ee2Gfd5EZCOnnFHBQZux4FQajcjBJsNTQBt23btvf86k9OTg7nz5/Xvg/5v6BosL0XlYkZZlUb8N6USbQPncK7Mw6RdR9btoIgCMLDw2jBtjLSN9hKUhW6TFjP0JZm5ET/zuzPvyYkTgRaQRCER5UItgbQfJvV97F2+KacZP+Fkq8vS5IFno1bUMsyjgsnzhGTJQKtIAjCo0wEW0EQBEEwMvHsgiAIgiAYmQi2giAIgmBkItgKgiAIgpGJYCsIgiAIRmbUYFu3bj26dXuex5o/homJiOuCIAjCo8lodyP36dOXp59+mvDwq7i7e3DjRoT2vchZWff4pNkjSGVph01WIsnK6wEfVprHntzqP0YDD3MSLx7hZES60kcQBEEojVGCraZFO3r0WCZN+pJLly5ha1uVL7+cyL59+9i6dYsy1P1h6fs0b7z2JH41a+BZNZv4G5c5sWMDG3ZfIPker20sr/q9pzGknY3SVVj0r1OZuO26HMD8GbRyGl1jl/P+Z5uIwZ4un0+hS+RCRqw5owxdNkXnL2WnERcVQeiRbWzafanQV4xKI0lVaffJTEZ09kA+WuL8qg8Z+aMRv0csCIJQyRjl3K7mfcfXrl/TBlqN5OQk/v77CHVq19Z23w+ar6Z5dhrOnJnD6Fojj/Aj29m4eTenE1zpNGQ280Z3xgXDjjMkn97M27yUfvVKH8/asRo+jumcO3iQg0XS0aspylDhHNz+K7/sOEb+t47U2Ln54uV89+cHDVV0/oePXyTOtCbPfjybhZ+1x0bns3KlqtqRl+VAe3XjJ7zZozujfryp9BAEQRD0YZRgGx8Xq/1gvJ29nbZbJbeiNAE47h6fz9P0H9B/IP7+/kpOOTk9y8CPnsTk8DcMHRzA3GXr+eH7YBZP+ZhBk3eS1Xoww15wVgbWl1r70Xu1vo3C1AvsWLuW4ODgQmn7qURtb823Yk9unM/iXWHkGuO9yTrzX7PyO+ZO+pghC45j9VRfehhy3ONgh518OHDuyEXS5E7JiGcEBEEQKiO1q5v7BOV3hYmKiqJ588fo8kxXHBwc6N69B9WqebN06WJSU1OVodAGrscfb8f773/IK6+8SnxiAn/99RcpKcnKEGWjabQ17Tee3p5H+HbsWv7NLhwc0q+fItmzI0/4JvP7vgtyAHHg+bELGFz7Cr+eKPhKkeTTg6kz38Xp1E6Sn57CrAGtcbWqim+LZ3j2hcZk/B5CqM5n+nR5tupBR/er7Nh6tPA3bnVIkn2R+Vri3/VVGiSF8P3hG/kDySyrd+XDoR/J9dSPN7o9QWOPTK6cvUxiTslBr6T5p0VUoelrT2N/6Qf2heZ/Iu5e02/07lymvNtMLrctPo9pyt2eKnJ9nEnMn+a9xr1dvg+8w4lq0I/PPxnEgEbxbNif/x1h/ca9RKjn//hkcH8+fPtVOjZ2Jenfk1xLKdwyLzStFzrStJoJN86dJ07nVZllqUdBEISKYJSWbW5uLlOnTubQoT948smnqFOnLv+c/oe83DxtfwcHR3r1+h9z5szj7bff4cKF83w+4jNmzphOZGRBkCk7N/zqOZJ0eA+HiwmGKlU6IbPep+/En5VAZIKVgxsudhb5A9xmaouzmxM2phB7ZBPLN58gkVTObFvG8mVb+ef22eAyK2G+OtS1ezN9Rn+a5pzmx8AFBG49hbrtUL4Z9zKuhpwKvs3GBmvyyMnO1naWNv3r+9cWKfcG/ozRjqrHsuWXr3qnQXzUMo2jPy5n8S/nDRrXt/1HDGyfxd9blrEk+CAptV5ixKjX8NG5BJA/rUG0Mr3A9uWLWL3nIpZt+jNpwmv4KsNVeD0KgiAYwGjP46Snp7Nx4//x8dBBBAZ9h7ubOzNnzebLLyfJQXYujz3Wgh82f8+QIYNYs2Y1UdFRypgVoTrVPOBGZLjSXX5p4cc5cCKCDDKJPH2Ag3+cIrK0FpFtQ7oPGMCA/v0L0gedqaHnzl2SnOj2Xk+cjs9j+KTl/Byyn73bAhkfsJ4o/zd5s7Vhq09t34BXB71I7cxT/HkkR6/pJ1z6s0i5j3I1TdPy1H/ZLPOOMPuL2az7aQc7j0cYNK6VxVmWBSxhW8hBQrYH8lXgIbJrtqWNa35/zbSel6fldXklI8ctYetvIfwa/C3jZ27msllDmvlUfD0KgiAYyvh7GUklz0T+p5zKlDT/5GCjuY6rcfv/CqUyRa2WW9hZ+a23B0Zti7uPL966qZoLet/+pG5EMz84dzwUO29vedxq2lQtL4yLsdZUr+WpDFgCl65MXBvM2jVrCV6/mc2rv+Hd+knsmDOHXUly//JM34Bx08+f4mKezno2YNysf09zVmfc1PNhROGCq3wwpaVuTFM/U07s2CrnFwyXfnI5XwwNYEu4nFfeehQEQSgnowVbS0tL/ve/15k7dz793ntfe3r4008/YULAOIYNG8rff//Fq917aPu/9dbb2pZvhZGucSMa3D2rKRkPSOIhFo4exZgxowtSwDrO6HuA4e6Bi4k5rQcuYtHiJTppHF3cVHJvb2XAEqT+y8516wiW09otx4glj8ubpzL/QKx8DCQvQ3mmb8C4Obm5yi+FAeNmZmcovxS5OeTKQVV1e8t1d5endYubUfd4fru89SgIglBORgm2pqamjB41ltatWvN7SAgXL16gYaPGcmtTbm7KEhLitaeYP/lkCCtXraBu3bpM/2Ymnw3/HA+PimhlRHDlaiZOzdpQ2+TuU7aSpKZhrzFM6P8kjjqndNV39uCKKhaYKz8fiIQEksgkZFpPevW8O/WdW/IH7LXSrnLgp21s3/4TP637luA/06j96ju0t1LKXJ7pP6hxi4rXTMuWqo732JQrcn6CIAhlYJRg2/yxFri5uxEwIYB169fy1Vdfcv36NZ577nlliHzZ2dkcPHCA8ePH8uWXAaQmp+Do6KD0LTuVKpcDG7dwzeN5PuhZA/Mi10hNfV6iz2ttcU29qtwgdUveZ+dhVc0HJ2VYSVLh29QfJ22XLjWm+ccMxpd2kdBICxo0qkd2ehrpGenalJbliF/LujiY599wpg/NY0a/rdzCZet29Hm9PmpNOcsz/Qc1blHp57kUYUqTNu2x1FnPqmod6Tf4fTp6lbOcgiAIFcAowdbZyYno6Gjtyyw0NNdoQ0Mv4eToqO0ujqb/4iULOXOmfG9Oui03dAOLNkdQs89M5nz+Fs+2b4a/f0s69RzKjKn9qH1jM/M35T+CognOp/85Q3bdHozs/xwtGjenU+8xfNreioIHlWTREUTlOdC02/O0bOyDQ5EgXtFUqlA2rj2EZddhjH2jHbVc7HGu3owXP5vA+OFDeM7HsNWXF/49K3bH4dntPZ5zLd/0H9S4RalUYWxadwhV+48Y1+cJars6Ua3R03z02RBebWHFraiKr0dBEARDGWUvo3lzlLe3D7WVN0ZpXtfYokVLLipvlLofVKosTq0YxqczdpJY6zk+GPEV06ZN4JPXm5H1xxLGjA3irM5jQdE/LWDRvlh8nh9MwJcjeM0vnBWLD5B/uKDICGHl0sOoWw9k/OQveO4+XOpL2jeDkXOPYvfCcOYsW8OK+ZN41/8WO2YHsOJc/nOy+lKpsjm2Zh0nJT9ef+dxbUuwPNN/UOMWlbTvG0bO/xvr5z5ldtBKFk35hPYmh1n41WKOK++crsj5CYIgGOqR+RCB2tIZV9ssYmNukX2PNyCpzG2xUSWTnKlkFEOltsHRHm7FJpNjjLupi6G5zmzt4omzOomomESypIqdb3mm/6DGLUozLVs3T+yzbnIjIZ28YtaNsetREAShOEYLthqaDxJoWrfRUVEcP3GcvDxxbUwQBEF49Bg12AqCIAiCYMTnbAVBEARByCeCrSAIgiAYmQi2giAIgmBkItgKgiAIgpGJYCsIgiAIRiaCrSAIgiAYmQi2giAIgmBkItgKgiAIgpEZ/FILd3fxoW1BEATh0RYVdUP5pR/xBilBEARBMDJxGlkQBEEQjEwEW0EQBEEwMhFsBUEQBMHIRLAVBEEQBCMTwVYQBEEQjEwEW0EQBEEwsvvy6E/z5s3p8ERHrK2slJzCcnJyCAsL46eftpGenqbkCoIgCELlYPRg62DvwFOdOildxVOrTXnssRZI8r/x48eQnZWt9BEEQRCE/z6jBlsPD0/s7e2VrrtlZ2cTEXFdbs2mY2lpycxZc1i1cgWHDx9ShhBKorK0wyYrkeRclZIjPMzE+hKER5tRgq2JiQmDB39My5atlJySpaam8u23szl37ixjxozn7NnT/PDDZqVv+Vn6Ps0brz2JX80aeFbNJv7GZU7s2MCG3RdI5uHb8dXvPY0h7WyUrsKif53KxG3XkSR/Bq2cRtfY5bz/2SZisKfL51PoErmQEWvOKEOXjXb+rWP5YeJ0dsfdXT9N+87hA4+dBEzZTqzq0Qsc+mxPkmRXaH0UXV83Dag37fqotpdx034h/iGsb0myoOPQWXRPDWJo0DElV3hUVK3RmgYeZkpXYenXjnLqWrrSJRjlBqkWLVrQsGFDRo4cQZ8+vUtM7777NocO/8Hb7/TVjpeXl4uqgnYoknwI4dlpOHNmDqNrjTzCj2xn4+bdnE5wpdOQ2cwb3RkXjH652mDWjtXwcUzn3MGDHCySjl5NUYYK5+D2X/llxzHitd1q7Nx88XIu/pq4ITTz963VkQ8+fQk3TSUWYe3ijY+7PaZK98NI8unNvM1L6Vev4tavYdtT0fVRdH3pT7s9eDzM9W2CjVxWb2drpVt4lJhaWGNjkUNiVCTRRVJsSo4ylKBhlGDr5VWNq1fDiYiIUHKKp7kx6shff+HpYYSPGzg9y8CPnsTk8DcMHRzA3GXr+eH7YBZP+ZhBk3eS1Xoww15wVgZ+yKReYMfatQQHBxdK208lanurVMmc3DifxbvCyDVCa0fKzEDdsC+fvlINVTEB9+GnxszMDHVFVk05tidjry9BeKCyE4kIvcSVy6GF0o0Ece+NLqMEW03rVJLylC5o6N+Q7t173EkvvvgSFhYW2n6SvDPXnHauSJr40PT13jTJ/J2g+fuIyiu8g4v/cylrQ+LwbN4aR51gYlm9KwMDZrB41XpWL5rJhIHPUrNKQX9JsqfbmCCm926Ab6chTFu8muA1gcyeOJgu1asoQ8m7+ub9WRA4he7ehQOV5P4yXwUuYlBrcyWnbG4vx7fvNlZyine7PEtWr2ft0rlM+LAT1S31CJ4Ju1m+OYr6fT6jh++9142EHY1e/YQpC1aybuNGgoPmMKpPmzutvII6a0j9l4bz9cJVrP5uBqNeb4a1ZEmjniOYPHelth6nD3ueWjr1rWFoGXx6TCZo4vO440jnUcsIDBxLF/uC4Utbx8Up6/Z0W9H1pe92pKtq49cZM2e5fNC1ioXTR9OnpTMmRealT9n0X19NafTaaGYsXc/m0QU3OFZt2IvhU+ezIng9K+ZPpF9r54fwYowgPHyMEmyL8vbxpX79BndSgwYNsLIs/ynPkrnhV8+RpMN7OJxx965ApUonZNb79J34853rYOo6bzF9xiBamJzn1xULWPHzWVQtBvLNzHepZ3J7h2WClYMbPq37M/J1R85sDWTRsu1cMGvD4BlT6emTP1TOyZNcsWlM5ydr5GcofDs9Q1O765w6kanklFX+crjY5R+wFEddu7dcnv40zTnNj4ELCNx6CnXboXwz7mVciwkIheVyYfUMNl2vQe9P36DGnfIXJkmm+Pf7mkl9m6M+u4PV8+ez4WAc1V8ZybjeNZWh8pfVt0N/+jWJZs+GNfx81pRGb37BxK++4oMGUezbuIL/+y0Cxyc/4vM36injla0MsUc2yQcKJ0gklTPblrF82Vb+Uc6+67eOi2P49lRY0fWl33Z0h0MHPhn6OCkH5Jb04mAO3PTilbFz+LS9rTKAfmUzZH1V7zSIj1qmcfTH5Sz+5by2j3mT/sya/CZ1Uo7wf0sWsmZPJH4DRtLNXdtbEIR7uC/B9pdftjNlyqQ7afr0aSQkJih9jaE61TzgRmS40n1vkuTMC/2643VpBaMCvmPLb/vZsy2ICSODCPV4hfdeKrw3sfbJYceYCaz6OYT9v/3AwjHj2BxTm15vdcRKEwRyjvDbH4l4t3+KGkpQkCRvOravTvKhPfyRoc0qmW1Dug8YwID+/QvSB53vTKs0kuREt/d64nR8HsMnLefnkP3s3RbI+ID1RPm/yZut9VjtuZcJnhXM1Wr/49M366Eudt5q4k9sY/WcAEbPXyvPJ4QtQV8TfCSbGs0fw0lnHCvVCZZMXsWukJ0Ez57Fr9dsqFvjGss0efv38kPQRIIOpOLZqCnO8nhlLUNa+HEOnIggg0wiTx/g4B+niMzRnGkxbB0XZtj2pK9St6PbnOy5tORzvt20i99//5W100cw709Tnnznf9TW1pW+ZdN/fVnmHWH2F7NZ99MOdh6PkOfhzstvP4/9qe8YNWmFPO7v7P5hESOnn8TcVRlJeDSZO+FbrwF169bXSV5Y627Dwv0Jtu+99wGrVwffScuWrcTVzYh/oSpT1Go5Xuj7vK66EU38TDmx8yeidU6K5UX/zK6TJtRr0hhT3Q3nzF52xCi/Zaq8MH7dewmrBg2ppelW5XJs937ivNrxVJ38Yajekce9E/hjz5HSr9upbXH38dWeEbiTqrmg97kAuTzN/ODc8VDsvL3lcatpUzV5OS/GWlO9ln7XyHOubmTWmvN49PyUd/zuPvWtUmUSdexnNu0NI0dtiaNXLRq1eoJadrng7oGXMpxGxqWzhCqnX1WqcK5clddN9HXC5UHz83KJuZkIVe1x0GRUUBnuMHQd6zJ0e9JXKdvRHbcOs+evgiM0lSqNkN1/kebRgIaaytKzbIasr/Tzp7ioe7rc1A//2nBsz45Crfecczs5cF3pEB5RpljZVi2crC0e6psoH4T7Emw3b/6+UMt2ypSviL0Zq/Q1AukaN6Ll/YdnNSWjFO7uuJgkEhNV+PSuSpVNZHQCJm4e6O7a0+LjSC8SMGNi45DsXXBXtrC8M3vYH+XO40810HbXeaoDXjEH2HVCjzv0Eg+xcPQoxowZXZAC1nGmtCB9m7zjdDExp/XARSxavEQnjaOLm0ru7a0MeG+a2YX/MJMVpx15edh7NLS4OxiZ13iGQRMXErxpEysXzWTcoB40LObR6uycYsqdJ6HEWoXO9CuoDHcYuI4LMXR70pM+25FWXBw3lZ+35UXfJAEX3DQLbUDZ9F1fObmF1wzubjjL84iPKboeo4k15kkq4eGXFc25v//kxNG/CtLxy9zSd3/1iLgvwdbL01N7nbYg+WnvFi1OSkqy8qs8IuSWUyZOzdpQu5hrcZKkpmGvMUzo/2T+DS3xCdySbLC1v3vjsLe1gYR4dA8NLOUjt6KtIPuqVVGl3iJe2RepVJfYHXIVt8c70oDaPNnOk+shuzh/PzbAhASSyCRkWk969bw79Z17RBmwdCpVNNtmLeVE1ef55P3HsFTyNSSa8OHEobSrcpI1U4fyTs9X+F/fgcwI0WmulVUFlkHLwHVcmIHbk5702Y60qtpyVzy0t6Mqt0jQLLSeZSvX+tLMA1uqOhSdh6M8D+WnIAglui/BVt8bpDIzM/j777+VrrLTnJI8sHEL1zye54OeNTAvskMz9XmJPq+1xTX1av4psfTzXIowp9njbQsNK5m3pk1TCyJDz5OmEyRV/q1op7P4kuRA+zZ1yAsLJUzJ07iyax+hTo/T8dVOtHMLY9/uUKWPkaVdJDTSggaN6pGdnkZ6Rro2pWU54teyLg7mBXeK60MVt4tvl/yJVdehvN5Ap8nlWo869ikcWreYX46EEp+lqQtzanlXwCWCcpdBjala+alh4DrWZfD2pCd9tyOcW9CmTsF0NcG9cbsW2CZf4aImTupbtvKsr7RLhEWZ0bRt4Xng8Tgtit7QJQjCXe5LsNX3Bqnly5YRH2/oY//Fyw3dwKLNEdTsM5M5n7/Fs+2b4e/fkk49hzJjaj9q39jM/E35uzSVKozv1x2EDoMJ6NOeOq4OuNVuS5/xQ3jC5DDBGy9oh7stJ6sevcf2oW1NFxzd69F5QAB9GiazZ2ORt/xE7SbknD3P9HkOp/P72H3vx44rjEoVysa1h7DsOoyxb7Sjlos9ztWb8eJnExg/fAjP+Ri+2uN+m8viAya4u+oE29grXEuxoUmXl2jiY4eVvQ+teo3i7dbFP75iiHKVITqCqDwHmnZ7npaNfXCQg4Oh67goQ7Ynfem9HSVZ0G7YcLo19MLJyYcWPUbxWVdHLm7ewHFU+petHOtLc6Zm8/fHMO8wkDG921LT2QH3+p0YMvIZHCviZJQgVHJGCbYJ8Qm4ubphZl78qWJdXp5edwJvRd6hrFJlcWrFMD6dsZPEWs/xwYivmDZtAp+83oysP5YwZmwQZ3Ue40gKmcXoeUewfm4Es4JWEzjrC7rZHmPeyBnsS9bZ8cnS/15O0JWWfDx7OasCZ/FxR1MOzhnLoqNFr5klsGfvSUzM1Jzeu4c4A1o95ZW0bwYj5x7F7oXhzFm2hhXzJ/Gu/y12zA5gxTk9rhsXoVIlEbJgPvtiC1o1qry/CJq9hVuNPmDywmA2rJ7PsNZhbNh2RRmifMpchowQVi49jLr1QMZP/oLnlMu7hqzjogzdnvSh73ZE+BZmb7Ogx4QlrFy5iIA36xDx/QQmbSq4M0mfspV3fcX9Mp3xqy/g1X00c1esYenXfXHbP4N1+U8GCYJwD0Z5N7KlpRWTJ03GRG1KTEy0kns3U1NTatWqzdq1q9i5c6eSaxxqS2dcbbOIjblF9j0ew9ecorN188AmLZKolCK370iO9Jq5iu7Xv6T3nCOYWrvhaZdJ5I2EEqdp83QAKz8yYVGf8exON2xnXBE05bF28cRZnURUTCJZUsUvg6S2wcPHHevMm1yNSCSngg8qyloGlbxcjvZwKza50DLdax3rS9/tqThl2Y40TCzscXe1IDEiirQiL9a4TZ+ylXd9SSpLXLyckGIjicsoW/0JwqPGaF/90QTctm3b3vOrP5rXNZ4/f15O/yo5D7eiO8l7UZmYYVa1Ae9NmUT70Cm8O+MQWfexZSs8vAzZjgRBqByMFmwrI313kpJUhS4T1jO0pRk50b8z+/OvCSnmCzrCo0kEW0F49IhgawBJMsP3sXb4ppxk/4WSry9rPjvm2bgFtSzjuHDiHDFZItAKBfTdjgRBqDxEsBUEQRAEI7svj/4IgiAIwqNMBFtBEARBMDIRbAVBEATByO7LNdvmzZvT4YmOWFsV/90azSNAYWFh/PTTNtLT05RcQRAEQagcjB5sHewdeKpTJ6WreGq1KY891gJJ/jd+/BiyK/pTZoIgCILwABk12Hp4eN7zpRbZ2dlERFyXW7PpWFpaMnPWHFatXMHhw4eUIYSSqCztsMlKJDlXPFb0oIl1IQhCaYwSbE1MTBg8+GNatmyl5JQsNTWVb7+dzblzZxkzZjxnz57mhx82K33Lz9L3ad547Un8atbAs2o28Tcuc2LHBjbsvkCyga/Zux/q957GkHY2Sldh0b9OZeK260iSP4NWTqNr7HLe/2wTMdjT5fMpdIlcyIg1Z5Shy6bo/KXsNGIjwrn011Y27btCRjnfgiVJdhW2rBVNn22l6PIXXRc3DagfbV1X28u4aUU+PPCQ0Dwv3nHoLLqnBjE06JiSKwgFqtZoTQOPgnfgSzmZpKUkk5IYJTekEsgWb827wyg3SLVo0YKGDRsycuQI+vTpXWJ69923OXT4D95+p692vLy8XFQVtHI0XwHz7DScOTOH0bVGHuFHtrNx825OJ7jSachs5o3ujIvux8ofEtaO1fBxTOfcwYMcLJKOXk1Rhgrn4PZf+WXHMfK/kaTGzs0XL+fir4kbouj8Dx+/RKJVfV787FvmDmyBZZHPy92L5NObeZuX0q+e7jjlW9bip1k+hm0rRZe/6LrQn7auPezR/U78w8UEG7ms3s7WSrcgFGZqYY2NRQ6JUZFEyyk2IV0+anXG268NbVo1wNmi4v5O/+uMEmy9vKpx9Wq4fGRz72/KaW6MOvLXX3h6eCo5FcjpWQZ+9CQmh79h6OAA5i5bzw/fB7N4yscMmryTrNaDGfaCszLwQyb1AjvWriU4OLhQ2n4qUdtbpUrm5Mb5LN4VRq4xjhx15r9m5RJmT/iYT4LOyVXaj1d9lWH0osbMzAx1hS6iEaZZjm3F6OtCEB522YlEhF7iyuVQLl88zemjB/jjz7PcsqyOv181zAw4QK/MjBJsNa1TSSr4uHdD/4Z0797jTnrxxZewsLDQ9pPkFaE57VyRNOu26eu9aZL5O0Hz9xFV5Asp8X8uZW1IHJ7NW+OosyFYVu/KwIAZLF61ntWLZjJh4LPUrFLQX5Ls6TYmiOm9G+DbaQjTFq8meE0gsycOpkv1gm+Cqpv3Z0HgFLp7F97IJPeX+SpwEYNamys5ZXN7Ob59t7GSU7zb5Vmyej1rl85lwoedqG5p+Iav+Xj6jZ2/c97Ehzp1lPWGHY1e/YQpC1aybuNGgoPmMKpPmzstQJ8ekwma+DzuONJ51DICA8fSxV533mp8nh7IhBnyughexeKpQ3imhqXSr3ilTbO09Vecsm4rtxVdF/puI7qqNn6dMXOWywc3q1g4fTR9WjpjUmRe+pSttHVSsGxNafTaaGYsXc/m0QU3L1Zt2IvhU+ezIng9K+ZPpF9r54fwQovwX5CbHM6Zf6OQnOtR01FsRRr35Tlbbx9f6tdvcCc1aNAAK8vyn/IsmRt+9RxJOryHw8V8Y1SlSidk1vv0nfjznWtl6jpvMX3GIFqYnOfXFQtY8fNZVC0G8s3Md6lncnunZoKVgxs+rfsz8nVHzmwNZNGy7Vwwa8PgGVPp6ZM/VM7Jk1yxaUznJ2vkZyh8Oz1DU7vrnDpR5HulBstfDhe7/MBXHHXt3nJ5+tM05zQ/Bi4gcOsp1G2H8s24l3EtJmiUylRuTco77ezcXHmnbYp/v6+Z1Lc56rM7WD1/PhsOxlH9lZGM611TO3jskU0s33yCRFI5s20Zy5dt5Z/bZ8FlFvXeYshTuRz/aQWLV+4i0uVpPh7bj0amJS/bvaap3/orjuHbSmFF14V+28gdDh34ZOjjpByQW9KLgzlw04tXxs7h0/a2ygD6lU2fdXJ72ap3GsRHLdM4+uNyFv+S/zFa8yb9mTX5TeqkHOH/lixkzZ5I/AaMpJu7trcgGCwnOpzoHAvs7O99EP2ouC/B9pdftjPl/9s7D/CoirUBv5tNIb03AqFLS0IR6So2FAG5gHh/4aIISm8KSBOCChZEiiBFCb2IlOsFpUcSqRoICVUgIRAIJCGN9L7/2c0BNn032UWUeXnmIWfO7JyZ+b6Zb9o589ns+27u3C8NelB8aepSyxNu3Y6WrytGpXKhx+A+eEWsYar/d/z062ECdwUwa0oAkZ7/YshrxVsca+989k2fxbrdwRz+9b8snT6DHfEN6fefLlipDVl+CL8eS6F25+eoJxs2lao2XTrXJe14IMeyNV7lY+tDn+HDGT5s2AP33ov346oMlcqZV4e8jvPpxUycvZrdwYc5tGslM/1/ILb5AAa000/s6lOMmvZ9kSYFl7l4QX1ou5KksF2sX+jPtCUbpfiD+SngCzaF5FGv9ZM4S+nMjD7NkbAYssnh9rkjHD12htv5D4yVufkF1vgv539BRzm8bz2zF+0n0a0dHRvJAcqgvDj1lV9x9NMVXalUR+7h7EDEig9ZtO0Av/22l41zJ7H4d1OeffvfNJTC6Z63ymVyD8vCEBZMXsDmn/ex/3SM9AwPer3VHYcz3zF19hrpt79x8L/LmDI3HHM3+UcCgd5kkJ0BVlZlb/h83HgoxnbIkPdYv37Tfbdq1Vrc3I1YixWmKJVQoOv7ukpfWjQzJWz/z8RpTZwVxu3mQLgJjVv4YardQJ4/xL54+W8JRWEUew9FYNXUhwbqa0UBoQcPk+jViefuGY+6XehYO5ljgSGVr+0pbfHwrqOZEbjvarmi81yAlJ9WzeDi6Ujsa9eWfltL42pJ6bySYE3dBpWskdv58caYsYwZPYaxH0zj00Xf8UVvNy5v/o6dcer85RAbuptth6LIV1ri5NUA37bP0MC+ADw88ZKjqYjcP89yXutVmfxLkdzACVfPKqikvvLTRl9d0ZVKdOQ+d08Q+MeD3pdCkUnwwT/I9GyKj6PkoWPe9JFJ1qUzXNGeLjdtRvOGEBq4r9joPf/ifo7clC8EAr0ppFCqdgoTpdShK6f+PUY8FGO7Y8f2YiPbzz77lIQ7CfJdI6C6wS3JKHjUrCV7VIKHB64mKcTHFp/eVSjyuB2XjIm7J9rmKTMpkawSBjM+IRGVgyse8tbSwvOBHI71oONzTTXXjZ57Gq/4IxwIU48MKyHlOEunTWX69GkPnP9mzldmpO8hNa6uJua0G7mMZctXaLkZdHVXSLdrywHLwaQG9s4uOEvOyTKf+DN7+HbqcCb/cOl+R8G83kuM+mQpm7ZtY+2yr5kxqi8+5b9SXYqcvBLD+/w8JLMgKWQVVFJP+RVDX13REV10RENiInfkP+9RGHeHZFxxVydaj7zpKpP8AnVJa+Hhjov0jKT4kroZR4I4AVBQZaxRrxZmZaZL+qpj2/UP5qEYW6+aNTXrtA9cM82O0rJIT0+T/6oOMVy7noNzq/Y0LGO9TqVS4tNvOrOGPVu06SUpmbsqG2wdSiuEg60NJCeh3TWwtLUrNVJysLNDkXGXJLm9UigiOBh8HfeOXWhKQ57tVJObwQe49DCULjmZVHII/vJ1+r1e2g36ppIDy1P+4PtZM5n1sT+z5sxlyarNHLiQQqGcdhUtGPrJODrVCGfD5+N4+/V/8e9BI5kXrDWUe5joKb/i6KkrOqKLjmiws6WUPXSwx467JKsTrWPeqiUT9TOwxc6x5DOcpGfIfwoEemLi4ImLeT6pqVqbNR5jHoqx1XWDVE5ONidPnpSvqo56GvfI1p+44dmd916vh3mJRs/U+zUGvtEBt4zrRdNmWZeIiDGnVccOxcKqzNvRvqUFtyMvkallJBXN29JJK/kqlSOd2zeiMCqSKNlPzbUDQUQ6d6RL7+fp5B5F0MFI+Y6RybxC5G0Lmvo2Ji8rk6zsLI3LzHWi2VNP4Gj+YKd4lXBrTCOHdI5vXs6ekEiSctVlYE6D2mUtDSgxVcp/GowSceopP2301hUd0VVHcGlD+0YP4lUbd79ObbBNu8YVtZ3UNW96yaQEmRFExZrRskPxZ+DZkTYlN3QJBDqgMHWiYVNvLFIlfY8vXqceVx6KsdV1g9TqVatIStL30wBlUxC5hWU7Yqg/8GsWfvgfXunciubNn+L518cx7/PBNLy1gyXbipo9hSKK7ZuPwtOj8R/YmUZujrg37MDAmWN4xuQEm7Ze1oS7R35uY/p/NJAO9V1x8mjMi8P9GeiTRuDWEl8Cij1I8EUHXhrYDedLQRys+LVjg6FQRLJ143EsX36fj97sRANXB1zqtqLnhFnMnDiGbt7VFHvCNW6k29Ci62u08LbHysGbtv2m8la7Eq+2xMUQW+hIy1e785SfN44lDFmVKCNOfeVXEn10RVd01pFUCzq9P5FXfbxwdvamTd+pTHjZiSs7tnAahe5501UmZaCehdmxPRTzp0cyvX8H6rs44tHkecZMeQknQ0w0Cf7ZKK1wdJH03NkV15p1qNuoJW2ebksts0SunL9aajnlccUoxjY5KRl3N3fMzMueKtbGq6bXfcNryB3KCkUuZ9a8zwfz9pPSoBvvTfqUL7+cxfj/a0XusRVM/yiAC1qveqQGz2fa4hCsu01ifsB6Vs6fzKu2oSyeMo+gtOLKknVyNQHXnmLsgtWsWzmfsV1MObrwI5adKrmulkzgoXBMzJScOxRI4kNUutSgeUz55hT2PSaycNUG1iyZzTvN77JvgT9rLuqwblwBisI/CFjwE3d932PO0k1sWb+E99tFsWXXNTmETHYwa78/gbLdSGbOmUy3SpaKdaKcOPWRX0n01RVd0FVHiP6JBbss6DtrBWvXLsN/QCNits9i9rYHO5N0yZvOMimHxD1zmbn+Ml59pvHNmg18/8Ug3A/PY3PRm0ECQbkoLDxo/GRbWrVug0/jeng4mpF58yx/HA3hpphBvo9Rvo1saWnFnNlzMFGaEh8fJ/uWxtTUlAYNGrJx4zr2798v+xoHpaULbra5JMTfJa+CV/XV03i27p7YZN4mNr34RhKVyol+X6+jz82P6b8wBFNrd2ra53D7VnK5cdq84M/aESYsGziTg1n6NdiGQJ0fa9eauChTiY1PIVdluDSolDZ4entgnXOH6zEp5JfTmVBI4Zwc4G5CWrlh9KW8OCuSn67oqitlURUdUWNi4YCHmwUpMbFklviwxj10yZuuMikPlcISVy9nVAm3ScyuWvkJBILSGMXYqlEb3A4dOlR46o/6c42XLl2S3J+yz6NNyYa0IhQmZpjZNWXIZ7PpHPkZ78w7Tu5DHNkK/hr00RGBQPD4YDRj+09E14ZU/RGIrrN+YNxTZuTH/caCD78gOFEY2scBYWwFAkFZCGOrByqVGXWe7ESd9HAOXy5/fVl9NFlNvzY0sEzkcthF4nOFoX1c0FVHBALB44UwtgKBQCAQGJmH8uqPQCAQCASPM8LYCgQCgUBgZISxFQgEAoHAyAhjKxAIBAKBkRHGViAQCAQCIyOMrUAgEAgERkbvV388PCo5eFwgEAgEgn84sbG35L90Q7xnKxAIBAKBkRHTyAKBQCAQGBlhbAUCgUAgMDLC2AoEAoFAYGSEsRUIBAKBwMgIYysQCAQCgZERxlYgEAgEAiNj1Fd/vGp54ebqJl9BYlIi0dej5SuBQCAQCB4PDG5sra2tMTcz0/z97HNdaN6sGdk5OViYW3A1MpJ9+/Zp7uUV5JOelq75WyAQCASCfzIGN7b9+79JM8nA3uPgwUCCgoJo3749PXp0l30hKiqKgIBV8pXgn4LC0h6b3BTSChSyj+CvxpgyUanMcG/yJE09zUm5EkJ4TJZ8RyAQaGN0Y5uVlXV/ZGtlZSn7PjC2JpZKrJ+wlf43oTCnkMzL6RRk5Muhqk6T/l8yppONfCU1CnmZJMREE/HHTrYFXSNb8Xgagxo129P7zV50bFIbV5tCUmKjOBu4lc27z5JUWL0yUamaM2rtl7ycsJp3J2zjzt+wjMvSm8TYGCJDdrHtYASZDyFPKpUFXcbNp09GAOMCQmXf0pRMqzZxez/nk103S8kkHge6fvgZXW8vZdKG83LoqqFS2dFp/NdMetETcnO5tG4oU/6XIN99NNCUUeMQ5s7cyvXHtM4bE7t67aSOVtFMpobCfLIz0km7c53rt1MpEGV+H6NvkLK0tMTRwaGYob2HubsFXu/UwbGLC/btnHB8xoWa0nWNOlZyiKpj7VQLb6csLh49ylHJnTgdQYpVE3pOWMQ3I9tgqTLsUrXKuz+Ld3zP4MaGidfQ8alRenVnxtcf0bN2EiG71rFy3R7C46x5ashnfDm2A7bVLpNojv6ylz37QkmSfXTFGPmtCqX15gqJpvV5ZewClk7ojI2B9aZsTLBxr0NtF2v5umxKplXbnbp+b4mmpEyU2Etxe7lUv45h14VekqG9vnU8A/r2Yer/7sg3Hh00ZeTlhLl8bUgeFZ01NPrky9TCGhuLfKnTfps4ycUnpEgDGXu8fDrR3scD5UOpL38PjGZsb0TfIDT0dCl3LeqaHAJcunmgMDORRg9FI9rCXEkwJgpcXnHX/F9tMi6zb+NGNm3axIa1K1gwayzjAy7i/MpgeteRwxgMJWZmZigN1pEzdHzQsnd//NJ38cnEuazbuZ+Dezaz7IuJTFh5FucX+vGiixywiigUaYRvXcLyA1FV6NEaPr9VppjefMc3s8cy5tvTWD03iL4N5TCPClpp1Xa/nEnR3K6eTCrB0R57yYRfDLlCpnSp4lEQ3sPkEdJZg6JnvvJSiImM4NrVSKIi/uTSmaP8fiEBs5pNqGMrhxGgdHP3mCX/bRB8fX1xdXUlKCiYwMBALl68WMzl5ufh4+PDrdQ4Ymxvq2soiXvjuPtHErmxOVg3tkZhqiQrQjK+WQVyrPpTs21funhcZ9/OUyTJjYxCoSIt2pyWb7yI/ZXtBEcVSI+3x6/3CMaPGcG77wyg7yudeMI+RVKYG1IDUvQ7lYk7HQeMYfyooQz+Tz+6Pd0ch6TzhMeomxjw7juH+cPb4WZlR502L/FKDz+yfwsmMrvo95Z1X2boOCn+dwfz5qvP4OeZw7ULV0nJL1ubdY1vyJDB/LtrB1rUMSH67BWSy4lPjUpVg1a93qJNeiArD14hX6vhzYw8yW+/hRKZnEq2vK5XLM09utCylgm3Ll4iMVchxeVA94++5b3a0cQ2HcyH40cx3DeJH35L1viPbniNvWFxWuGucNn1TaZNHsPg/+tO55beqKLOEJlStFxQWX5LYgiZlUdZeqMmM6aGpDcv4BDxX4Iii9JdmVx1SacaO59+jHl/JEOHvMW/nvPDKfFPMpv0oFXOUbYcLX/3fnlp1eaeDO7JREo1zV/uTdPUYLafeHBqib466vvON3z2TitJZrZ4P6mWWWdqnNnPuWTHMnVjy+Eoze8q090HOnOVG/XeYuK44bzdqxNNrO9w+uxdmvR7n3HDh/HugB60q1PA1bDLFeq9dhklci9tEUTW/DfjRw9j6Fu96eLnRuqf4dxIfzAKq2qdj8gqO/8l68Y9VN59+fzrd3AuVnZVy3tFMnxQrhXnXd+6aOlSD0+rNGKiE8jV0sH8DBMc69fCPC2KuDQxulXzl71na6oyIeVYIunnpQb+ZtGmCoualihMTCSjCIUZVTe0FWIq9dikZjCvQDK0KlOaD/6C2YNao7ywj/VLlkiNWyJ1/zWFGf3ra4KrVAp8Bs9mSg8PbgRuYNHCAA5Eu9Bz0iR6emiCkBCyjdU7wkghg/O7VrF61U7OyrN4yob9mTtvGC3zz/G/ld+ycucZlB3G8dWMXriVM8VSYXyN/iPFN4o2JpfYu+Zb1uy+gKLNSL6SKmxjk/KVWqHI5vy5SAr9+jK2Z3OclQ/CKgpTib0ZQ7JkSNUUpXkUbU0v88vqZawPvIJl+2HMnvUGddS9I0ltrBzdqfv8KEY8lcmp/61m+Z5L9/1d7S008dy79m43jCn/58T5nStZtuoXLpu1Z/S8z3nduyhURfktiaFkpjc2NlhTSH5enuayMrnqkk415i2GMX/OABqlh/DjiqVsCLxNs+FTeLWq6SxFSZmUpio6evPwxhIy28Lv8eo75emGrrpb9Ps6Tw9jcIs4ArdsYPcFU3wHTOaTTz/lvaaxBG1dw4+/xuD07Ag+fLOx/DtdkOPuPIKRnXM5+dMqVmw6SnqD15g09Q2kLqAmVPXqfHn5L0cOpra4uDtjY6q+qHreK5ehbnnXpy5WiJkpZlKchVI7KyhCI+K/AnOVGakhyfKV1Ltv7Yh9B0fN3w6pdjzRqQuZmVkcO35M42cI1KO7pn1fpEnBZdZcUI9OapAUtov1URf5769XNdNsqqBjpLhtYmLrJ3HeeJUESQ2fbO1J2uEZLPrxtCaeY8fDufSiL9l5SumqgMzo0xzBh4E04fa5Ixz9U2201L1JZ14d8jrOpxczfPavpGp6focJCs/gm8UDGNBuFwv+KN2YlR+fCz0G98ErYg0j/LcTpxkdHebX3xP4cvk7DHltDx/+9KDXXJJrP85lkdsUhg+dy6r+NzinntoPOULw0fMk3B9ZONNdSrPX1bWMnLGNWM0zggmWOkWzBvvQyvtHrl3XBMWyMIQFk1dw5f7GKif5/+JYe+fzw9BZ/HSnKNxvQWFkLfmGfv/pwu45h8rNb9koDSIzfVA6NKXnqJ40zDnD4pB8jRwqk+v833VJpye93uqOw5nlDJ39izw6/Y1DF4ey4qs6cFnz+Iqx9aHP8OHclS81FEay77sDRGniq5iq6mhyxO8cyX2iXJmV1A19dddKEcaKOeuIlH6vCvoTsyeW0q/eDWa8vY4wtd9vvxHntIlpvi1xUV0iQYe83sPK4gKr/FdwQZO2o4Sku7F2YgfaS7KJ1nQYale5zt9D17pRFvrm/Q666KMcdyV5168ulo3C1J7aTephV5DIzQS17uj3+38qj8QXpMzda+DQuUgZc25mS736l3j22WfJysnW+FUZOz/eGDOWMaPHMPaDaXy66Du+6O3G5c3fsVOq1wpFDrGhu9l2KIp8pSVOXg3wbfsMDeylxtjDEy9NJHe4cTMT+04DGdWjLXVsldLvEjgdeIiLiZU02kpfWjWDi6cjsa9dm9q1amlcrcIoriRYU7eBngfxS/G1aGZK2P6f5caqiMK43RwIN6FxCz9MK9iQoCiM4ddFY3hn+EyWS6OKHM+O9J8wl+8DvmJQG/uiQEo/WqqfsW+nbGiLyApfzeRx/vwUreV36YxWY1IB5w+xT9OIFaGQ8r/3UARWTX1oIPvpitFlpsb1ZT7ZuImNGzay6Ycd7Fj/Fe80SWXfwoUcSJXu6yBXndJp2ozmDSE0cF+xaeD8i/s5clO+qAylLR7edait7Wq5ovP2J0PrqEwp3dBTd7MjLmiMjRqFIlrq4OVB3E2iZfEpFAXE30mR6rgDRV103cn985xsbIrIuBQl6borbp6yR3X1R0LnulEGeuddDxlWnvcqUKM2rZ97gae7PM8zz3Xluec60sgpj5vnznCraCJIIPFIGFtrH1u1BpF/N4+2+a00rwmlZ6TRqVMHLCxqyKGqgEkN7J1dcJack2U+8Wf28O3U4Uz+4dL9zSLm9V5i1CdL2bRtG2uXfc2MUX3xcdDc0qBQZPHr0jlsOmdGxyEzWbJxK2sX+jPslUZYVWDYNEiNqquJOe1GLmPZ8hVabgZd3RXS7dpyQB3x8JDiSyE+Nkf2KEKhyON2XDIm7p5U1jSqs515K5Q9Gxbz8QeDeGv0p/wQ6UrvyR/yipOUH80z7nInNlf+Rfnk6zhFlJmUSJaWMVETn5CIysEVjyrMrRhVZmoy/mT/5s1sktzGn0KlEWghV3d8zpIjCajU+dBRrpWlEw93XCR5JsWXfNUtjoQHkz4Vk3KcpdOmMn36tAfOfzPnS5R3uRhaR2VK6YaeupuXX8brf4WqEnMSOsiyDHLySnTiC/KleBUo5Naw2vojoWvdKAu9866HDCvLe5UouEtMRASRkou4lkC2lLa0q6e4FJ8jlaWOevgY8EgYW1MrU0k8KkxTTWnh60fMzRhCQkJwd3XntV495VBVIOUPvp81k1kf+zNrzlyWrNrMgQspFMoKoKIFQz8ZR6ca4Wz4fBxvv/4v/j1oJPOCtYZhEoqUcDZ/NoaBbw7ig4+XciDGledHfcGUbpVs301OJpUcgr98nX6vl3aDvgmRA+pIUjJ3VTbYOpRWYAdbG+l5SZJhKBuVSolSvV6tta6rLoaM6N/5Ye4Wzpr78lRLC80zUrHFzslwqmFpa1dqxO1gZ4ci4y5JZbQrFWF0manJvM6Rn3fxyy8/8/PmRWz6PZOGvd+ms5WcBx3kqlM61fJUl7VjSXk6SfKU/zQ2htbR8qiG7v4VVEt/KkBZ0qrVsKj+a0kPS4blkZdK3I3r3LoZTczVs0TG5WNXv4nUAdCtY/K48EgYW4VS6llJ/5zcHKlRowZXo6I4duw4qWmpmukQc3NjvCUn4daYRg7pHN+8nD0hkSRJgzmVypwGtR98z1ll4kCDtl1o4S51LrMTuHLqIOvnfs3eGAua+ZbcnKHEVL2kc4/MK0TetqCpFC4vK5Os7CyNy8x1otlTT+BoXigHLI8S8WVdIiLGnFYdO2CuZbxU5u1oLxnK25GXyv/ogklrxm/4LwEjWpd6983USz3qyCEtTSoAzTOkTk/7zsXeRVbU6sLg0e/SxUv/CqRo3pZOWvOaKpUjnds3ojAqkqI9qvcokd+yMLjMKkb96syva3/iqnUnBv5fk6Ky00WuOqSTzAiiYs1o2aG4PPHsSBt585jRqbaO6kh1dPchU606Xy5SxzK5EKta3jjL+VdvxKrTsjnOmqtqYBQZ6pqv4qhnKmIjrpKm9KBhAwcU2nr9mPNoGFvzomQUSkqhKiwkIjKC7Owc0jMysJNGQC7O1VbHskm4xo10G1p0fY0W3vZYOXjTtt9U3mqnPXVdl1dHTWTGpCF0aOiCrVN92vboTTv3XC5fvCKHkYiLIbbQkZavducpP28cJSVTKCLZuvE4li+/z0dvdqKBqwMudVvRc8IsZk4cQzfvCoq/zPii2L75KDw9Gv+BnWkkdU7cG3Zg4MwxPGNygk1bK9hRUxjGvsCbOHYdz8dDe/Nci3p4eNSjxfMD8Z/eB4+bBzgQXvSMbZuPo+g8ghkDn6GhmzO1fF9gxIQx9G5jxd1YOT49yM9tTP+PBtKhvitOHo15cbg/A33SCNy658FaZRn5LRNDykxHCqO3s+ZgIjVfHUI3yVbqJFcd0qlQRLBjeyjmT49kev8O1HdxxKPJ84yZ8hJOaXIgI1MtHdWDaunuQ6fqdb481Ous586eJ++JvkwZ1o02fq15vv90PuhsRYYcpqoYXIZ65KtMMqK4EpOFVe2meFZjFfCfhmFqUhm0btWKPn36lHLt27aTQzwg53Y2ObE5OBY4InX2UJoUdalMpNFuYaFkAJTGSaai8A8CFvzEXd/3mLN0E1vWL+H9dlFs2fXgwxsKyUgFfL6acJuXmbpgDZvXLWbmO74k7vqK+bu0pgSzg1n7/QmU7UYyc85kusnLJKlB85jyzSnse0xk4aoNrFkym3ea32XfAn/WXKxgDrW8+ILnM21xCNbdJjE/YD0r50/mVdtQFk+ZR1Ba+SMDdY/z7Ep/vtgRiWvXd5kwZwkrVy5h9rheuEVt53P/AM7Lr/6kBn3FlCUnpWd8wIKAtSz7bDydpQZx6afLOV2F7+tmnVxNwLWnGLtgNetWzmdsF1OOLvyIZae01u/KyW9JDCozHVGXXeiGzYSrmvF/b3fUjPgrk6su6VSTuGcuM9dfxqvPNL5Zs4HvvxiE++F5bC56W+ahUGUd1ZOq6u7Dprp1vjzifv6WZUEJeHeXOhwfT+KNZtGsWX4E9Z676mJQGeqZr5Kov2eQdCVC815zg4Zu4itSMkb/NnJ5lHUQQf8BA2jWtAlBh4I0r/yMHj2avLx8lixZIv1vvG1tKqUNnt4eWOfc4XpMSrEPPtxD/d6krasnzpbZ3ImJJ7OcnYYKKS4nB7ibkFYsHvWaqbVrTVyUqcTGp5Cr7lXoQEXx2bp7YpN5m9h0/TZjqExq4OxRE2eLLKkTG0uq+stdZVD0jJo45N7hVnLW/bVuXVGpnOj39Tr63PyY/gtDMLV2p6Z9DrdvJZMndaTKorz8lsSQMqsOlclVl3SqUSkscfVyRpVwm8Tsqm+uqQ5V1VF9qY7uPkyqW+fLQ2Fui40ijbTie8UMgiFlqG++BBVjcGP7Wq/XaNSokXxVPjdv3GDLlh/lqyLq1a/HgDf7Excfz7Vr13j22WcIDwtj67btcgjB34mSxlYgEAgeVwxubKuL2li3bt2KnOwcUlNTpdFvgGb9VvD3QxhbgUAgKMJoa7ZVZfcvu8nPy8fKyooTJ04IQ/u3Jo0/Ns1j2e4I+VogEAgeTx65ka1AIBAIBP80HrmRrUAgEAgE/zSEsRUIBAKBwMgIYysQCAQCgZEx6pqtVy0v3FwffJ4uMSmR6OvlH4YtEAgEAsE/EYMbW2tra8zNzDR/P/tcF5o3a0Z2To7mJJ+rkZHs27dPcy+vIJ/0tKqcSiwQCAQCwd8Lgxvbkl+QOngwkKCgINq3b0+PHt1l37K/ICX4+6OwtMcmN4W0KnzW8Z/Ko1ImQjYCwV+H0Y1tVlbW/ZGtlZWl7Gt8Y9uk/5eM6WQjX4EqL5OEmGgi/tjJtqBrZD+mnx+rUbM9vd/sRccmtXG1KSQlNoqzgVvZvPssSdX8nKFK1ZxRa7/k5YTVvDthG3f+ZmXcsN9s3m99gYVTNnJFK+2qhm/w+fvPYnZiGZPWn5N9i6jVcwZTu9xk+YRVnC3jE5QPo0xK6ro2cXs/55NdN0ulIx4Hun74GV1vL2XShvNy6EcHTZ4ahzB35laui08FPpLY1GlLc9dEzodEkK5dX2zq08qvJsq4c5yKTJF9i7Cs3Ro/z3T+/P0Sdx8zuRp9g5SlpSWODg7FDK02Lmam1Klh+CP0rJ1q4e2UxcWjRzkquROnI0ixakLPCYv4ZmSbYsfHGQKVd38W7/iewY0NE6+h41Oj9OrOjK8/omftJEJ2rWPluj2Ex1nz1JDP+HJsB2yrXSbRHP1lL3v2hZIk++iKMfKrL1G30nD36UgbL9lDpmabTvjVqUuTp9vRQKuMVCo7WndsS62M20SWm+zSZWLovJbUdW136vq9pZqS6VBi714HLxetsw+riDFkp8mTl1P1z3otg0dB14zBw85XRmYulo6elFQhK1cPXGzscPB0x6ZYfTHD2c0N6/xMHscFRKMZ2xvRNwgNPV3KXYsqfuqJpdKEibU8ecLSQvYxIBmX2bdxI5s2bWLD2hUsmDWW8QEXcX5lML3ryGEMhhIzMzOUBuusGTo+aNm7P37pu/hk4lzW7dzPwT2bWfbFRCasPIvzC/14sXrnYqM++zV86xKWH4iiQO9eq+Hzqy/5oaGcL6yDTyt72UfdQFjR2rceealp5Hj60spVvqHGtCW+jRRcCjtV7lmsZZeJEfKqpeva7pczRSOL6smmMv562enH3y29uvJw81WYdIdklQ0Ozg+6ROrDGxyd7CjIy6HA0gUn7SP2FM442Cu4m5hgBB189FG6uXvMkv82CL6+vri6uhIUFExgYCAXL14s5nLz8/Dx8SElJYXTp09jb6rkRUc72trZcCMnj7hcw5zuU7NtX7p4XGffzlP3z0xVH/2UFm1OyzdexP7KdoKjClBhj1/vEYwfM4J33xlA31c68YR9CpfO3CBTnhZUmbjTccAYxo8ayuD/9KPb081xSDpPeEym5r533znMH94ONys76rR5iVd6+JH9WzCR2UW/t6z7MkPHSfG/O5g3X30GP88crl24Skp+2Qqna3xDhgzm31070KKOCdFnr5BcTnxqVKoatOr1Fm3SA1l58EqxUzwyI0/y22+hRCanki2v5xVLc48utKxlwq2Ll0jMVUhxOdD9o295r3Y0sU0H8+H4UQz3TeKH35I1/qMbXmNvWJxWuCtcdn2TaZPHMPj/utO5pTeqqDNEphQd/VVZfktiCJmVSV4yzm360MU2ku2Hr6FSl5GyA6+P6Ez61nXcbP48Hrf+R1CkfGSZX0+Gd7Xg2MothKc46lQmhtYVNWXpeknuyeJeOqQn0fzl3jRNDWb7iVtFgSQeBV1Vo50n9VFtRWUbQWTNfzN+9DCGvtWbLn5upP4Zzo10rdFTFetqRJZu8ruHyrsvn3/9Ds5n9nMu+d5vr3Kj3ltMHDect3t1oon1HU6fvUuTfu8zbvgw3h3Qg3Z1CrgadrlY/isq8wd1qOK861uHDEJhDhau9fE0vcv1uDR1Ays5N+o29STv6iUyHb2wzLxGXJosH8c6NK2lJO7PSFLyjJiuR5RH5j1bM0lQo2q60tbWWvYxEqZSz09qrvMKJEMr9cKaD/6C2YNao7ywj/VLlrDlaCJ1/zWFGf3ra4KrVAp8Bs9mSg8PbgRuYNHCAA5Eu9Bz0iR6emiCkBCyjdU7wkghg/O7VrF61U7OyvMkyob9mTtvGC3zz/G/ld+ycucZqf0ex1czeuFWzrRthfE1+o8U3yjamFxi75pvWbP7Aoo2I/lKqviNTcqOT41Ckc35c5EU+vVlbM/mOCsfhFUUphJ7M4Zk+TzbojSPoq3pZX5ZvYz1gVewbD+M2bPeoI5Udmq1sXJ0p+7zoxjxVCan/rea5XvUB7AW+bva35ulKLr2bjeMKf/nxPmdK1m26hcum7Vn9LzPed27KFRF+S2JoWRWFgpFMifDrmPh04L7uw58/fCxuEbYkUBOS1ls6ic9V5Zbw5Y+2CWGc/K6+kq3MjG0ruhOSdmU5lHR1dIUpb1O5xGM7JzLyZ9WsWLTUdIbvMakqW8gdd00oapXV3WT331MbXFxd8bGVH0hp+/pYQxuEUfglg3svmCK74DJfPLpp7zXNJagrWv48dcYnJ4dwYdvNtZEoabyMtct7/rUIUOhUOSSkJCG0skZO9kPR2eclGkkxd0i6a506eiCQtYdW2dnzHISSKzuafl/Ux6pj1ooJYP7tl8z3uvTixdfeIGOHTrKdwyDenTXtO+LNCm4zMUL6tGJkqSwXaxf6M+0JRvZHRzMTwFfsCkkj3qtn8RZoyS1ebK1J2mH17Lox/0cPxHI5nmf8NnyvUTkFR1ynxl9miNhMWSTw+1zRzh67Ay3Nb1SZ14d8jrOpxczcfZqKf7DHNq1kpn+PxDbfAAD2pVd/OXH50KPwX3wiljDVP/v+OnXwwTuCmDWlAAiPf/FkNcqsCQS136cy6LATFoPncuq9cuZM3EofZ9thotpUWVQo05zdynNXlfXMmXGCnb+GszeTYuY+fUOrpr50Eo2kGosC0NYMHkBm3/ex/7TMbJvaay989k3fRbrdgdz+Nf/snT6DHbEN6Tff7pgJZVxefktG8PIrDyuhZ4h0b45reRlBo1BjQ3j5O1UQsKuYikZ4iaSv0rlSEvfWmSEn0b7nPfKysTQunIfWx/6DB/O8GHDHrj3XqSe3NBVxqOmq2VhZXGBVf4r2BV8lOBfVvLpyuPk1e9A+/uv8le9rt5DV50uCytFGCvmrONA8H42LZjP3hs2PFHvBqvUfocP8d+ATwg4kkFN35a4SHLRp8wry7t+dchwZCQmkGPujLM8RtIY1Kw7JGapDXEqSmcnjSFWqcxxcrImLyEBaQz8WGJ0Y/uSox3fN657343LTcdjwyraH/lVcz2jjqccsgjz5CTqNffVnGWblZMt+1YROz/eGDOWMaPHMPaDaXy66Du+6O3G5c3fsTNO3TPLITZ0N9sORZGvtMTJqwG+bZ+hgX0BeHhStE/mDjduZmLfaSCjerSljq1S+l0CpwMPcTGxkoOvlb60koZIF09HYl+7NrVr1dK4WoVRXEmwpm6DmnJAHZHia9HMlLD9PxOntfO1MG43B8JNaNzCD9MKGldFYQy/LhrDO8NnslwaZeR4dqT/hLl8H/AVg9rI65RKP1qqn7FvJ7Faz8gKX83kcf78FK3ld+kMV3TZwXz+EPvi5b8lFFL+9x6KwKqpDw1kP10xuswuhnI2oxbNWzlLDYQTrSSDmhJ2igipI3j7ZBixTpJM1Ya4Rmt8G+ZxNiys2KH6OpdJSaqrK0pbPLzrUFvb1XJF5+1Pj5iulkXun+e4oFW2GZeiJB11xe1+E1INuctUWX4S2REXiJR/q1BEc+16HsTdJFp+tEJRQPydFKldcsBR7aFHmVee97+Iuwkk5VtLA1qL+wY1VzKo6t3JWdL/WeYuSF6SpXHBwa6QpMSkouWZxxCjG1t1dcovVN13hWo/ExNNgWuuS1S41DbtUZkqycvMpFOnDlhYaK+w64lJDeydXXCWnJNlPvFn9vDt1OFM/uHS/QV683ovMeqTpWzato21y75mxqi++DhobmlQKLL4dekcNp0zo+OQmSzZuJW10qhq2CuNNKOyCpEaf1cTc9qNXMay5Su03Ay6uiuk27XlgDri4SHFl0J8bPFjBxWKPG7HJWPi7kllTaI625m3QtmzYTEffzCIt0Z/yg+RrvSe/CGvOEn50TzjLndic+VflE9+gW4NWGZSIlklKlh8QiIqB1c8NNNw+mFUmRWGEXYul0Z+LTG3lAxqoxzOnD5TdC/iJOEptfFt6ST1SVrQVPEnp08W7xDqWialqK6upBxn6bSpTJ8+7YHz38x5XRu2R1BXS5KTV6LzXZBPgWTIFXIrVi25y1RZfhJ5+fJavjZSG1c8Rq106FHmleX9L0OVSKLUkbFzckGpdMXRrkC6Tiy6lxZPYq4NTpIhNpHuO5IiGdsyyugxweiiOpicyogr1++7xeY2xPUfxO+dntNcz4mOlUNKvTc3D7Lr1SP5VixH/vgdd1d3XuvVU75bBVL+4PtZM5n1sT+z5sxlyarNHLiQcn8koqIFQz8ZR6ca4Wz4fBxvv/4v/j1oJPOCtYZhEoqUcDZ/NoaBbw7ig4+XciDGledHfcGUbpVs301OJpUcgr98nX6vl3aDvtHzQPWkZO6qbLB1KN2AOtjaSM9LIkG+LolKpUSpXq/WWitTF0NG9O/8MHcLZ819eaqlheYZqdhKlcdwqmFpa1dqFONgZ4ci467UK5Y9dMTYMlMbg5Nhf2LatCWtWksGVXWe06H3EnmR02cyadSiFc39mmEVdYbQVPlWdTG0rujLI6Sr1aHKdbUSlCWtWg2L6r+W9FfL3ACoN50mJaWgcJSMqZOzZFCTJIN6r66nSIY3T2OI7ZwcMU1PINkw+1//lvzV/aJiZDT1QWVmQeiVKxw7dpzUtFTNtIq5uTHetpNwa0wjh3SOb17OnpBIkqTBnHoqpEHtB99zVpk40KBtF1q4S53U7ASunDrI+rlfszfGgma+DzY6FKFEGpQ/IPMKkbctaCqFy8vKJCs7S+Myc51o9tQTOJqrx/kVUSK+rEtExJjTqmMHzLWMl8q8He0lQ3k78lK5r6Bg0prxG/5LwIgHG3zuYeqlHoXkkJYmFYDmGaa0aN+52LvIilpdGDz6Xbp4Ff+tLiiat6WT1nymer2zc/tGFEZFEiX7FVEiv2VhcJmVJiUknChbX/q+5keNP0MJySryV08Dhoaew6TZS/Rv6cGt8BBidR05lsLQulJNHiVdrSLVqqvlInUIkwuxquUt7wdQ65uCOi2b46y5qgZGkbmu+TIcmmljMyfq1nPC5O4d7s3Yq8WbnJCMwqk29V2syEy4U2qG63HikTG2eYUqbkkjL1VhIRGREWRn55CekYGdNAJyca62WpdNwjVupNvQoutrtPC2x8rBm7b9pvJWO+2p67q8OmoiMyYNoUNDF2yd6tO2R2/auedy+eIVOYxEXAyxhY60fLU7T/l54yhVTIUikq0bj2P58vt89GYnGrg64FK3FT0nzGLmxDF0866g+MuML4rtm4/C06PxH9iZRm6OuDfswMCZY3jG5ASbtl6Wf1wGhWHsC7yJY9fxfDy0N8+1qIeHRz1aPD8Q/+l98Lh5gAPhRc/Ytvk4is4jmDHwGRq6OVPL9wVGTBhD7zZW3H0wEaEz+bmN6f/RQDrUd8XJozEvDvdnoE8agVv3PHhVpYz8lokhZVYesScJj3WluY8LUZJB1f7STeapMC5b+eJTN5WzoRGyr54YWlcMwCOlq1Wm6nW1PNQdrHNnz5P3RF+mDOtGG7/WPN9/Oh90tqK6m2oNLnM98mVQNBuiLHF0tCI9IZ48rfqSn3SHu0onnGxypRHvXdn38cRoNbh1q1b06dOnlGvftp0c4gE5koH9JiaObMngSp1GlCZFXTMTFBRKfgqlcZKpKPyDgAU/cdf3PeYs3cSW9Ut4v10UW3Y9+PCGQjJSAZ+vJtzmZaYuWMPmdYuZ+Y4vibu+Yv4uranL7GDWfn8CZbuRzJwzmW7ycktq0DymfHMK+x4TWbhqA2uWzOad5nfZt8CfNRcrmEMtL77g+UxbHIJ1t0nMD1jPyvmTedU2lMVT5hGUVn6vUT09enalP1/siMS167tMmLOElSuXMHtcL9yitvO5fwDn5Vd/UoO+YsqSk9IzPmBBwFqWfTaezlIDufTT5Zyuwnd1s06uJuDaU4xdsJp1K+cztospRxd+xLJTWut55eS3JAaVWTmoG8HTYSnSCCaW8JCbsq9Mcghh6kdlhxN6toqNmaF1xUA8KrpaVapbV8sj7udvWRaUgHd3qePw8STeaBbNmuVHMMQKgkFlrme+DIX6gynJCTlSfckg6U6J99hzJEOsfgWpIJHE4l9ufOww+reRy+Pet5FdzcywlYzpVWkk23/AAJo1bULQoSCOHT/G6NGjycvLZ8mSJdL/xpvsVylt8PT2wFpSjOsxKcU++HAP9fudtq6eOFtmcycmnsxydiwqpLicHNSb9NKKxaNeM7V2rYmLMpXY+BRy1b0KHagoPlt3T2wybxObrt+mDpVJDZw9auJskSV1hmNJzS1bBYqeUROH3DvcSs4qtutWF9S7eft9vY4+Nz+m/8IQTK3dqWmfw+1byeRp7VDVprz8lsSQMvurMLSuGIpHSVerQnXrankozG2xkQxLWvE9XwbBkDLXN1+Ch4PBje1rvV6jUaNG8lX53Lxxgy1bfpSviqhXvx4D3uxPXHw8165d07z+Ex4WxtZt2+UQgr8TJY2tQCAQPK4Y3NhWF7Wxbt26FTnSSDc1NVUa/QZo1m8Ffz+EsRUIBIIijLvrogrs/mU3+Xn5WFlZceLECWFo/9ak8cemeSzbXcWNRAKBQPAP4ZEb2QoEAoFA8E/jkRvZCgQCgUDwT0MYW4FAIBAIjIwwtgKBQCAQGBlhbAUCgUAgMDLC2AoEAoFAYGSEsRUIBAKBwMgIYysQCAQCgZERxlYgEAgEAqMC/w8hplZHFQYatAAAAABJRU5ErkJggg==;" vertex="1" parent="1">
          <mxGeometry x="180" y="360" width="475" height="379" as="geometry" />
        </mxCell>
      </root>
    </mxGraphModel>
  </diagram>
</mxfile>
